<svg xmlns="http://www.w3.org/2000/svg" viewBox="0 0 400 600">

  <!-- Water -->
  <defs>
    <linearGradient id="waterGradient" x1="0%" y1="100%" x2="0%" y2="0%">
      <stop offset="0%" style="stop-color:rgb(0,0,0);stop-opacity:1" />
      <stop offset="100%" style="stop-color:rgb(95, 167, 238);stop-opacity:1" />
    </linearGradient>
  </defs>
  <rect x="100" y="450" width="200" height="100" fill="url(#waterGradient)" />

  <!-- Vase -->
  <path d="M150,30 Q70,80 70,150 Q150,220 230,150 Q310,80 240,30" stroke="#6f3a1e" fill="none" stroke-width="10"/>

  <!-- Balloons -->
  <circle cx="170" cy="220" r="40" fill="#ffcc00"/>
  <circle cx="250" cy="180" r="30" fill="#ffff66"/>
  <polygon points="190,250 210,270 170,270" fill="#ffcc00"/>

  <!-- Stems and leaves -->
  <path d="M180,220 v-40 q-10,-5 -20,0 v-60 q10,-5 20,0 v40" stroke="#3d9970" fill="none" stroke-width="5"/>
  <path d="M200,180 v-40 q-10,-5 -20,0 v-60 q10,-5 20,0 v40" stroke="#3d9970" fill="none" stroke-width="5"/>

</svg>