<svg xmlns="http://www.w3.org/2000/svg" viewBox="0 0 500 700">
  <!-- Vase -->
  <path d="M250,10 Q140,80 60,170 A140,140 0 0 1 390,170 Q460,80 250,10" fill="#FFD700"/>
  <path d="M250,10 Q140,80 60,170 A140,140 0 1 1 390,170 Q460,80 250,10" stroke="#7C5D1B" fill="transparent"/>

  <!-- Balloons -->
  <circle cx="220" cy="120" r="40" fill="red"/>
  <circle cx="280" cy="90" r="30" fill="#FF69B4"/>
  <polygon points="170,50 250,100 330,50" fill="#FFFF00"/>

  <!-- Stems and Leaves -->
  <rect x="200" y="170" width="50" height="60" fill="green"/>
  <polygon points="200,230 240,230 220,280" fill="green"/>
  <rect x="220" y="170" width="30" height="50" fill="brown"/>

  <!-- Water Gradient -->
  <defs>
    <linearGradient id="waterGradient" x1="0%" y1="100%" x2="0%" y2="0%">
      <stop offset="0%" style="stop-color:#B0E0E6; stop-opacity:1"/>
      <stop offset="100%" style="stop-color:#48CAF2; stop-opacity:1"/>
    </linearGradient>
  </defs>
  <rect x="50" y="350" width="400" height="100" fill="url(#waterGradient)"/>

</svg>