<svg width="400" height="300" xmlns="http://www.w3.org/2000/svg">

  <!-- Water -->
  <defs>
    <linearGradient id="waterGradient" x1="0%" y1="100%" x2="0%" y2="0%">
      <stop offset="0%" style="stop-color:rgb(59,176,238);stop-opacity:1"/>
      <stop offset="100%" style="stop-color:rgb(145,215,252);stop-opacity:1"/>
    </linearGradient>
  </defs>
  <rect x="20" y="270" width="360" height="30" fill="url(#waterGradient)"/>

  <!-- Vase -->
  <path d="M80,270 Q120,250 160,270 Q200,290 240,270 Q280,250 320,270" stroke="brown" fill="none" stroke-width="5"/>
  <circle cx="180" cy="290" r="30" stroke="brown" fill="none" stroke-width="5"/>

  <!-- Balloons -->
  <circle cx="60" cy="120" r="40" fill="red"/>
  <path d="M70,100 Q80,90 90,100" stroke="green" fill="transparent" stroke-width="5"/>
  <circle cx="160" cy="130" r="30" fill="yellow"/>
  <path d="M150,110 Q140,100 130,110" stroke="green" fill="transparent" stroke-width="5"/>
  <circle cx="260" cy="90" r="45" fill="blue"/>
  <path d="M270,70 Q280,60 290,70" stroke="green" fill="transparent" stroke-width="5"/>

  <!-- Stems and leaves -->
  <path d="M100,270 Q120,280 140,270 Q160,280 180,270" stroke="green" fill="transparent" stroke-width="5"/>
  <path d="M130,270 Q135,265 145,270 Q150,275 155,270" fill="darkgreen"/>
  <path d="M220,270 Q240,280 260,270 Q280,280 300,270" stroke="green" fill="transparent" stroke-width="5"/>
  <path d="M250,270 Q255,265 265,270 Q270,275 275,270" fill="darkgreen"/>

</svg>