<svg xmlns="http://www.w3.org/2000/svg" viewBox="0 0 400 450">

  <!-- Balloon 1 (Red Heart) -->
  <path d="M180 70 Q220 50, 260 70 Q290 90, 300 140 L300 200 L220 250 L140 200 Z" fill="red"/>
  <path d="M180 70 Q220 50, 260 70" stroke="#ff0000" stroke-width="3"/>

  <!-- Balloon 2 (Blue Square) -->
  <rect x="70" y="90" width="50" height="120" fill="blue"/>
  <path d="M70 90 L120 90 L120 210 Z" stroke="#0000ff" stroke-width="3"/>

  <!-- Balloon 3 (Green Circle) -->
  <circle cx="185" cy="160" r="40" fill="green"/>
  <circle cx="185" cy="160" r="42" stroke="#008000" stroke-width="3"/>

  <!-- Leaves -->
  <path d="M70 250 Q90 270, 120 250 Z" fill="green"/>
  <path d="M160 250 Q190 270, 220 250 Z" fill="green"/>

  <!-- Stem -->
  <rect x="135" y="240" width="30" height="50" fill="#8b7d6b"/>
  <path d="M135 290 Q165 290, 180 310 Z" stroke="#8b7d6b" stroke-width="3"/>

  <!-- Water gradient -->
  <defs>
    <linearGradient id="waterGrad" x1="0%" y1="100%" x2="0%" y2="0%">
      <stop offset="0%" style="stop-color:rgb(0,0,100);stop-opacity:1"/>
      <stop offset="100%" style="stop-color:rgb(0,0,255);stop-opacity:1"/>
    </linearGradient>
  </defs>
  <rect x="30" y="370" width="340" height="80" fill="url(#waterGrad)"/>

</svg>