<svg width="200" height="150" xmlns="http://www.w3.org/2000/svg">
  <ellipse cx="100" cy="75" rx="95" ry="65" fill="lightgray"/>
```

2. **Balloon Envelope (Layer 2)**

```svg
<path d="M100,10 A80,40 0 1 0 100,130 A80,40 0 1 0 100,70" fill="#ff6347"/>
```

3. **Balloon Basket (Layer 3)**

```svg
<rect x="85" y="95" width="30" height="25" fill="#f39c1a"/>
<path d="M90,95 l-10,-15 h20 z" stroke="#f39c1a" fill="transparent"/>
```

4. **Balloon Rope (Layer 4)**

```svg
<path d="M100,70 v-80" stroke="#6b482d" fill="transparent"/>
```

5. **Final Touches (Layers 5 & 6)**

Add some patterns and textures to make it look like it's been buried for centuries:

```svg
<!-- Layer 5: Dust particles -->
<circle cx="150" cy="120" r="3" fill="lightgray"/>
<circle cx="70" cy="80" r="2" fill="lightgray"/>

<!-- Layer 6: Cracks and imperfections -->
<path d="M140,110 l-20,-15" stroke="#6b482d" fill="transparent" stroke-width="2"/>
```

Here's the complete SVG artifact after careful excavation:

```svg
<svg width="200" height="150" xmlns="http://www.w3.org/2000/svg">
  <ellipse cx="100" cy="75" rx="95" ry="65" fill="lightgray"/>

  <path d="M100,10 A80,40 0 1 0 100,130 A80,40 0 1 0 100,70" fill="#ff6347"/>

  <rect x="85" y="95" width="30" height="25" fill="#f39c1a"/>
  <path d="M90,95 l-10,-15 h20 z" stroke="#f39c1a" fill="transparent"/>

  <path d="M100,70 v-80" stroke="#6b482d" fill="transparent"/>

  <!-- Dust particles -->
  <circle cx="150" cy="120" r="3" fill="lightgray"/>
  <circle cx="70" cy="80" r="2" fill="lightgray"/>

  <!-- Cracks and imperfections -->
  <path d="M140,110 l-20,-15" stroke="#6b482d" fill="transparent" stroke-width="2"/>
</svg>