<svg xmlns="http://www.w3.org/2000/svg" viewBox="0 0 400 450">

  <!-- Balloon 1 (Red Heart) -->
  <path d="M150,75 Q160,90 180,75 Q170,90 190,75" fill="red"/>
  <circle cx="165" cy="25" r="25" fill="red"/>

  <!-- Balloon 2 (Blue Circle) -->
  <circle cx="110" cy="130" r="50" fill="blue"/>

  <!-- Balloon 3 (Green Triangle) -->
  <polygon points="240,60 320,90 280,170" fill="green"/>

  <!-- Balloon Stems and Leaves -->
  <path d="M165,75 L165,100 V140 Z" stroke="brown"/>
  <path d="M165,140 Q180,120 190,140" fill="darkgreen"/>
  <path d="M110,130 L110,160 V190 Z" stroke="brown"/>
  <path d="M110,190 Q85,210 100,190" fill="darkgreen"/>
  <path d="M270,90 L270,130 V160 Z" stroke="brown"/>
  <path d="M270,160 Q255,180 260,160" fill="darkgreen"/>

  <!-- Water Gradient -->
  <defs>
    <linearGradient id="waterGrad" x1="0%" y1="100%" x2="0%" y2="0%">
      <stop offset="0%" style="stop-color:rgb(0,0,255);stop-opacity:1"/>
      <stop offset="100%" style="stop-color:rgb(0,0,255);stop-opacity:0"/>
    </linearGradient>
  </defs>
  <rect x="10" y="380" width="380" height="70" fill="url(#waterGrad)"/>

  <!-- Vase -->
  <path d="M40,200 Q90,150 140,200 Q190,250 240,200 Q290,150 340,200" stroke="brown" fill="tan"/>
  <path d="M80,200 L120,200 Z" stroke="brown"/>

</svg>