<svg xmlns="http://www.w3.org/2000/svg" viewBox="-50 0 100 61.8">
  <!-- Balloon landscape boundaries -->
  <rect width="100%" height="61.8" fill="#eef2f7"/>

  <!-- Mountains (circles) -->
  <circle cx="33.9" cy="45.6" r="18"/>
  <circle cx="66.1" cy="22.9" r="12.5"/>

  <!-- Rivers (paths) -->
  <path d="M75,61.8 Q90,43.5 85,25 A15,15 0 0 0 70,5 A15,15 0 0 1 65,25 A15,15 0 0 1 70,0 Q65,14.5 50,31.8" stroke="#bdcfe0" fill="transparent"/>

  <!-- Trees (polygons) -->
  <polygon points="47,29.8 53,29.8 47,35.5 53,35.5" transform="rotate(-45 50 32.6)" stroke="#006d1e" fill="#9ac74f"/>
  <polygon points="29,19.8 35,19.8 29,25.5 35,25.5" transform="rotate(-30 32 22.6)" stroke="#006d1e" fill="#9ac74f"/>

  <!-- Sun (circle) animation -->
  <circle cx="90" cy="30.9" r="8">
    <animate attributeName="cx" from="90" to="5" dur="10s" repeatCount="indefinite"/>
  </circle>
</svg>