<svg width="300" height="200" xmlns="http://www.w3.org/2000/svg">
  <rect x="0" y="0" width="300" height="200" fill="#D5BDAA"/>
```

2. **Balloon Outline Layer**
```svg
  <path d="M150,75 Q160,40 200,80 T250,75 Q190,130 150,170 Q90,130 40,80 T90,75 Z" stroke="#FF0000"/>
```

3. **Balloon Fill Layer**
```svg
  <path d="M150,75 Q160,40 200,80 T250,75 Q190,130 150,170 Q90,130 40,80 T90,75 Z" fill="#FF0000"/>
```

4. **Ribbon Outline Layer**
```svg
  <path d="M260,80 Q260,50 250,30 V20 H150 V30 Q150,50 150,70 Z" stroke="#FFD700"/>
```

5. **Ribbon Fill Layer**
```svg
  <path d="M260,80 Q260,50 250,30 V20 H150 V30 Q150,50 150,70 Z" fill="#FFD700"/>
```

6. **Final Touch: Textured Shadow**
```svg
  <defs>
    <linearGradient id="shadow" x1="0%" y1="0%" x2="100%" y2="100%">
      <stop offset="0%" style="stop-color:#8B4513; stop-opacity:0.5"/>
      <stop offset="100%" style="stop-color:#FFF; stop-opacity:0"/>
    </linearGradient>
  </defs>
  <path d="M150,75 Q160,40 200,80 T250,75 Q190,130 150,170 Q90,130 40,80 T90,75 Z" fill="url(#shadow)"/>
</svg>