<svg viewBox="0 0 120 120">
  <rect width="100%" height="100%" fill="#F8F9FA"/>

  <defs>
    <pattern id="pattern" x="0" y="0" width="4" height="4">
      <circle cx="2" cy="2" r="1.5" fill="#FF0000"/>
    </pattern>
  </defs>

  <path d="M50 10 Q70 30, 90 10 Q110 30, 90 50 Q70 70, 50 50 Q30 70, 10 50 Q30 30, 50 10 z" fill="#FF4500"/>
  <path d="M50 10 Q70 30, 90 10 Q110 30, 90 50 Q70 70, 50 50 Q30 70, 10 50 Q30 30, 50 10 z" fill="url(#pattern)"/>

  <path d="M60 80 Q70 90, 80 100 Q90 90, 100 80" stroke="#FFD700" stroke-width="4"/>

  <circle cx="35" cy="45" r="5" fill="#FF0000"/>
  <circle cx="65" cy="45" r="5" fill="#FF0000"/>
</svg>