<svg width="200" height="300" xmlns="http://www.w3.org/2000/svg">

  <!-- Vase -->
  <path d="M10,30 Q50,10 90,30 A80,80 0 0 1 10,170 Q50,210 90,170 A80,80 0 0 1 10,30"
        fill="url(#vaseGradient)" stroke="black" stroke-width="2"/>

  <!-- Water -->
  <defs>
    <linearGradient id="waterGradient" x1="0%" y1="0%" x2="0%" y2="100%">
      <stop offset="0%" style="stop-color:blue; stop-opacity:1"/>
      <stop offset="100%" style="stop-color:#87CEEB; stop-opacity:1"/>
    </linearGradient>
  </defs>
  <rect x="5" y="265" width="90" height="35" fill="url(#waterGradient)"/>

  <!-- Balloon flowers -->
  <circle cx="40" cy="80" r="30" fill="#ffd700"/>
  <polygon points="10,60 50,20 90,60" fill="#ffa500"/>
  <path d="M70,80 Q40,140 10,80" fill="#ffff00"/>

  <!-- Leaves -->
  <polygon points="30,70 20,90 40,90" fill="green" stroke="black"/>
  <polygon points="65,75 75,95 55,95" fill="green" stroke="black"/>

  <!-- Stems -->
  <rect x="35" y="120" width="30" height="40" fill="#8b4513"/>
  <rect x="60" y="125" width="30" height="40" fill="#8b4513"/>

</svg>