<svg width="200" height="200" xmlns="http://www.w3.org/2000/svg">
  <!-- Body -->
  <path d="M100,5 A80,40 0 0 1 180,90 A80,40 0 0 1 100,140 A80,40 0 0 1 20,90" fill="gold" stroke="black"/>

  <!-- Left Wing -->
  <path d="M70,5 Q90,30 70,60 Q50,40 70,20" fill="gold" stroke="black"/>

  <!-- Right Wing -->
  <path d="M130,5 Q110,30 130,60 Q150,40 130,20" fill="gold" stroke="black"/>

  <!-- Antennae -->
  <path d="M100,20 L90,10 110,10 Z"/>
  <path d="M100,25 L90,15 110,15 Z"/>

  <!-- Eyes -->
  <circle cx="85" cy="30" r="5" fill="black"/>
  <circle cx="115" cy="30" r="5" fill="black"/>
</svg>