<svg width="200" height="150" viewBox="-30 -10 60 20" xmlns="http://www.w3.org/2000/svg">
  <!-- Antennae -->
  <path d="M-20,5 a20,20 0 0 0 40,0 a20,20 0 0 0 -40,0" fill="#333"/>
  <path d="M20,5 a20,20 0 0 1 -40,0 a20,20 0 0 1 40,0" fill="#333"/>

  <!-- Wings -->
  <ellipse cx="0" cy="-2" rx="18" ry="9" fill="url(#Gradient1)"/>
  <ellipse cx="0" cy="-5" rx="16" ry="7" fill="url(#Gradient1)"/>
  <ellipse cx="0" cy="-3" rx="14" ry="6" fill="url/#Gradient2)"/>
  <ellipse cx="0" cy="0" rx="12" ry="5" fill="#333"/>

  <!-- Hindwings -->
  <circle cx="-10" cy="-5" r="2" fill="#333"/>
  <circle cx="10" cy="-5" r="2" fill="#333"/>

  <!-- Details on wings (scales and eyes) -->
  <g stroke="none">
    <circle cx="-8" cy="5" r="0.5" fill="#333"/>
    <circle cx="8" cy="5" r="0.5" fill="#333"/>
    <!-- Add more circles for scales as needed -->
    <path d="M-12,4 a6,6 0 0 1 12,0 a6,6 0 0 1 -12,0" stroke="#333" fill="none"/>
  </g>

  <!-- Gradients -->
  <defs>
    <linearGradient id="Gradient1" x1="0%" y1="0%" x2="100%" y2="100%">
      <stop offset="0%" style="stop-color:#ffcc00;stop-opacity:1"/>
      <stop offset="100%" style="stop-color:#ff9933;stop-opacity:1"/>
    </linearGradient>
    <linearGradient id="Gradient2" x1="0%" y1="0%" x2="100%" y2="100%">
      <stop offset="0%" style="stop-color:#ffcc00;stop-opacity:1"/>
      <stop offset="100%" style="stop-color:#ff6600;stop-opacity:1"/>
    </linearGradient>
  </defs>
</svg>