<svg width="100" height="80" viewBox="0 0 100 80" xmlns="http://www.w3.org/2000/svg">

  <!-- Body -->
  <path d="M50,20 Q60,40 70,30 Q60,20 50,10 Q40,20 30,30 Z" fill="#FFCC99"/>

  <!-- Wings (Upper) -->
  <path d="M20,10 C40,0 60,0 80,10 S100,0 80,20 S40,0 20,10 Z" fill="#FFCC99"/>
  <path d="M50,30 Q70,50 70,60 Q50,70 30,60 Q10,50 10,30 Z" fill="#FF6600"/>

  <!-- Wings (Lower) -->
  <path d="M20,40 C40,50 60,50 80,40 S100,50 80,60 S40,50 20,40 Z" fill="#FFCC99"/>
  <path d="M50,70 Q70,80 70,90 Q50,90 30,90 Q10,80 10,70 Z" fill="#FF6600"/>

  <!-- Antennae -->
  <circle cx="25" cy="15" r="3" fill="#333"/>
  <circle cx="75" cy="15" r="3" fill="#333"/>
  <path d="M20,5 Q30,20 40,5 Z" stroke="#333" fill="transparent"/>

</svg>