<svg width="300" height="200" xmlns="http://www.w3.org/2000/svg">

  <!-- Body -->
  <path id="body" d="M150 10 Q170 50, 200 10 Q180 40, 200 80 Q190 60, 200 30"
        fill="#FFC300" stroke="#DDBF6A" stroke-width="3"/>

  <!-- Wings -->
  <path d="M50 50 Q70 80, 100 50 Q140 50, 120 80 Q100 110, 50 80"
        fill="#FFC300" stroke="#DDBF6A" stroke-width="3"/>
  <path d="M250 50 Q230 80, 170 50 Q140 50, 120 80 Q140 110, 250 80"
        fill="#FFC300" stroke="#DDBF6A" stroke-width="3"/>

  <!-- Antennae -->
  <line x1="170" y1="80" x2="190" y2="100" style="stroke:#DDBF6A; stroke-width:3"/>
  <line x1="210" y1="80" x2="230" y2="100" style="stroke:#DDBF6A; stroke-width:3"/>

  <!-- Head -->
  <circle cx="200" cy="75" r="20" fill="#FFC300" stroke="#DDBF6A" stroke-width="3"/>

  <!-- Eyes -->
  <circle cx="190" cy="65" r="5" fill="#000"/>
  <circle cx="210" cy="65" r="5" fill="#000"/>

</svg>