<svg width="50" height="70" xmlns="http://www.w3.org/2000/svg">

  <!-- Body -->
  <circle cx="15" cy="30" r="15" fill="#000"/>

  <!-- Antennae -->
  <path d="M5,25 a10,10 0 1,0 20,0 a10,10 0 1,0 -20,0" fill="#000"/>
  <path d="M25,25 a10,10 0 1,0 -20,0 a10,10 0 1,0 20,0" fill="#000"/>

  <!-- Left Wing -->
  <polygon points="5,40 10,55 30,60 35,40 20,30 5,25"
           style="fill: url(#Gradient);"/>
  <defs>
    <linearGradient id="Gradient" x1="0%" y1="0%" x2="0%" y2="100%">
      <stop offset="0%"   style="stop-color:rgb(70,20,60);stop-opacity:1" />
      <stop offset="100%" style="stop-color:rgb(255,248,220);stop-opacity:1" />
    </linearGradient>
  </defs>

  <!-- Right Wing -->
  <polygon points="15,45 25,60 40,65 45,45 30,35"
           style="fill: url(#Gradient);"/>

</svg>