<svg xmlns="http://www.w3.org/2000/svg" viewBox="-10 -10 80 60">

  <!-- Body -->
  <path id="bodyGradient" d="M15,-5 Q40,-5 55,-10 Q70,-5 55,10 Q40,5 15,5 Q-15,5 -5,10 Q-15,5 -35,5 Q-60,10 -45,5 Q-60,-5 -35,-5 Q-40,-5 -15,-5 Z" fill="url(#bodyGradient)"/>
  <defs>
    <linearGradient id="bodyGradient" x1="0%" y1="0%" x2="100%" y2="0%">
      <stop offset="0%" style="stop-color:rgb(255,238,178);stop-opacity:1"/>
      <stop offset="100%" style="stop-color:rgb(255,169,43);stop-opacity:1"/>
    </linearGradient>
  </defs>

  <!-- Wings -->
  <path d="M-70,-5 Q-60,-20 -40,-40 Q-20,-20 0,-5 Q20,-20 40,-40 Q60,-20 70,-5 Z" fill="url(#wingGradient)"/>
  <path d="M70,-5 Q60,-20 40,-40 Q20,-20 0,-5 Q-20,-20 -40,-40 Q-60,-20 -70,-5 Z" fill="url(#wingGradient)"/>
  <defs>
    <linearGradient id="wingGradient" x1="0%" y1="0%" x2="100%" y2="0%">
      <stop offset="0%" style="stop-color:rgb(255,238,178);stop-opacity:1"/>
      <stop offset="100%" style="stop-color:rgb(254,191,68);stop-opacity:1"/>
    </linearGradient>
  </defs>

  <!-- Antennae -->
  <path d="M-70,-5 L-75,5 Z" fill="#333"/>
  <path d="M70,-5 L75,5 Z" fill="#333"/>

</svg>