<svg xmlns="http://www.w3.org/2000/svg" viewBox="0 0 50 40" xml:space="preserve">

  <!-- Body -->
  <path d="M25,10 A15,7.5 0 1,0 25,30 A7.5,15 0 1,0 25,10" fill="#8B4513"/>

  <!-- Wings -->
  <g stroke="none">
    <path d="M25,10 Q37.5,15 45,20 L50,27.5 C46,30 40,35 30,37.5 L25,40 z" fill="#FFF" />
    <path d="M25,10 Q12.5,15 5,20 L0,27.5 C5,30 10,35 20,37.5 L25,40 z" fill="#FFF" />

    <!-- Gradient for wings -->
    <defs>
      <linearGradient id="grad" x1="0%" y1="0%" x2="100%" y2="100%">
        <stop offset="0%" style="stop-color:rgb(255,255,255);stop-opacity:1" />
        <stop offset="100%" style="stop-color:rgb(238,197,145);stop-opacity:1" />
      </linearGradient>
    </defs>
    <path d="M25,10 Q37.5,15 45,20 L50,27.5 C46,30 40,35 30,37.5 L25,40 z" fill="url(#grad)" />
    <path d="M25,10 Q12.5,15 5,20 L0,27.5 C5,30 10,35 20,37.5 L25,40 z" fill="url(#grad)" />
  </g>

  <!-- Antennae -->
  <path d="M22.5,5 L20,0 L25,0 L27.5,5 Z"/>
  <path d="M27.5,5 L30,0 L35,0 L37.5,5 Z"/>

</svg>