<svg width="200" height="150" xmlns="http://www.w3.org/2000/svg">

  <!-- Body -->
  <circle cx="80" cy="70" r="40" fill="#f39c12"/>

  <!-- Left Wing -->
  <path d="M60,50 Q40,30 80,30 Q120,30 100,50"
        fill="url(#gradient)"/>
  <path d="M60,70 Q40,90 80,90 Q120,90 100,70"
        fill="#f39c12"/>

  <!-- Right Wing -->
  <path d="M140,50 Q120,30 80,30 Q60,30 100,50"
        fill="url(#gradient)"/>
  <path d="M140,70 Q120,90 80,90 Q60,90 100,70"
        fill="#f39c12"/>

  <!-- Head -->
  <circle cx="80" cy="35" r="15" fill="#fff"/>
  <path d="M80,30 Q60,20 100,20 Q80,10 80,30"
        stroke="#f39c12" fill="transparent"/>

  <!-- Legs -->
  <line x1="75" y1="70" x2="75" y2="100" stroke="#f39c12"/>
  <line x1="85" y1="70" x2="85" y2="100" stroke="#f39c12"/>

  <!-- Gradient for wings -->
  <defs>
    <linearGradient id="gradient" gradientTransform="rotate(45)">
      <stop offset="0%"   stop-color="#ffd65b"/>
      <stop offset="100%" stop-color="#e37309"/>
    </linearGradient>
  </defs>

</svg>