<svg xmlns="http://www.w3.org/2000/svg" viewBox="-5 -5 100 80">
  <!-- Body -->
  <path id="body" d="M40,10 A20,20 0 0 1 60,50 A20,20 0 0 1 40,90 A20,20 0 0 1 20,50 Z"
        fill="purple" stroke="black"/>

  <!-- Left Wing -->
  <path id="left-wing" d="M70,30 Q60,40 50,45 Q60,60 70,65 Q80,60 90,45"
        fill="transparent" stroke="black"/>

  <!-- Right Wing -->
  <path id="right-wing" d="M30,30 Q40,40 50,45 Q40,60 30,65 Q20,60 10,45"
        fill="transparent" stroke="black"/>

  <!-- Antennae -->
  <polygon id="antenna-left" points="87,15 95,15 92,7" fill="black"/>
  <polygon id="antenna-right" points="13,15 5,15 8,7" fill="black"/>

</svg>