<svg width="200" height="200" xmlns="http://www.w3.org/2000/svg">
  <!-- Body -->
  <path d="M100,5 A80,40 90 0 0 1 200,70 Q150,60 100,100 Q50,60 10,70 A80,40 90 0 0 1 100,5"
        fill="gold" stroke="black" stroke-width="2"/>

  <!-- Wing 1 -->
  <path d="M10,30 Q50,60 100,30 A80,40 90 0 1 1 190,30 Q140,60 10,30"
        fill="gold" stroke="black" stroke-width="2"/>

  <!-- Wing 2 -->
  <path d="M10,70 Q50,100 100,70 A80,40 90 0 1 1 190,70 Q140,100 10,70"
        fill="gold" stroke="black" stroke-width="2"/>

  <!-- Antenna -->
  <line x1="50" y1="30" x2="50" y2="5" style="stroke:black; stroke-width:2"/>
</svg>