<svg width="200" height="200" xmlns="http://www.w3.org/2000/svg">
  <!-- Body -->
  <path d="M100,10 Q140,10 150,40 Q160,80 140,90 Q120,80 100,40 Q60,80 40,90 Q50,10 100,10" fill="yellow" stroke="black"/>

  <!-- Wings -->
  <path d="M90,30 Q130,20 150,30 Q160,50 140,80 Q120,50 110,30 Z" fill="yellow"/>
  <path d="M110,70 Q110,90 140,90 Q140,110 110,100 Q90,90 90,70 Z" fill="yellow"/>

  <!-- Antennae -->
  <line x1="85" y1="20" x2="65" y2="30" stroke="black"/>
  <line x1="115" y1="20" x2="135" y2="30" stroke="black"/>

</svg>