<svg xmlns="http://www.w3.org/2000/svg" viewBox="-50 -50 100 100">
  <!-- Body -->
  <path d="M-40,-40 Q-20,-20 C0,10 40,-20 40,10 L35,0 L40,-10 Z" fill="#FFC300"/>

  <!-- Left Wing -->
  <path d="M-50,-35 Q-40,-20 -30,-30 L-35,-35 H-50 Z" fill="#FFC300"/>
  <path d="M-50,-35 Q-60,-15 -70,-30 L-50,-35 Z" fill="#FFC300"/>

  <!-- Right Wing -->
  <path d="M40,-35 Q30,-20 30,-30 L35,-35 H40 Z" fill="#FFC300"/>
  <path d="M40,-35 Q50,-15 60,-30 L40,-35 Z" fill="#FFC300"/>

  <!-- Head -->
  <circle cx="-20" cy="-40" r="5" fill="#FFFFFF"/>

  <!-- Antennae -->
  <path d="M-40,-45 L-20,-55 L0,-45 Z" stroke="#FFC300"/>
  <path d="M-60,-45 L-40,-55 L-80,-45 Z" stroke="#FFC300"/>

</svg>