<svg width="200" height="300" xmlns="http://www.w3.org/2000/svg">
  <!-- Body -->
  <ellipse cx="100" cy="150" rx="70" ry="100"
           fill="#FFC300" stroke="#D98806" stroke-width="4"/>
  <path d="M100 250 Q90 260, 100 270 T110 260 Q120 250, 110 240"
        fill="transparent" stroke="#D98806" stroke-width="4"/>

  <!-- Wings -->
  <path d="M80 70 Q140 30, 160 70 Q120 110, 80 70"
        fill="#FFC300" stroke="#D98806" stroke-width="4"/>
  <path d="M160 70 Q220 30, 240 70 Q200 110, 160 70"
        fill="#FFC300" stroke="#D98806" stroke-width="4"/>

  <!-- Antennae -->
  <path d="M100 50 L120 30 L80 30 Z"
        fill="#D98806"/>
  <path d="M100 40 Q120 20, 80 20"
        stroke="#D98806" stroke-width="4"/>

  <!-- Eyes -->
  <circle cx="90" cy="135" r="10" fill="#FFFFFF"/>
  <circle cx="110" cy="135" r="10" fill="#FFFFFF"/>
  <path d="M90 135 a10,10 0 1,0 20,0 a10,10 0 0,0 -20,0"
        stroke="#D98806" stroke-width="2"/>
</svg>