<svg xmlns="http://www.w3.org/2000/svg" viewBox="0 0 50 40">
  <!-- Body -->
  <path d="M15,30 Q17.5,35 20,30 Q22.5,35 25,30"
        fill="lightblue" stroke="darkblue"/>

  <!-- Wings -->
  <path d="M5,30 Q10,40 15,35 Q20,40 25,30 Q20,20 15,15 Q10,20 5,30"
        fill="lightblue" stroke="darkblue"/>

  <!-- Antennae -->
  <path d="M27.5,15 L30,12 L32.5,15 Z"/>
  <path d="M27.5,20 L30,23 L32.5,20 Z" fill-opacity="0"/>

  <!-- Facet Eyes -->
  <circle cx="17.5" cy="28" r="2.5" fill="black"/>
  <circle cx="22.5" cy="28" r="2.5" fill="black"/>

  <!-- Body Outline -->
  <path d="M5,30 Q10,40 15,35 Q25,40 25,30 Q20,20 15,15 Q5,20 5,30"
        stroke-width="2" fill="transparent"/>
</svg>