<svg width="200" height="300" viewBox="0 0 200 300" xmlns="http://www.w3.org/2000/svg">
  <!-- Base -->
  <rect x="50" y="170" width="100" height="60" fill="#EFDCD1" rx="15"/>

  <!-- Lower Layer -->
  <circle cx="100" cy="240" r="85" stroke="#9B7F6C" stroke-width="3" fill="#FAECCA"/>
  <polygon points="100,240 0,155 200,155" fill="#9B7F6C"/>

  <!-- Middle Layer -->
  <rect x="58" y="120" width="84" height="50" fill="#EFDCD1" rx="10"/>
  <path d="M68,130 Q90,100 120,130 T182,130 Q150,100 162,130 H200 V170 H100 Z" fill="#EFDCD1"/>
  <circle cx="100" cy="95" r="45" stroke="#9B7F6C" stroke-width="3" fill="#FAECCA"/>

  <!-- Upper Layer -->
  <rect x="68" y="50" width="64" height="70" fill="#EFDCD1" rx="10"/>
  <path d="M82,60 Q90,80 100,100 T120,100 Q110,80 108,60 H136 V70 H84 Z" fill="#EFDCD1"/>
  <circle cx="100" cy="35" r="35" stroke="#9B7F6C" stroke-width="3" fill="#FAECCA"/>

  <!-- Icing Drips -->
  <path d="M100,24 Q120,80 140,24 Q120,60 100,90 Q80,60 60,24" stroke="#fff" stroke-width="3" fill="transparent"/>
</svg>