<svg xmlns="http://www.w3.org/2000/svg" viewBox="-5 0 40 30">

  <!-- Cake Board -->
  <rect x="-5" y="15" width="40" height="7.5" fill="#FCD1C7" stroke="#692500" stroke-width="1"/>

  <!-- Bottom Tier -->
  <circle cx="18" cy="23.5" r="16.5" fill="#F3C4AC" stroke="#B98A3F" stroke-width="1"/>
  <path d="M18,20a7,7 0 1,0 14,0 a7,7 0 1,0 -14,0" fill="#FFF5E6"/>

  <!-- Top Tier -->
  <circle cx="18" cy="13.5" r="9.5" fill="#F3C4AC" stroke="#B98A3F" stroke-width="1"/>
  <path d="M18,10a5,5 0 1,0 10,0 a5,5 0 1,0 -10,0" fill="#FFF5E6"/>

  <!-- Decorative Lines -->
  <line x1="20" y1="7.5" x2="20" y2="30" stroke="#B98A3F" stroke-width="1"/>
  <line x1="28" y1="10" x2="28" y2="27" stroke="#B98A3F" stroke-width="1"/>

  <!-- Decorative Polygons -->
  <polygon points="5,6 15,6 10,15" fill="#FFEBCD"/>
  <polygon points="35,6 25,6 30,15" fill="#FFEBCD"/>

</svg>