<svg width="200" height="300" xmlns="http://www.w3.org/2000/svg">

  <!-- Cake tiers -->
  <rect x="50" y="50" width="100" height="70" fill="#FDD7E4" stroke="#CD853F" stroke-width="2"/>
  <rect x="60" y="120" width="90" height="50" fill="#FFB6C1" stroke="#CD853F" stroke-width="2"/>
  <rect x="70" y="190" width="80" height="30" fill="#FF69B4" stroke="#CD853F" stroke-width="2"/>

  <!-- Base decoration -->
  <circle cx="100" cy="270" r="60" fill="url(#grad1)"/>
  <path d="M50,270 Q90,240 140,270" stroke="#CD853F" stroke-width="2"/>

  <!-- Top decoration -->
  <circle cx="100" cy="10" r="60" fill="url(#grad2)" opacity="0.8"/>
  <path d="M50,10 Q90,30 140,10" stroke="#CD853F" stroke-width="2"/>

  <!-- Piped borders -->
  <path d="M60,70 Q80,60 100,70" stroke="#CD853F" stroke-width="2"/>
  <path d="M60,125 Q80,115 100,125" stroke="#CD853F" stroke-width="2"/>
  <path d="M60,195 Q80,185 100,195" stroke="#CD853F" stroke-width="2"/>

  <!-- Candles -->
  <rect x="75" y="145" width="5" height="20" fill="#FDD7E4"/>
  <rect x="95" y="165" width="5" height="15" fill="#FDD7E4"/>

  <!-- Gradients -->
  <defs>
    <radialGradient id="grad1" cx="50%" cy="50%" r="50%" fx="50%" fy="50%">
      <stop offset="0%" style="stop-color:#FFF;stop-opacity:1"/>
      <stop offset="100%" style="stop-color:#FFEBCD;stop-opacity:1"/>
    </radialGradient>
    <radialGradient id="grad2" cx="50%" cy="50%" r="50%" fx="50%" fy="50%">
      <stop offset="0%" style="stop-color:#FFF;stop-opacity:1"/>
      <stop offset="100%" style="stop-color:#FFC0CB;stop-opacity:1"/>
    </radialGradient>
  </defs>

</svg>