<svg width="800" height="600" xmlns="http://www.w3.org/2000/svg">

  <!-- Cake -->
  <path id="cake" d="M400,100 Q350,75 300,100 Q250,75 200,100 Q150,75 100,100 Q50,75 0,100 V500 Q0,450 50,400 Q100,350 150,300 Q200,250 250,200 Q300,150 350,100 Z" fill="#FFD700"/>
  <circle cx="400" cy="450" r="50" fill="#8B4513"/>

  <!-- Frosting Details -->
  <path id="frosting" d="M0,525 Q50,550 100,525 Q150,550 200,525 Q250,550 300,525 Q350,550 400,525 Z" fill="#FFFFFF"/>

  <!-- Candles -->
  <rect x="375" y="375" width="50" height="150" fill="#FFA500"/>
  <rect x="325" y="325" width="50" height="125" fill="#FFA500"/>
  <rect x="275" y="275" width="50" height="100" fill="#FFA500"/>

</svg>