<svg width="500" height="600" xmlns="http://www.w3.org/2000/svg" version="1.1">

  <!-- Tier 1 -->
  <circle cx="125" cy="175" r="100" fill="#f8eaea"/>
  <path d="M95,175 A75,75 0 0 1 155,175 A75,75 0 0 1 95,275 A75,75 0 0 1 155,275" stroke="#f4d6ae" stroke-width="3"/>
  <polygon points="95,175 155,175 230,212.5 155,250 95,250" fill="none" stroke="#f4d6ae" stroke-width="3"/>

  <!-- Tier 2 -->
  <circle cx="125" cy="325" r="80" fill="#fddfba"/>
  <path d="M95,325 A65,65 0 0 1 155,325 A65,65 0 0 1 95,410 A65,65 0 0 1 155,410" stroke="#f4d6ae" stroke-width="3"/>
  <polygon points="95,325 155,325 210,362.5 155,397.5 95,397.5" fill="none" stroke="#f4d6ae" stroke-width="3"/>

  <!-- Tier 3 -->
  <circle cx="125" cy="475" r="60" fill="#fce5cd"/>
  <path d="M95,475 A50,50 0 0 1 155,475 A50,50 0 0 1 95,525 A50,50 0 0 1 155,525" stroke="#f4d6ae" stroke-width="3"/>
  <polygon points="95,475 155,475 180,502.5 155,527.5 95,527.5" fill="none" stroke="#f4d6ae" stroke-width="3"/>

  <!-- Buttercream roses -->
  <circle cx="75" cy="225" r="20" fill="#fff"/>
  <path d="M75,205 A20,20 0 1 1 95,245 A20,20 0 0 1 75,285" stroke="#f3b67a" stroke-width="3"/>
  <circle cx="155" cy="275" r="20" fill="#fff"/>
  <path d="M155,255 A20,20 0 1 1 165,295 A20,20 0 0 1 155,335" stroke="#f3b67a" stroke-width="3"/>
  <circle cx="235" cy="425" r="20" fill="#fff"/>
  <path d="M235,405 A20,20 0 1 1 245,445 A20,20 0 0 1 235,485" stroke="#f3b67a" stroke-width="3"/>

</svg>