<svg width="400" height="450" viewBox="0 0 400 450" xmlns="http://www.w3.org/2000/svg">

<!-- Cake tiers -->
<circle cx="200" cy="175" r="150" fill="#f8e6cc" stroke="#ddd" stroke-width="2"/>
<circle cx="200" cy="300" r="120" fill="#f8e6cc" stroke="#ddd" stroke-width="2"/>
<circle cx="200" cy="425" r="90" fill="#f8e6cc" stroke="#ddd" stroke-width="2"/>

<!-- Cake board -->
<rect x="10" y="430" width="380" height="20" fill="#a27b53"/>

<!-- Icing ruffles -->
<path d="M 20,270 Q 60,290 100,270 Q 140,290 180,270 Q 220,290 260,270 Q 300,290 340,270 Z" fill="#fff"/>

<!-- Piped border -->
<path d="M 20,250 L 180,290 L 340,250 Z" stroke="#a27b53" stroke-width="3"/>

<!-- Decorative elements (fleur de lis) -->
<g transform="translate(180,260)">
  <polygon points="-15,-10 -15,10 0,0 15,-10 15,10" fill="#a27b53"/>
  <polygon points="-10,-5 -10,5 0,10 10,-5 10,5" fill="#fff"/>
</g>

</svg>