<svg width="300" height="250" xmlns="http://www.w3.org/2000/svg">
  <!-- Cake Base -->
  <rect x="70" y="180" width="160" height="70" fill="#cd7f32"/>
  <path d="M70,180 Q95,140 140,180 H170 Q125,140 170,180 V250 H70 Z" stroke="#694c23" fill="#f4a460"/>

  <!-- Cake Top -->
  <path d="M70,110 Q95,70 140,110 H170 Q125,70 170,110 V180 Z" stroke="#694c23" fill="#fff"/>
  <circle cx="140" cy="110" r="30" fill="#fdbd6b"/>

  <!-- Frosting -->
  <path d="M70,50 Q95,80 140,50 H170 Q125,80 170,50 V110 Z" stroke="#694c23" fill="#fff"/>
  <circle cx="140" cy="50" r="30" fill="#fdbd6b"/>

  <!-- Candles -->
  <rect x="100" y="20" width="10" height="80" rx="5" fill="#ffcc00"/>
  <rect x="140" y="20" width="10" height="60" rx="5" fill="#ffcc00"/>

  <!-- Cherry on Top -->
  <circle cx="140" cy="35" r="15" fill="#ea1d1d"/>
</svg>