<svg width="200" height="200" xmlns="http://www.w3.org/2000/svg">
  <!-- Cake Base -->
  <rect x="50" y="120" width="100" height="80" fill="#F6E5C7"/>
  <path d="M50,120 Q90,80 140,120 H190 V200 H50 Z" stroke="#B38B3A" fill="#FAD36D"/>

  <!-- Cake Top -->
  <rect x="75" y="50" width="50" height="70" fill="#FFC947"/>
  <polygon points="125,50 200,50 162.5,120" stroke="#B38B3A" fill="#FAD36D"/>

  <!-- Frosting -->
  <path d="M60,60 Q90,40 140,60 T190,60 Z" stroke="#FFFFFF" fill="#E2C973"/>
  <path d="M50,80 A30,30 0 0 0 100,110 A30,30 0 0 0 50,140 Z" stroke="#FFFFFF" fill="#E2C973"/>

  <!-- Candles -->
  <circle cx="80" cy="65" r="10" fill="#FDBF2B"/>
  <circle cx="120" cy="65" r="8" fill="#FDBF2B"/>
  <circle cx="160" cy="65" r="7" fill="#FDBF2B"/>

  <!-- Cake Stand -->
  <rect x="40" y="200" width="120" height="20" fill="#9E7C38"/>
</svg>