<svg xmlns="http://www.w3.org/2000/svg" viewBox="0 0 300 400">

<!-- Castle Outline -->
<polygon points="50,60 175,180 225,180 270,60 270,20 175,40 50,20" fill="#FFC107" stroke="#A9A9A9"/>

<!-- Towers -->
<rect x="100" y="60" width="70" height="120" rx="35" fill="#8B4513"/>
<rect x="250" y="60" width="70" height="120" rx="35" fill="#8B4513"/>

<!-- Gatehouse -->
<rect x="175" y="120" width="50" height="60" fill="#FFC107"/>
<path d="M175,180 Q200,210 225,180" stroke="#A9A9A9"/>

<!-- Roofs -->
<polygon points="50,40 270,40 160,320" fill="#8B4513"/>
<polygon points="100,240 140,300 100,360" fill="#8B4513"/>
<polygon points="220,240 260,300 220,360" fill="#8B4513"/>

<!-- Windows & Doors -->
<rect x="120" y="80" width="20" height="40" fill="#000"/>
<rect x="170" y="90" width="20" height="40" fill="#000"/>
<rect x="235" y="80" width="20" height="40" fill="#000"/>
<rect x="100" y="260" width="30" height="60" fill="#000"/>

</svg>