<svg viewBox="0 0 500 400" xmlns="http://www.w3.org/2000/svg">

  <!-- Base rectangle -->
  <rect x="0" y="0" width="500" height="400" fill="#D6EAF5"/>

  <!-- Tall towers -->
  <polygon points="100,100 300,100 200,300" fill="#FFB973"/>
  <polygon points="400,100 500,100 450,300" fill="#FFB973"/>

  <!-- Short tower -->
  <rect x="250" y="250" width="200" height="100" fill="#FFB973"/>
  <polygon points="350,350 450,350 400,450" fill="#A0522D"/>

  <!-- Gatehouse -->
  <rect x="200" y="300" width="250" height="180" fill="#FFB973"/>
  <polygon points="325,480 425,480 375,575" fill="#A0522D"/>

  <!-- Windows and doors -->
  <rect x="130" y="160" width="40" height="80" fill="#FFFFFF"/>
  <rect x="410" y="160" width="40" height="80" fill="#FFFFFF"/>
  <rect x="275" y="350" width="100" height="50" fill="#FFFFFF"/>

  <!-- Walls connecting towers -->
  <path d="M100,300 L200,400 L250,400 Z" fill="#FFB973"/>
  <path d="M400,300 L500,400 L450,400 Z" fill="#FFB973"/>

</svg>