<svg xmlns="http://www.w3.org/2000/svg" viewBox="0 0 100 80">
  <!-- Castle Outline -->
  <path id="castle-outline" d="M5 5 h90 v70 q90 5 75 40 t-15 60 t-60 20 t-15 -40 Z"/>

  <!-- Mask -->
  <mask id="castle-mask" maskContentUnits="objectBoundingBox">
    <path d="M5 5 h90 v70 q90 5 75 40 t-15 60 t-60 20 t-15 -40 Z"/>
  </mask>

  <!-- Castle Walls -->
  <rect x="5" y="5" width="90" height="80" fill="lightgrey" mask="url(#castle-mask)"/>

  <!-- Windows & Doors (Initially hidden) -->
  <circle cx="20" cy="30" r="5"/>
  <circle cx="70" cy="30" r="5"/>
  <rect x="40" y="60" width="10" height="10"/>

  <!-- Towers (Initially hidden) -->
  <rect x="10" y="20" width="8" height="50"/>
  <rect x="82" y="20" width="8" height="50"/>

  <!-- Drawbridge & Moat (Initially visible) -->
  <rect x="35" y="70" width="20" height="10"/>
  <path d="M10 70 a40 40 0 0 0 90 0 a40 40 0 0 0 -90 0"/>

  <!-- Animation: Reveal windows, doors, towers over time -->
  <animate attributeName="width" values="0;50" from="100%" to="0%" dur="6s" repeatCount="indefinite">
    <set attributeName="startTime" to="0"/>
  </animate>
</svg>