<svg width="500" height="300" xmlns="http://www.w3.org/2000/svg">

  <!-- Base -->
  <rect x="100" y="200" width="300" height="100" fill="#8B7D6B"/>

  <!-- Towers -->
  <rect x="50" y="50" width="150" height="300" fill="#8B7D6B"/>
  <rect x="400" y="50" width="150" height="300" fill="#8B7D6B"/>

  <!-- Main Body -->
  <polygon points="250,50 350,50 350,200 250,200" fill="#8B7D6B"/>

  <!-- Walls -->
  <rect x="100" y="50" width="20" height="150" fill="#8B7D6B"/>
  <rect x="400" y="50" width="20" height="150" fill="#8B7D6B"/>

  <!-- Windows -->
  <rect x="120" y="80" width="30" height="30" fill="white"/>
  <rect x="420" y="80" width="30" height="30" fill="white"/>
  <rect x="120" y="150" width="30" height="30" fill="white"/>
  <rect x="420" y="150" width="30" height="30" fill="white"/>

  <!-- Door -->
  <rect x="200" y="200" width="100" height="50" fill="#8B7D6B"/>

  <!-- Roofs -->
  <polygon points="50,50 450,50 350,100" fill="#C09E86"/>
  <line x1="250" y1="100" x2="250" y2="50"/>

  <!-- Details -->
  <circle cx="75" cy="75" r="5" fill="#FFFFFF"/>
  <circle cx="375" cy="75" r="5" fill="#FFFFFF"/>
  <rect x="205" y="180" width="50" height="10" fill="#C09E86"/>

</svg>