<svg width="500" height="400" viewBox="0 0 500 400" xmlns="http://www.w3.org/2000/svg">

  <!-- Walls -->
  <polygon points="10,10 490,10 490,390 10,390"
           fill="#8B7D6B" stroke="black"/>

  <!-- Towers -->
  <polygon points="50,50 250,50 150,150"
           fill="#8B7D6B" stroke="black"/>
  <polygon points="300,50 450,50 350,150"
           fill="#8B7D6B" stroke="black"/>

  <!-- Gates -->
  <rect x="120" y="290" width="260" height="100" fill="white"/>
  <polygon points="140,320 260,320 200,380"
           fill="#8B7D6B" stroke="black"/>

  <!-- Roof -->
  <polygon points="50,200 250,200 150,300"
           fill="#B9846F" stroke="black"/>
  <polygon points="300,200 450,200 350,300"
           fill="#B9846F" stroke="black"/>

  <!-- Shadows -->
  <rect x="10" y="390" width="500" height="10" fill="#776E65"/>
  <polygon points="50,200 250,200 100,250"
           fill="#4F463C"/>
  <polygon points="300,200 450,200 300,250"
           fill="#4F463C"/>

</svg>