<svg width="500" height="500" viewBox="0 0 100 100" xmlns="http://www.w3.org/2000/svg">

<!-- Castle walls -->
<path d="M10,80 Q30,90 60,70 Q90,90 100,80 Q90,70 60,60 Q30,70 10,80" fill="none" stroke="black"/>

<!-- Tower -->
<path d="M40,20 Q50,10 60,20 Q50,30 40,40 H45 L45,70 H55 L55,70 Z" fill="none" stroke="black"/>

<!-- Roof -->
<path d="M10,80 Q30,90 60,80 Q90,90 100,80 V100 H0 V80 Z" fill="brown"/>

<!-- Windows -->
<polygon points="25,70 45,70 35,60" fill="black"/>
<polygon points="75,70 95,70 85,60" fill="black"/>

<!-- Door -->
<path d="M10,60 H40 V50 H10 Z" fill="brown"/>

<!-- Flag -->
<polygon points="90,80 100,90 95,85" fill="red"/>

</svg>