<svg xmlns="http://www.w3.org/2000/svg" viewBox="0 0 500 600">

<!-- Castle Walls -->
<rect x="80" y="100" width="340" height="500" fill="#775F46"/>
<path d="M90,250 Q130,150 170,250 Q210,150 250,250 Q290,150 330,250" fill="#A68C70"/>

<!-- Castle Towers -->
<circle cx="140" cy="200" r="60" fill="#B7A595"/>
<circle cx="360" cy="200" r="60" fill="#B7A595"/>

<!-- Roofs -->
<path d="M80,150 Q140,50 250,150 Q360,50 420,150" stroke="black" fill="#E8C5AB"/>
<path d="M90,270 Q130,220 170,270 Q210,220 250,270" stroke="black" fill="#E8C5AB"/>

<!-- Windows -->
<rect x="160" y="220" width="40" height="80" fill="#F5E6D3"/>
<rect x="290" y="220" width="40" height="80" fill="#F5E6D3"/>

<!-- Door -->
<rect x="180" y="300" width="80" height="150" fill="#775F46"/>
<path d="M200,450 Q240,490 280,450" stroke="black"/>

<!-- Flag -->
<rect x="390" y="250" width="10" height="300" fill="#FF7F27"/>
<path d="M400,250 Q410,300 400,350" stroke="black"/>

</svg>