<svg xmlns="http://www.w3.org/2000/svg" viewBox="-50 0 600 800">
  <rect x="50" y="20" width="300" height="600" rx="50"/>
  <path d="M180,70 Q240,70 240,180 Q180,390 120,180"/>
  <path d="M60,180 Q120,70 180,70 Q240,180 Z"/>
  <path d="M360,180 Q240,390 180,180 Q60,180 Z"/>
  <rect x="120" y="480" width="240" height="150"/>
  <path d="M170,630 Q220,690 270,630 Q320,690 370,630"/>
  <path d="M50,200 Q100,300 180,300 Q250,200 300,20 Z"/>
  <path d="M360,430 Q300,530 250,530 Q180,430 120,430"/>

  <defs>
    <linearGradient id="moat" x1="0%" y1="0%" x2="0%" y2="100%">
      <stop offset="0%" style="stop-color:lightblue;stop-opacity:1"/>
      <stop offset="100%" style="stop-color:white;stop-opacity:1"/>
    </linearGradient>
    <mask id="moatMask">
      <rect x="50" y="700" width="400" height="200" fill="black"/>
      <rect x="50" y="700" width="400" height="200" fill="white" opacity=".1"/>
    </mask>
  </defs>

  <rect x="-50" y="700" width="600" height="200" fill="url(#moat)" mask="url(#moatMask)"/>
</svg>