<svg width="100%" height="100%" viewBox="0 0 800 600" xmlns="http://www.w3.org/2000/svg">

  <!-- Castle -->
  <polygon id="castle" points="250,50 400,50 400,150 300,200 200,150 200,50"
    style="fill:lightgrey;stroke:black;stroke-width:2"/>

  <!-- Towers -->
  <polygon id="tower1" points="150,50 100,50 100,300 75,250 100,200"
    style="fill:lightgrey;stroke:black;stroke-width:2"/>
  <polygon id="tower2" points="650,50 700,50 700,300 650,250 700,200"
    style="fill:lightgrey;stroke:black;stroke-width:2"/>

  <!-- Gatehouse -->
  <rect id="gatehouse" x="175" y="40" width="50" height="150"
    style="fill:lightgrey;stroke:black;stroke-width:2"/>

  <!-- Keep -->
  <polygon id="keep" points="350,300 450,300 450,450 350,450"
    style="fill:lightgrey;stroke:black;stroke-width:2"/>

  <!-- Roofs -->
  <polygon id="roof1" points="250,150 400,150 375,200"
    style="fill:darkgrey;stroke:none"/>
  <polygon id="roof2" points="150,300 100,300 75,350"
    style="fill:darkgrey;stroke:none"/>
  <polygon id="roof3" points="650,300 700,300 625,350"
    style="fill:darkgrey;stroke:none"/>

  <!-- Roads -->
  <line id="road1" x1="200" y1="50" x2="400" y2="50"
    style="stroke:black;stroke-width:8"/>
  <line id="road2" x1="375" y1="150" x2="400" y2="150"
    style="stroke:black;stroke-width:8"/>
  <line id="road3" x1="650" y1="50" x2="700" y2="50"
    style="stroke:black;stroke-width:8"/>

</svg>