<svg width="550" height="500" xmlns="http://www.w3.org/2000/svg">

<!-- Background -->
<rect x="0" y="0" width="550" height="500" fill="#ADD8E6"/>

<!-- Outer Wall -->
<rect x="50" y="100" width="400" height="300" rx="20" ry="20" fill="#4A4A4A"/>

<!-- Inner Wall -->
<rect x="150" y="175" width="200" height="250" rx="10" ry="10" fill="#CACACA"/>

<!-- Left Tower -->
<polygon points="75,150 155,150 155,310 95,360 35,310" style="fill:#4A4A4A;stroke:black;stroke-width:2"/>

<!-- Right Tower -->
<polygon points="475,150 385,150 385,310 425,360 495,310" style="fill:#4A4A4A;stroke:black;stroke-width:2"/>

<!-- Roof -->
<polygon points="100,400 500,400 275,300" fill="#FF7F50"/>

<!-- Windows -->
<rect x="130" y="200" width="20" height="30" fill="#CACACA"/>
<rect x="180" y="230" width="20" height="30" fill="#CACACA"/>
<rect x="230" y="260" width="20" height="30" fill="#CACACA"/>
<rect x="280" y="290" width="20" height="30" fill="#CACACA"/>

<!-- Door -->
<rect x="200" y="350" width="100" height="80" rx="20" ry="20" fill="#4F3A2D"/>

</svg>