<svg width="500" height="300" viewBox="0 0 500 300" xmlns="http://www.w3.org/2000/svg">

  <!-- Castle -->
  <rect x="150" y="50" width="200" height="200" fill="#776e79"/>
  <rect x="100" y="75" width="40" height="150" fill="#776e79"/>
  <rect x="360" y="75" width="40" height="150" fill="#776e79"/>
  <polygon points="200,50 250,50 200,100" fill="#776e79"/>
  <polygon points="300,50 350,50 300,100" fill="#776e79"/>

  <!-- Forest -->
  <polygon points="0,250 50,250 50,300 100,300 0,250" fill="#006400"/>
  <polygon points="150,275 250,275 250,325 150,325 150,275" fill="#006400"/>
  <polygon points="300,275 400,275 400,325 300,325 300,275" fill="#006400"/>

  <!-- Lake -->
  <rect x="100" y="150" width="300" height="150" rx="50" ry="50" fill="#add8e6"/>

  <!-- Roads/Rivers -->
  <line x1="200" y1="300" x2="250" y2="300" stroke="#000"/>
  <polyline points="50,325 100,325 150,300" stroke="#000"/>

</svg>