<svg xmlns="http://www.w3.org/2000/svg" viewBox="0 0 800 600" preserveAspectRatio="xMidYMid meet">

  <!-- Define patterns -->
  <defs>
    <pattern id="castleWallPattern" patternUnits="userSpaceOnUse" width="100" height="200">
      <image href="#castleWall" x="0" y="0" width="100" height="200"/>
    </pattern>

    <pattern id="pathPattern" patternUnits="userSpaceOnUse" width="40" height="40">
      <rect width="40" height="40" fill="#8B7D6B"/>
      <image href="#pathMarkers" x="10" y="20" width="20" height="20"/>
    </pattern>
  </defs>

  <!-- Castle walls -->
  <rect id="castleWall" x="0" y="0" width="100" height="200" fill="#8B7D6B"/>

  <!-- Path markers (for visual interest) -->
  <circle id="pathMarkers" cx="50%" cy="50%" r="30" fill="#3D2B1F"/>

  <!-- Castles -->
  <g transform="translate(100, 100)">
    <polygon points="0,0 200,0 100,200" fill="#775544"/>
    <rect width="300" height="200" fill="url(#castleWallPattern)"/>
  </g>

  <g transform="translate(300, 200)">
    <polygon points="0,0 200,0 100,200" fill="#775544"/>
    <rect width="300" height="200" fill="url(#castleWallPattern)"/>
  </g>

  <g transform="translate(600, 100)">
    <polygon points="0,0 200,0 100,200" fill="#775544"/>
    <rect width="300" height="200" fill="url(#castleWallPattern)"/>
  </g>

  <!-- Paths -->
  <path d="M200,100 Q350,50 500,100 T600,150" stroke="#3D2B1F" stroke-width="10" fill="none"/>

  <path d="M200,250 Q400,300 600,250 T700,200" stroke="#3D2B1F" stroke-width="10" fill="none" stroke-dasharray="40 20"/>

</svg>