<svg width="800" height="600" xmlns="http://www.w3.org/2000/svg">

  <!-- Background -->
  <rect width="100%" height="100%" fill="#E5E5E5"/>

  <!-- Water -->
  <path d="M0,400 Q200,350 400,400 Q600,450 800,400 H0 Z" stroke="#3A6EA5" fill="#9DB7CA"/>

  <!-- Land -->
  <path d="M0,400 Q200,350 400,400 Q600,450 800,400 V600 H0 Z" stroke="none" fill="#C0C0C0"/>

  <!-- Castle -->
  <polygon points="450,200 550,200 600,350 400,350" style="fill: #704214; stroke: black; stroke-width: 2"/>

  <!-- Towers -->
  <polygon points="380,200 450,250 380,300" style="fill: #704214; stroke: black; stroke-width: 2"/>
  <polygon points="620,200 550,250 620,300" style="fill: #704214; stroke: black; stroke-width: 2"/>

  <!-- Bridge -->
  <path d="M400,400 Q450,450 500,400" stroke="#696969" fill="none" stroke-width="8"/>

  <!-- Forest (Dark Green) -->
  <polygon points="100,350 200,350 100,450" style="fill: #006400; stroke: none"/>
  <polygon points="700,350 800,350 700,450" style="fill: #006400; stroke: none"/>

</svg>