<svg width="500" height="500" xmlns="http://www.w3.org/2000/svg">

  <!-- Castle Walls and Towers -->
  <polygon points="250,50 175,150 175,450 325,450 325,150" fill="#A9A9A9"/>

  <!-- Left Tower -->
  <polygon points="175,150 100,250 175,350" fill="#A9A9A9"/>
  <path d="M175,250 L100,300 L250,300 Z" stroke="#C19A6B" fill="transparent"/>

  <!-- Right Tower -->
  <polygon points="325,150 400,250 325,350" fill="#A9A9A9"/>
  <path d="M325,250 L400,300 L250,300 Z" stroke="#C19A6B" fill="transparent"/>

  <!-- Gate -->
  <polygon points="250,150 250,250 375,250 375,150" fill="#A9A9A9"/>
  <path d="M250,200 Q300,150 350,200 Q300,250 250,200 Z" stroke="#C19A6B" fill="transparent"/>

  <!-- Windows -->
  <rect x="175" y="200" width="25" height="50" fill="#424242"/>
  <rect x="300" y="200" width="25" height="50" fill="#424242"/>

  <!-- Door -->
  <polygon points="275,150 275,200 325,200 325,150" stroke="#8B4513" fill="#C19A6B"/>

</svg>