<svg width="500" height="300" xmlns="http://www.w3.org/2000/svg" style="fill:blue; stroke:black; stroke-width:1">

  <!-- Left Tower -->
  <polygon points="40,10 70,10 70,80 50,100 40,80"/>

  <!-- Right Tower -->
  <polygon points="230,10 260,10 260,80 240,100 230,80"/>

  <!-- Wall -->
  <polygon points="70,80 150,80 150,130 70,130"/>

  <!-- Roof Lines -->
  <path d="M40,80 Q90,60 70,80 H260 Q210,60 230,80 V300 H40 Z"/>

  <!-- Turrets -->
  <polygon points="50,100 60,90 50,80"/>
  <polygon points="240,100 230,90 240,80"/>

  <!-- Gatehouse -->
  <rect x="150" y="80" width="70" height="60" rx="10"/>
  <path d="M160,140 Q170,130 180,140 H220 Q210,130 200,140 Z"/>

</svg>