<svg width="500" height="300" xmlns="http://www.w3.org/2000/svg">
     <!-- Base layer -->
     <rect width="500" height="300" fill="#8B4513" />
     <!-- Castle walls -->
     <polygon points="50,50 150,50 150,200 50,200" fill="#C36408" />
     <polygon points="150,50 250,50 250,200 150,200" fill="#C36408" />
     <polygon points="250,50 350,50 350,200 250,200" fill="#C36408" />
     <!-- Towers -->
     <circle cx="75" cy="100" r="50" fill="#C36408" />
     <path d="M75 250 A50 50 0 0 1 125 250 L75 200" fill="#C36408" />
     <circle cx="325" cy="100" r="50" fill="#C36408" />
     <path d="M325 250 A50 50 0 0 1 375 250 L325 200" fill="#C36408" />
     <!-- Details -->
     <rect x="100" y="100" width="50" height="75" fill="white" />
     <rect x="200" y="100" width="50" height="75" fill="white" />
     <rect x="300" y="100" width="50" height="75" fill="white" />
     <rect x="200" y="200" width="100" height="100" fill="#C36408" />
     <!-- Moat -->
     <rect x="5" y="275" width="490" height="25" fill="#8B4513" />
     <!-- Drawbridge -->
     <path d="M150 275 Q200 250, 250 275" stroke="#C36408" stroke-width="20" fill="transparent" />
   </svg>