<svg width="500" height="500" viewBox="0 0 500 500" xmlns="http://www.w3.org/2000/svg">

<!-- Walls -->
<rect x="100" y="200" width="300" height="300" fill="#694f4f"/>
<path d="M100 200 H400 V500 H100 Z" stroke="#694f4f"/>

<!-- Towers -->
<!-- Left tower -->
<rect x="80" y="130" width="40" height="70" fill="#694f4f"/>
<path d="M80 200 Q115 150, 150 200 Q80 250 Z" stroke="#694f4f" fill="none"/>

<!-- Right tower -->
<rect x="370" y="130" width="40" height="70" fill="#694f4f"/>
<path d="M420 200 Q385 150, 350 200 Q420 250 Z" stroke="#694f4f" fill="none"/>

<!-- Roof -->
<polyline points="100,50 200,70 300,50 400,70 500,50" stroke="#694f4f" fill="#b38888"/>
<path d="M100 50 Q150 100, 200 50 M200 70 Q250 120, 300 70 M300 50 Q350 100, 400 50 M400 70 Q450 120, 500 70" stroke="#694f4f" fill="none"/>

<!-- Windows -->
<circle cx="180" cy="300" r="20" fill="#fff"/>
<circle cx="270" cy="300" r="20" fill="#fff"/>
<circle cx="360" cy="300" r="20" fill="#fff"/>

<!-- Door -->
<rect x="190" y="450" width="120" height="70" fill="#694f4f"/>
<path d="M190 450 H310 V520 H190 Z" stroke="#694f4f"/>

<!-- Light interaction (window highlights) -->
<circle cx="180" cy="300" r="15" fill="#fff"/>
<circle cx="270" cy="300" r="15" fill="#fff"/>
<circle cx="360" cy="300" r="15" fill="#fff"/>

</svg>