<svg width="600" height="400" xmlns="http://www.w3.org/2000/svg">

  <!-- Background -->
  <rect x="0" y="0" width="600" height="400" fill="#ADD8E6"/>
  <rect x="0" y="250" width="600" height="150" fill="#8DC63C"/>

  <!-- Main Tower -->
  <rect x="50" y="100" width="150" height="200" rx="30" ry="30" fill="#4A4A4A"/>
  <polygon points="50,100 200,100 125,75" fill="#4A4A4A"/>

  <!-- Windows -->
  <rect x="60" y="120" width="80" height="30" rx="5" ry="5" fill="#FFF"/>
  <rect x="60" y="170" width="80" height="30" rx="5" ry="5" fill="#FFF"/>
  <rect x="60" y="220" width="80" height="30" rx="5" ry="5" fill="#FFF"/>
  <rect x="60" y="270" width="80" height="30" rx="5" ry="5" fill="#FFF"/>
  <rect x="60" y="320" width="80" height="30" rx="5" ry="5" fill="#FFF"/>
  <rect x="75" y="115" width="15" height="90" fill="#000"/>
  <rect x="145" y="115" width="15" height="90" fill="#000"/>

  <!-- Gatehouse -->
  <rect x="100" y="250" width="150" height="100" rx="30" ry="30" fill="#4A4A4A"/>
  <line x1="175" y1="285" x2="225" y2="325" stroke="#000" stroke-width="5"/>

</svg>