<svg width="500" height="300" viewBox="0 0 500 300" xmlns="http://www.w3.org/2000/svg">

  <!-- Definitions -->
  <defs>
    <!-- Castle pattern -->
    <pattern id="castlePattern" patternUnits="userSpaceOnUse" width="150" height="150">
      <rect x="0" y="0" width="150" height="150" fill="none"/>
      <circle cx="75" cy="75" r="70" stroke="black" fill="lightgrey"/>
      <polygon points="25,30 75,30 125,30 100,120 75,160 50,120" fill="lightblue" stroke="black"/>
    </pattern>

    <!-- Flower pattern -->
    <pattern id="flowerPattern" patternUnits="userSpaceOnUse" width="30" height="30">
      <circle cx="15" cy="15" r="15" fill="yellow" />
      <circle cx="15" cy="15" r="5" fill="red"/>
    </pattern>
  </defs>

  <!-- Castles -->
  <rect x="50" y="50" width="150" height="150" fill="url(#castlePattern)" />
  <rect x="250" y="100" width="150" height="150" fill="url(#castlePattern)" />
  <rect x="400" y="150" width="150" height="150" fill="url(#castlePattern)" />

  <!-- Paths -->
  <path d="M75,225 Q150,200 225,225" stroke="black" fill="none"/>
  <path d="M325,275 Q400,250 475,275" stroke="black" fill="none"/>

  <!-- Flowers (using pattern) -->
  <rect x="100" y="280" width="30" height="30" fill="url(#flowerPattern)" />
  <rect x="280" y="240" width="30" height="30" fill="url(#flowerPattern)" />
  <rect x="460" y="210" width="30" height="30" fill="url(#flowerPattern)" />

</svg>