<svg viewBox="-1% -3% 92% 97%">
  <!-- Base Layer -->
  <rect width="80%" height="20%" rx="5%" fill="#A57847"/>
  <rect x="35%" y="4%" width="30%" height="12%" rx="2%" fill="#EDE6C2"/>

  <!-- Castle Walls -->
  <polygon points="37%,8% 75%,8% 65%,18% 45%,18%" fill="#704214"/>
  <polygon points="37%,30% 75%,30% 65%,42% 45%,42%" fill="#704214"/>
  <polygon points="37%,8% 75%,8% 75%,30% 37%,30%" fill="#704214"/>

  <!-- Castle Towers -->
  <circle cx="45%" cy="12%" r="6%" fill="#C48B5A"/>
  <path d="M39%,12 A6,6 0 0 0 49%,12" fill="#F4D03F"/>
  <circle cx="65%" cy="12%" r="6%" fill="#C48B5A"/>
  <path d="M61%,12 A6,6 0 0 0 71%,12" fill="#F4D03F"/>

  <!-- Windows and Doors -->
  <rect x="40%" y="15%" width="8%" height="6%" fill="#FFFFFF"/>
  <path d="M42%,17 Q40%,19 42%,21" stroke="#704214"/>
  <rect x="58%" y="34%" width="12%" height="6%" fill="#704214"/>
  <rect x="60%" y="36%" width="8%" height="2%" fill="#FFFFFF"/>
  <rect x="62%" y="38%" width="4%" height="2%" fill="#704214"/>

  <!-- Finishing Touches -->
  <path d="M54%,42 Q56%,40 60%,42" stroke="#704214"/>
  <circle cx="53%" cy="18%" r="2%" fill="#C48B5A"/>
  <circle cx="57%" cy="18%" r="2%" fill="#C48B5A"/>
  <rect x="63%" y="10%" width="4%" height="2%" fill="#FFFFFF"/>
  <path d="M64%,12 L65%,8 64%,6" fill="#FF0000"/>
</svg>