<svg width="200" height="300" xmlns="http://www.w3.org/2000/svg">

  <!-- Castle Outline -->
  <rect x="50" y="270" width="100" height="30" fill="#D3D3D3" />
  <rect x="40" y="50" width="160" height="220" fill="#D3D3D3" rx="20" ry="20" />

  <!-- Main Tower -->
  <rect x="50" y="50" width="150" height="150" fill="#D3D3D3" />
  <circle cx="75" cy="90" r="10" fill="#000000" />
  <circle cx="125" cy="90" r="10" fill="#000000" />
  <circle cx="75" cy="130" r="10" fill="#000000" />
  <circle cx="125" cy="130" r="10" fill="#000000" />

  <!-- Upper Tower -->
  <rect x="80" y="210" width="70" height="70" fill="#D3D3D3" />
  <circle cx="105" cy="240" r="10" fill="#000000" />

  <!-- Walls -->
  <rect x="50" y="200" width="150" height="30" fill="#D3D3D3" />
  <rect x="70" y="30" width="90" height="160" fill="#D3D3D3" />

  <!-- Roofs -->
  <polygon points="50,20,200,20,125,40" fill="#8B4513" rx="15" ry="15" />
  <polygon points="75,160,125,160,95,190" fill="#8B4513" rx="10" ry="10" />

  <!-- Door -->
  <rect x="70" y="280" width="70" height="120" fill="#8B4513" rx="20" ry="20" />

</svg>