<svg width="800" height="600" viewBox="0 0 800 600" xmlns="http://www.w3.org/2000/svg">

<!-- Background -->
<rect x="0" y="0" width="800" height="600" fill="#1f1d2b" />

<!-- Castle Wall (Large shape) -->
<path id="castleWall" d="M10 40 Q50 90, 170 130 Q340 190, 500 240 Q660 280, 800 330 V600 H0 Z" fill="url(#castleWallGradient)" />
<defs>
    <linearGradient id="castleWallGradient" gradientUnits="userSpaceOnUse" x1="0%" y1="0%" x2="100%" y2="100%">
        <stop offset="0%" style="stop-color:#69543d; stop-opacity:1" />
        <stop offset="100%" style="stop-color:#372a1a; stop-opacity:1" />
    </linearGradient>
</defs>

<!-- Stage Floor (Large shape) -->
<rect id="stageFloor" x="180" y="450" width="440" height="150" fill="url(#stageFloorGradient)" />
<defs>
    <linearGradient id="stageFloorGradient" gradientUnits="userSpaceOnUse" x1="0%" y1="0%" x2="100%" y2="100%">
        <stop offset="0%" style="stop-color:#3a354b; stop-opacity:1" />
        <stop offset="100%" style="stop-color:#1c1928; stop-opacity:1" />
    </linearGradient>
</defs>

<!-- Curtains (Prop) -->
<rect x="170" y="450" width="10" height="150" fill="#6b3e2d" />
<rect x="690" y="450" width="10" height="150" fill="#6b3e2d" />

<!-- Throne (Prop) -->
<path d="M280 570 Q350 530, 420 570 Q490 610, 560 570 Q630 530, 700 570" fill="#c5a37b" />
<path d="M280 570 Q350 530, 420 570 Q490 610, 560 570 Q630 530, 700 570" stroke="#fff" stroke-width="5" fill="none" />

<!-- Spotlight (Dynamic lighting effect) -->
<circle cx="400" cy="280" r="150" fill="url(#spotlightGradient)" />
<defs>
    <radialGradient id="spotlightGradient" gradientUnits="userSpaceOnUse" cx="400" cy="280" r="150">
        <stop offset="0%" style="stop-color:#fff; stop-opacity:1" />
        <stop offset="60%" style="stop-color:#fff; stop-opacity:0.7" />
        <stop offset="100%" style="stop-color:#000; stop-opacity:0" />
    </radialGradient>
</defs>

</svg>