<svg width="500" height="300" viewBox="0 0 500 300" xmlns="http://www.w3.org/2000/svg">
  <defs>
    <!-- Castle pattern -->
    <pattern id="castlePattern" x="0" y="0" width="100" height="100"
             patternUnits="userSpaceOnUse">
      <rect width="100%" height="50%" fill="#6495ED"/>
      <polygon points="50,25 75,50 50,75"/>
    </pattern>

    <!-- Flower pattern -->
    <pattern id="flowerPattern" x="0" y="0" width="10" height="10"
             patternUnits="userSpaceOnUse">
      <circle cx="5" cy="5" r="5" fill="#FF69B4"/>
    </pattern>
  </defs>

  <!-- Castles -->
  <rect x="50" y="50" width="100%" height="50%" fill="url(#castlePattern)"/>
  <rect x="250" y="50" width="100%" height="50%" fill="url(#castlePattern)"/>
  <rect x="450" y="50" width="100%" height="50%" fill="url(#castlePattern)"/>

  <!-- Paths -->
  <path d="M50,100 C75,75 225,75 250,100" stroke="#32CD32" fill="transparent"/>
  <path d="M250,100 C275,75 425,75 450,100" stroke="#32CD32" fill="transparent"/>

  <!-- Flowers -->
  <rect x="60" y="80" width="50%" height="50%" fill="url(#flowerPattern)"/>
  <rect x="260" y="80" width="50%" height="50%" fill="url(#flowerPattern)"/>
  <rect x="460" y="80" width="50%" height="50%" fill="url(#flowerPattern)"/>

</svg>