<svg xmlns="http://www.w3.org/2000/svg" viewBox="0 0 100 150">

  <!-- Background -->
  <rect x="0" y="0" width="100%" height="100%" fill="#F5DEB3"/>

  <!-- Dinosaur's body -->
  <path d="M40,75 Q60,80 80,75 Q90,70 100,75 Q90,80 80,75" stroke="#2C3E50" fill="#2C3E50"/>
  <circle cx="45" cy="65" r="15" stroke="#2C3E50" fill="#FF6347"/>

  <!-- Outfit: Shirt -->
  <rect x="30" y="40" width="40" height="60" fill="url(#stripes)"/>
  <path d="M70,100 Q80,95 90,100" stroke="#2C3E50"/>

  <!-- Outfit: Pants -->
  <rect x="40" y="100" width="20" height="50" fill="url(#stripes)"/>
  <path d="M60,100 Q70,95 80,100" stroke="#2C3E50"/>

  <!-- Accessory: Bow tie -->
  <path d="M45,120 Q55,125 65,120 Q55,115 45,120" fill="#58D68D" stroke="#FF6347"/>
  <circle cx="55" cy="122.5" r="5" fill="#FF6347"/>

  <!-- Accessory: Hat -->
  <path d="M50,130 Q60,135 70,130 Q60,125 50,130" stroke="#2C3E50" fill="#FF6347"/>
  <rect x="55" y="128" width="10" height="12" fill="#2C3E50"/>

  <!-- Patterns -->
  <defs>
    <pattern id="stripes" patternUnits="userSpaceOnUse" width="20" height="6">
      <rect x="0" y="0" width="10" height="6" fill="#2C3E50"/>
      <rect x="10" y="0" width="10" height="6" fill="#F5DEB3"/>
    </pattern>
  </defs>

</svg>