<svg xmlns="http://www.w3.org/2000/svg" viewBox="0 0 500 400">
  <!-- Body -->
  <ellipse cx="250" cy="200" rx="180" ry="120" fill="#228B22"/>

  <!-- Head -->
  <ellipse cx="170" cy="130" rx="60" ry="40" fill="#228B22"/>

  <!-- Tail -->
  <g>
    <ellipse cx="330" cy="250" rx="50" ry="30" fill="#228B22"/>
    <ellipse cx="370" cy="240" rx="40" ry="25" fill="#228B22"/>
    <ellipse cx="410" cy="230" rx="30" ry="20" fill="#228B22"/>
  </g>

  <!-- Legs -->
  <g>
    <rect x="70" y="290" width="80" height="150" rx="40" fill="#4CAF50"/>
    <rect x="360" y="290" width="80" height="150" rx="40" fill="#4CAF50"/>
  </g>

  <!-- Eyes -->
  <circle cx="170" cy="100" r="15" fill="#FFFFFF" stroke="#000000" stroke-width="2"/>
  <circle cx="230" cy="100" r="15" fill="#FFFFFF" stroke="#000000" stroke-width="2"/>

  <!-- Spikes -->
  <g>
    <polygon points="90,70 140,70 120,30" fill="#FFFF00"/>
    <polygon points="150,80 200,80 170,40" fill="#FFFF00"/>
    <polygon points="210,90 260,90 230,50" fill="#FFFF00"/>
    <polygon points="270,100 320,100 290,60" fill="#FFFF00"/>
    <polygon points="330,110 380,110 350,70" fill="#FFFF00"/>
  </g>
</svg>