<svg width="500" height="500" xmlns="http://www.w3.org/2000/svg">

  <!-- Body -->
  <circle cx="150" cy="250" r="80" fill="#8DC63C" stroke="#4A7D3B" stroke-width="5"/>
  <path d="M150 250 Q200 150, 250 250" fill="transparent" stroke="#4A7D3B" stroke-width="5"/>

  <!-- Head -->
  <circle cx="150" cy="180" r="60" fill="#8DC63C" stroke="#4A7D3B" stroke-width="5"/>
  <path d="M120 180 Q90 130, 60 180 H180 Q210 130, 150 180" fill="transparent" stroke="#4A7D3B" stroke-width="5"/>

  <!-- Legs -->
  <rect x="120" y="330" width="40" height="100" rx="20" ry="20" fill="#8DC63C" stroke="#4A7D3B" stroke-width="5"/>
  <rect x="190" y="330" width="40" height="100" rx="20" ry="20" fill="#8DC63C" stroke="#4A7D3B" stroke-width="5"/>

  <!-- Tail -->
  <rect x="220" y="280" width="40" height="90" rx="20" ry="20" fill="#8DC63C" stroke="#4A7D3B" stroke-width="5"/>

  <!-- Arms -->
  <path d="M150 230 Q120 280, 90 230 H210 Q240 280, 150 230" fill="transparent" stroke="#4A7D3B" stroke-width="5"/>

  <!-- Spikes -->
  <path d="M120 150 L90 180 Z M180 150 L210 180 Z" fill="#C63F28" stroke="#4A7D3B" stroke-width="5"/>

</svg>