<svg width="200" height="150" xmlns="http://www.w3.org/2000/svg">

  <!-- Body -->
  <rect x="0" y="50" width="100" height="60" fill="#8DC63C"/>

  <!-- Head -->
  <ellipse cx="-30" cy="0" rx="40" ry="60" fill="#6D8F27"/>

  <!-- Eyes -->
  <circle cx="-35" cy="10" r="5" fill="#FFFFFF"/>
  <circle cx="0" cy="10" r="5" fill="#FFFFFF"/>
  <rect x="-40" y="5" width="80" height="2" fill="#000000"/>

  <!-- Legs -->
  <rect x="10" y="70" width="30" height="30" fill="#4E7B26"/>
  <rect x="40" y="70" width="30" height="30" fill="#4E7B26"/>
  <rect x="-20" y="70" width="30" height="30" fill="#4E7B26"/>
  <rect x="50" y="70" width="30" height="30" fill="#4E7B26"/>

  <!-- Tail -->
  <rect x="90" y="50" width="10" height="30" fill="#4E7B26"/>
  <rect x="100" y="45" width="10" height="30" fill="#4E7B26"/>
  <rect x="110" y="40" width="10" height="30" fill="#4E7B26"/>
  <rect x="120" y="35" width="10" height="30" fill="#4E7B26"/>
  <rect x="130" y="30" width="10" height="30" fill="#4E7B26"/>
  <rect x="140" y="25" width="10" height="30" fill="#4E7B26"/>

</svg>