<svg width="500" height="400" xmlns="http://www.w3.org/2000/svg">

  <!-- Body -->
  <rect x="100" y="180" width="300" height="200" fill="#8B7D6C"/>

  <!-- Head -->
  <ellipse cx="200" cy="150" rx="90" ry="80" fill="#8B7D6C"/>
  <polygon points="140,10 260,10 220,30" fill="#8B7D6C"/>

  <!-- Legs -->
  <rect x="100" y="350" width="30" height="100" fill="#8B7D6C"/>
  <rect x="140" y="350" width="30" height="120" fill="#8B7D6C"/>
  <rect x="260" y="330" width="30" height="90" fill="#8B7D6C"/>
  <rect x="300" y="350" width="30" height="100" fill="#8B7D6C"/>

  <!-- Arms -->
  <rect x="120" y="240" width="30" height="90" fill="#8B7D6C"/>
  <rect x="250" y="240" width="30" height="90" fill="#8B7D6C"/>

  <!-- Tail -->
  <polygon points="310,360 360,380 400,360 430,380 450,360 470,380" fill="#8B7D6C"/>

  <!-- Eyes -->
  <circle cx="170" cy="120" r="10" fill="#FFFFFF"/>
  <circle cx="230" cy="120" r="10" fill="#FFFFFF"/>

  <!-- Teeth -->
  <polygon points="150,40 160,50 170,40 180,50 190,40" fill="#8B7D6C"/>
  <polygon points="230,40 240,50 250,40 260,50 270,40" fill="#8B7D6C"/>

</svg>