<svg width="500" height="500" xmlns="http://www.w3.org/2000/svg">

  <!-- Dinosaur outline -->
  <path id="dinosaur-outline" d="M100,50 C150,50 200,150 250,50 C300,50 350,200 400,50 C450,50 500,150 550,50 Z"
        fill="none" stroke="black"/>

  <!-- Head -->
  <path id="head" d="M70,30 A30,30 0 1,0 140,80 30,30 0 0,0 70,30"
        fill="url(#grad-head)"/>

  <!-- Body -->
  <path id="body" d="M250,50 A100,50 0 0,1 350,50 A50,50 0 0,1 400,100"
        fill="url(#grad-body)"/>

  <!-- Tail -->
  <path id="tail" d="M420,50 A80,40 0 0,0 360,90 A40,40 0 0,0 420,140"
        fill="url(#grad-tail)"/>

  <!-- Legs -->
  <rect id="leg-front-left" x="150" y="170" width="30" height="80" rx="15"
        fill="url(#grad-legs)"/>
  <rect id="leg-front-right" x="210" y="170" width="30" height="80" rx="15"
        fill="url(#grad-legs)"/>
  <rect id="leg-back-left" x="360" y="140" width="30" height="60" rx="15"
        fill="url(#grad-legs)"/>
  <rect id="leg-back-right" x="420" y="140" width="30" height="60" rx="15"
        fill="url(#grad-legs)"/>

  <!-- Gradients -->
  <defs>
    <linearGradient id="grad-head" x1="0%" y1="0%" x2="100%" y2="100%">
      <stop offset="0%" style="stop-color:rgb(255,255,255);stop-opacity:1"/>
      <stop offset="100%" style="stop-color:rgb(0,0,0);stop-opacity:1"/>
    </linearGradient>
    <linearGradient id="grad-body" x1="0%" y1="0%" x2="100%" y2="100%">
      <stop offset="0%" style="stop-color:rgb(255,255,255);stop-opacity:1"/>
      <stop offset="100%" style="stop-color:rgb(64,64,64);stop-opacity:1"/>
    </linearGradient>
    <linearGradient id="grad-tail" x1="0%" y1="0%" x2="100%" y2="100%">
      <stop offset="0%" style="stop-color:rgb(255,255,255);stop-opacity:1"/>
      <stop offset="100%" style="stop-color:rgb(96,96,96);stop-opacity:1"/>
    </linearGradient>
    <linearGradient id="grad-legs" x1="0%" y1="0%" x2="100%" y2="100%">
      <stop offset="0%" style="stop-color:rgb(192,192,192);stop-opacity:1"/>
      <stop offset="100%" style="stop-color:rgb(128,128,128);stop-opacity:1"/>
    </linearGradient>
  </defs>

</svg>