<svg xmlns="http://www.w3.org/2000/svg" viewBox="-150 -50 400 200">
  <!-- Background -->
  <rect x="-200" y="-100" width="600" height="400" fill="#F5DEB3"/>

  <!-- Dinosaur Body -->
  <path d="M-100,-50 A70,70 0 0 0 30,50 Q80,120 100,150 L140,90 Z" fill="#FFF5E6"/>
  <path d="M-100,-50 A70,70 0 0 0 30,50 Q80,120 100,150" stroke="#2D943C" stroke-width="10"/>

  <!-- Dinosaur Head -->
  <circle cx="-60" cy="20" r="60" fill="#FFF5E6"/>
  <path d="M-60,20 A60,60 0 0 0 -80,-40 Z" stroke="#2D943C" stroke-width="10"/>

  <!-- Dinosaur Tail -->
  <polyline points="-160,-50 -100,-80 -40,-50" fill="#FFF5E6"/>
  <polyline points="-160,-50 -100,-80 -40,-50" stroke="#2D943C" stroke-width="10"/>

  <!-- Dinosaur Spikes -->
  <path d="M-70,50 L-90,70 L-50,70 Z" fill="#FF8C00"/>
  <path d="M-30,50 L-10,70 L10,70 Z" fill="#FF8C00"/>

  <!-- Dinosaur Outfit -->
  <!-- Shirt -->
  <rect x="-90" y="20" width="40" height="60" fill="url(#shirt-stripes)" stroke="#2D943C" stroke-width="5"/>
  <!-- Vest -->
  <path d="M-80,70 Q-60,100 -40,110 L-20,100 Z" fill="url(#vest-scales)" stroke="#FF8C00" stroke-width="5"/>
  <!-- Pants -->
  <rect x="-90" y="90" width="40" height="60" fill="#FFF5E6" stroke="#2D943C" stroke-width="5"/>

  <!-- Dinosaur Accessories - Glasses -->
  <circle cx="-70" cy="35" r="15" fill="#FFF5E6"/>
  <path d="M-85,40 L-55,40" stroke="#2D943C" stroke-width="5"/>

</svg>