<svg width="500" height="400" xmlns="http://www.w3.org/2000/svg">

  <!-- Body -->
  <rect id="body" x="100" y="120" width="300" height="200" fill="#8B7D6B"/>
  <path id="neck" d="M150,120 Q225,90 300,120"/>

  <!-- Head -->
  <circle cx="300" cy="80" r="40" fill="#8B7D6B"/>
  <path id="eye-left" d="M280,70 a5,5 0 1,0 10,0 a5,5 0 1,0 -10,0" fill="black"/>
  <path id="eye-right" d="M320,70 a5,5 0 1,0 10,0 a5,5 0 1,0 -10,0" fill="black"/>

  <!-- Tail -->
  <polygon id="tail" points="400,280 370,330 330,280 300,330"/>

  <!-- Legs -->
  <rect id="leg-left-front" x="100" y="260" width="20" height="80" fill="#8B7D6B"/>
  <rect id="leg-right-front" x="150" y="260" width="20" height="80" fill="#8B7D6B"/>
  <rect id="leg-left-back" x="240" y="260" width="20" height="80" fill="#8B7D6B"/>
  <rect id="leg-right-back" x="290" y="260" width="20" height="80" fill="#8B7D6B"/>

</svg>