<svg width="600" height="700" xmlns="http://www.w3.org/2000/svg" style="background-color:#f5deb3;">

  <!-- Dinosaur's Body -->
  <rect x="100" y="150" width="400" height="500" fill="#f5deb3"/>
  <circle cx="200" cy="175" r="150" fill="#f5deb3"/>

  <!-- Shirt -->
  <rect x="150" y="200" width="200" height="150" fill="url(#pattern)" stroke="#c474ed" stroke-width="5"/>
  <path d="M150,200 Q180,150 200,200 H350 Q320,250 350,200 V350 H150 Z" fill="url(#pattern)" stroke="#c474ed" stroke-width="5"/>

  <!-- Collar -->
  <path d="M150,200 Q180,150 200,200 H350 Q320,250 350,200 V275 H150 Z" fill="#c474ed"/>

  <!-- Sleeves -->
  <circle cx="125" cy="150" r="25" fill="#f5deb3"/>
  <path d="M100,150 Q80,120 60,150 H20 Z" stroke="#c474ed" stroke-width="5" fill="transparent"/>
  <circle cx="375" cy="150" r="25" fill="#f5deb3"/>
  <path d="M400,150 Q420,120 460,150 H20 Z" stroke="#c474ed" stroke-width="5" fill="transparent"/>

  <!-- Pants -->
  <rect x="180" y="350" width="150" height="300" fill="#f5deb3"/>
  <path d="M220,650 Q270,700 320,650 H180 Z" stroke="#c474ed" stroke-width="5"/>

  <!-- Belt -->
  <rect x="200" y="550" width="120" height="30" fill="#c474ed"/>

  <!-- Hat -->
  <polygon points="300,50 400,50 400,150 300,150 280,50" fill="#3d9483" stroke="#c474ed" stroke-width="5"/>

  <!-- Pattern -->
  <defs>
    <pattern id="pattern" patternUnits="userSpaceOnUse" width="10" height="10">
      <line x1="0" y1="10" x2="10" y2="0" style="stroke:#3d9483; stroke-width:5"/>
    </pattern>
  </defs>

</svg>