<svg width="500" height="400" xmlns="http://www.w3.org/2000/svg">

  <!-- Body -->
  <g transform="translate(100, 200)">
    <rect x="0" y="0" width="200" height="150" fill="green" stroke="black"/>
    <circle cx="100" cy="75" r="30" fill="brown"/>
    <path d="M150,0 H200 V60 Q200,40 180,40 Z" fill="green" stroke="black"/>
  </g>

  <!-- Head -->
  <g transform="translate(230, 150)">
    <ellipse cx="50" cy="50" rx="45" ry="60" fill="brown" stroke="black"/>
    <circle cx="40" cy="70" r="10" fill="yellow"/>
    <path d="M25,30 Q0,10 25,0 L50,0 Z" fill="brown" stroke="black"/>
  </g>

  <!-- Tail -->
  <g transform="translate(280, 270)">
    <polyline points="0,0 60,30 120,0" fill="green" stroke="black"/>
  </g>

  <!-- Legs -->
  <g transform="translate(90, 350)">
    <rect x="-10" y="0" width="20" height="80" fill="brown" stroke="black"/>
    <path d="M-10,80 Q0,60 -10,40 L0,0 Z" fill="brown" stroke="black"/>
  </g>

  <!-- Other Legs -->
  <g transform="translate(230, 350)">
    <rect x="-10" y="0" width="20" height="80" fill="brown" stroke="black"/>
    <path d="M-10,80 Q0,60 -10,40 L0,0 Z" fill="brown" stroke="black"/>
  </g>

</svg>