<svg xmlns="http://www.w3.org/2000/svg" viewBox="0 0 1000 600">
  <!-- Body -->
  <path id="body" d="M150,400 C250,350 400,300 500,300 C600,300 750,350 850,400 L800,500 L600,550 L400,500 L200,550 Z" fill="url(#bodyGradient)"/>
  <!-- Tail -->
  <path id="tail" d="M850,400 C900,350 950,300 970,250 C960,200 910,150 850,100 L800,50 Z" fill="url(#tailGradient)"/>
  <!-- Head -->
  <path id="head" d="M300,250 Q400,200 470,250 C500,300 550,350 600,370 L580,410 Z" fill="#333"/>
  <!-- Legs -->
  <rect id="leg1" x="190" y="490" width="20" height="100" fill="#666"/>
  <rect id="leg2" x="250" y="490" width="20" height="100" fill="#666"/>
  <rect id="leg3" x="780" y="490" width="20" height="100" fill="#666"/>
  <rect id="leg4" x="840" y="490" width="20" height="100" fill="#666"/>
  <!-- Gradients -->
  <linearGradient id="bodyGradient" x1="0%" y1="0%" x2="100%" y2="100%">
    <stop offset="0%" style="stop-color:#777; stop-opacity:1" />
    <stop offset="100%" style="stop-color:#333; stop-opacity:1" />
  </linearGradient>
  <linearGradient id="tailGradient" x1="0%" y1="0%" x2="100%" y2="100%">
    <stop offset="0%" style="stop-color:#555; stop-opacity:1" />
    <stop offset="100%" style="stop-color:#222; stop-opacity:1" />
  </linearGradient>
</svg>