<svg width="800" height="600" xmlns="http://www.w3.org/2000/svg">

  <!-- Head -->
  <g id="head" transform="translate(150, 150) rotate(-5)">
    <rect x="-40" y="-70" width="80" height="140" fill="#8B7D6D"/>
    <circle cx="20" cy="30" r="30" fill="#FFFFFF"/>
    <path d="M-40 50 Q-20 70 0 90 Q20 70 40 50" stroke="black" fill="transparent"/>
  </g>

  <!-- Body -->
  <g id="body" transform="translate(100, 300)">
    <rect x="-80" y="-60" width="160" height="120" rx="5%" ry="5%" fill="#8B7D6D"/>
  </g>

  <!-- Tail -->
  <g id="tail" transform="translate(230, 400) rotate(-10)">
    <rect x="-40" y="-20" width="80" height="80" fill="#8B7D6D"/>
    <path d="M-40 -20 Q0 -5 40 -20" stroke="black" fill="transparent"/>
  </g>

  <!-- Front Leg -->
  <g id="frontLeg" transform="translate(130, 450)">
    <rect x="-20" y="-60" width="40" height="80" rx="5%" ry="5%" fill="#8B7D6D"/>
  </g>

  <!-- Back Leg -->
  <g id="backLeg" transform="translate(210, 350) rotate(-20)">
    <rect x="-20" y="-40" width="40" height="80" rx="5%" ry="5%" fill="#8B7D6D"/>
  </g>

</svg>