<svg width="800" height="600" xmlns="http://www.w3.org/2000/svg">
  <rect width="100%" height="100%" fill="#d4e9f9"/>
```

2. **Plant the seeds (Initial shapes):**

- For the T-Rex, let's start with a large circle for the body.
- For the landscape, we'll use rectangles for mountains and triangles for trees.

```svg
  <circle cx="350" cy="400" r="150" fill="#789d76"/>
  <rect x="100" y="200" width="200" height="400" fill="#65554a"/>
  <polygon points="400,300 500,300 450,200" fill="#8b7d69"/>
```

3. **Water and nurture (Apply transforms):**

- Rotate the body slightly to make it look more like a dinosaur.
- Scale and translate the mountains to create depth.
- Duplicate and translate the tree multiple times to create a forest.

```svg
  <g transform="rotate(5,350,400)">
    <circle cx="350" cy="400" r="150" fill="#789d76"/>
  </g>
  <g transform="scale(0.8) translate(-200,-200)">
    <rect x="100" y="200" width="200" height="400" fill="#65554a"/>
  </g>
  <polygon points="400,300 500,300 450,200" fill="#8b7d69"/>

  <!-- Trees -->
  <g transform="translate(150,350)">
    <polygon points="400,300 500,300 450,200" fill="#8b7d69"/>
  </g>
  <g transform="translate(250,300) scale(0.8)">
    <polygon points="400,300 500,300 450,200" fill="#8b7d69"/>
  </g>
  <!-- Add more trees as desired -->
```

4. **Prune (Remove unnecessary elements/attributes):**

Since we're creating a simple landscape, there aren't many unnecessary elements or attributes to remove.

5. **Write out the SVG code:**

Here's the final SVG code:

```svg
<svg width="800" height="600" xmlns="http://www.w3.org/2000/svg">
  <rect width="100%" height="100%" fill="#d4e9f9"/>
  <g transform="rotate(5,350,400)">
    <circle cx="350" cy="400" r="150" fill="#789d76"/>
  </g>
  <g transform="scale(0.8) translate(-200,-200)">
    <rect x="100" y="200" width="200" height="400" fill="#65554a"/>
  </g>
  <polygon points="400,300 500,300 450,200" fill="#8b7d69"/>

  <!-- Trees -->
  <g transform="translate(150,350)">
    <polygon points="400,300 500,300 450,200" fill="#8b7d69"/>
  </g>
  <g transform="translate(250,300) scale(0.8)">
    <polygon points="400,300 500,300 450,200" fill="#8b7d69"/>
  </g>
</svg>