<svg viewBox="0 0 500 400" xmlns="http://www.w3.org/2000/svg">
  <!-- Dinosaur outline -->
  <path id="dinosaur-outline" d="
    M100,370 C100,360 150,380 200,360
    C250,340 300,390 350,360
    C360,330 380,370 400,350
    C420,320 440,370 450,340
    C460,310 480,360 490,320
    C490,290 490,250 480,220
    L400,150
    C380,120 340,100 300,130
    C260,160 200,140 150,170
    C100,190 50,210 100,230 Z"
    fill="url(#dinosaur-gradient)" stroke="black" stroke-width="5"/>

  <!-- Linear gradient for fill -->
  <defs>
    <linearGradient id="dinosaur-gradient" x1="0%" y1="0%" x2="100%" y2="100%">
      <stop offset="0%" style="stop-color:rgb(64,64,64);stop-opacity:1"/>
      <stop offset="100%" style="stop-color:rgb(96,96,96);stop-opacity:1"/>
    </linearGradient>
  </defs>
</svg>