<svg width="500" height="300" xmlns="http://www.w3.org/2000/svg">

  <!-- Body -->
  <rect x="70" y="120" width="200" height="140" fill="#8B7D6B" stroke-width="5" stroke="#000"/>
  <path d="M150,90 Q130,70 170,70 Q200,150 220,90" fill="none" stroke="#8B7D6B" stroke-width="5"/>

  <!-- Tail -->
  <polygon points="400,260 350,260 400,300" fill="#8B7D6B"/>
  <path d="M350,260 Q310,290 350,320 Q390,290 350,260" fill="none" stroke="#8B7D6B" stroke-width="5"/>

  <!-- Head -->
  <circle cx="100" cy="70" r="40" fill="#8B7D6B"/>
  <path d="M100,30 Q90,20 110,20 Q120,40 100,50" fill="none" stroke="#8B7D6B" stroke-width="5"/>

  <!-- Legs -->
  <rect x="80" y="270" width="30" height="90" fill="#8B7D6B"/>
  <path d="M110,270 Q140,350 170,270" fill="none" stroke="#8B7D6B" stroke-width="5"/>

  <!-- Eyes -->
  <circle cx="90" cy="60" r="5" fill="#FFF"/>
  <circle cx="110" cy="60" r="5" fill="#FFF"/>

</svg>