<svg width="300" height="300" xmlns="http://www.w3.org/2000/svg">

  <!-- Body -->
  <circle cx="50" cy="200" r="40" fill="#8B7D6B"/>
  <circle cx="130" cy="160" r="30" fill="#8B7D6B"/>

  <!-- Head -->
  <ellipse cx="200" cy="140" rx="50" ry="70" fill="#8B7D6B"/>
  <circle cx="190" cy="130" r="8" fill="#FFFFFF"/>
  <circle cx="210" cy="130" r="8" fill="#FFFFFF"/>

  <!-- Jaws -->
  <polygon points="240,70 260,70 250,90" fill="#8B7D6B"/>
  <polygon points="200,100 180,100 190,80" fill="#8B7D6B"/>

  <!-- Limbs -->
  <path d="M160,170 C150,190 170,210 190,200" stroke="#8B7D6B"/>
  <path d="M230,240 C240,260 260,280 280,260" stroke="#8B7D6B"/>
  <path d="M150,130 C160,110 180,100 190,120" stroke="#8B7D6B"/>
  <path d="M240,120 C250,100 270,90 280,110" stroke="#8B7D6B"/>

  <!-- Spikes -->
  <g stroke="#8B7D6B">
    <!-- Add sixteen circles along the back and tail here -->
  </g>

</svg>