<svg width="500" height="600" xmlns="http://www.w3.org/2000/svg">

  <!-- Head -->
  <rect x="150" y="80" width="200" height="200" rx="40" fill="#A9A9A9"/>
  <circle cx="175" cy="130" r="20" fill="#000000"/>
  <circle cx="225" cy="130" r="20" fill="#000000"/>
  <circle cx="200" cy="90" r="10" fill="#000000"/>
  <path d="M200,160 Q225,180 200,200 Q175,180 200,160" stroke="#000000" fill="transparent"/>

  <!-- Neck -->
  <path d="M200,200 Q225,240 200,280" stroke="#A9A9A9" fill="transparent"/>

  <!-- Body -->
  <rect x="150" y="250" width="200" height="150" rx="40" fill="#A9A9A9"/>

  <!-- Tail -->
  <rect x="300" y="350" width="80" height="60" rx="10" fill="#A9A9A9"/>
  <rect x="270" y="410" width="60" height="40" rx="10" fill="#A9A9A9"/>
  <rect x="235" y="460" width="40" height="30" rx="10" fill="#A9A9A9"/>

  <!-- Legs -->
  <rect x="130" y="450" width="40" height="80" rx="10" fill="#A9A9A9"/>
  <circle cx="120" cy="530" r="15" fill="#424242"/>
  <circle cx="140" cy="530" r="15" fill="#424242"/>
  <rect x="270" y="450" width="40" height="80" rx="10" fill="#A9A9A9"/>
  <circle cx="260" cy="530" r="15" fill="#424242"/>
  <circle cx="280" cy="530" r="15" fill="#424242"/>

</svg>