<svg xmlns="http://www.w3.org/2000/svg" viewBox="-50 -50 100 100">
  <!-- Body -->
  <rect x="-40" y="-60" width="80" height="100" fill="#8DC63C"/>
  <path d="M-20,-40 Q0,-70 20,-40" stroke="black" fill="none"/>

  <!-- Tail -->
  <rect x="-55" y="-90" width="10" height="40" fill="#8DC63C"/>
  <path d="M-55,-90 Q-70,-70 -55,-50" stroke="black" fill="none"/>

  <!-- Legs -->
  <rect x="-45" y="-120" width="10" height="40" fill="#8DC63C"/>
  <path d="M-45,-120 Q-70,-140 -45,-160" stroke="black" fill="none"/>

  <rect x="35" y="-120" width="10" height="40" fill="#8DC63C"/>
  <path d="M35,-120 Q70,-140 35,-160" stroke="black" fill="none"/>

  <!-- Head -->
  <circle cx="-20" cy="-40" r="20" fill="#8DC63C"/>
  <path d="M-20,-40 Q-40,-50 -20,-60" stroke="black" fill="none"/>

  <!-- Arms -->
  <rect x="-35" y="-70" width="10" height="30" fill="#8DC63C"/>
  <path d="M-35,-70 Q-45,-90 -20,-90" stroke="black" fill="none"/>

  <rect x="25" y="-70" width="10" height="30" fill="#8DC63C"/>
  <path d="M25,-70 Q35,-90 20,-90" stroke="black" fill="none"/>
</svg>