<svg xmlns="http://www.w3.org/2000/svg" viewBox="0 0 500 700">

<!-- Dinosaur's Body -->
<path d="M100 600 Q180 550, 260 600 L340 650 Q420 550, 500 600" fill="#3D9970" stroke="#9ACD32" stroke-width="10"/>

<!-- Dinosaur's Tail -->
<path d="M500 600 L340 650 Q260 680, 100 600" fill="#3D9970" stroke="#9ACD32" stroke-width="10"/>

<!-- Dinosaur's Head -->
<circle cx="180" cy="400" r="150" fill="#3D9970" stroke="#9ACD32" stroke-width="10"/>
<path d="M180 250 Q140 200, 180 150" fill="#3D9970" stroke="#9ACD32" stroke-width="10"/>

<!-- Dinosaur's Eyes -->
<circle cx="160" cy="320" r="20" fill="#F5DEB3"/>
<circle cx="200" cy="320" r="20" fill="#F5DEB3"/>

<!-- Dinosaur's Mouth -->
<path d="M180 450 Q140 490, 220 490" stroke="#000000" stroke-width="10"/>

<!-- Dinosaur's Spikes (Neck) -->
<pattern id="dots" patternUnits="userSpaceOnUse" width="4" height="4">
  <circle fill="#3D9970" cx="2" cy="2" r="2"/>
</pattern>
<rect x="165" y="380" width="40" height="120" fill="url(#dots)"/>

<!-- Dinosaur's Spikes (Back) -->
<path d="M180 550 Q220 590, 260 550" stroke="#000000" stroke-width="10"/>
<path d="M260 550 Q300 590, 340 550" stroke="#000000" stroke-width="10"/>

<!-- Dinosaur's Collar -->
<rect x="80" y="370" width="340" height="20" fill="#F5DEB3" stroke="#000000" stroke-width="5"/>

<!-- Dinosaur's Belt -->
<path d="M180 690 Q220 730, 260 690" stroke="#000000" stroke-width="10"/>
<path d="M260 690 Q300 730, 340 690" stroke="#000000" stroke-width="10"/>

<!-- Dinosaur's Shield -->
<pattern id="stripes" patternUnits="userSpaceOnUse" width="10" height="5">
  <rect fill="#F5DEB3" width="5" height="5"/>
</pattern>
<path d="M160 740 Q200 780, 240 740" stroke="#000000" stroke-width="10">
  <animate attributeName="d" dur="3s" values="M160 740 Q200 780, 240 740; M160 750 Q200 790, 240 750; M160 740 Q200 780, 240 740" repeatCount="indefinite"/>
</path>
<rect x="160" y="740" width="80" height="40" fill="url(#stripes)"/>

<!-- Dinosaur's Legs -->
<path d="M130 650 L200 700 Q260 650, 330 650"/>
<path d="M180 650 L250 700 Q310 650, 380 650"/>

<!-- Dinosaur's Arms -->
<path d="M240 420 Q290 370, 340 320"/>
<path d="M220 420 Q170 370, 270 320"/>

</svg>