<svg xmlns="http://www.w3.org/2000/svg" viewBox="-150 -150 300 300">

  <!-- Body -->
  <circle cx="-80" cy="60" r="70" fill="#8B4513"/>

  <!-- Head -->
  <circle cx="-20" cy="40" r="30" fill="#8B4513"/>

  <!-- Legs -->
  <rect x="-90" y="60" width="20" height="70" rx="5" fill="#8B4513"/>
  <rect x="-30" y="60" width="20" height="70" rx="5" fill="#8B4513"/>
  <rect x="-90" y="130" width="20" height="70" rx="5" transform="rotate(20, -90, 150)" fill="#8B4513"/>
  <rect x="-30" y="130" width="20" height="70" rx="5" transform="rotate(-20, -30, 150)" fill="#8B4513"/>

  <!-- Tail -->
  <rect x="-90" y="160" width="20" height="120" rx="5" fill="#8B4513">

    <!-- Tail Spikes -->
    <path d="M-90,170 Q-80,180 -90,190 Z" stroke="none" fill="#8B4513"/>
    <path d="M-90,200 Q-80,210 -90,220 Z" stroke="none" fill="#8B4513"/>

  </rect>

  <!-- Neck -->
  <path d="M-20,40 Q-60,70 -80,40 Z" stroke="none" fill="#8B4513"/>

  <!-- Arms -->
  <path d="M-90,60 Q-100,80 -90,100 Z" stroke="none" fill="#8B4513"/>
  <path d="M-10,60 Q20,80 -10,100 Z" stroke="none" fill="#8B4513"/>

</svg>