<svg width="100%" height="100%" viewBox="-50 -50 200 200" xmlns="http://www.w3.org/2000/svg">
  <!-- Measure 1 -->
  <circle cx="0" cy="0" r="10" fill="orange" transform="rotate(45 0 0)" />
  <rect width="100%" height="2" y="-50%" rx="10%" fill="green" />

  <!-- Measure 2 -->
  <circle cx="0" cy="0" r="8" fill="orange" transform="rotate(90 0 0)" />
  <path d="M-40 -30 H40 V30 H-40 Z" fill="blue" />

  <!-- Measure 3 -->
  <circle cx="0" cy="0" r="6" fill="orange" transform="rotate(135 0 0)" />
  <rect width="100%" height="2" y="-30%" rx="10%" fill="green" />

  <!-- Measure 4 -->
  <circle cx="0" cy="0" r="4" fill="orange" transform="rotate(180 0 0)" />
  <path d="M-40 -20 H40 V20 H-40 Z" fill="blue" />

  <!-- Measure 5 -->
  <circle cx="0" cy="0" r="6" fill="orange" transform="rotate(225 0 0)" />
  <rect width="100%" height="2" y="-10%" rx="10%" fill="green" />

  <!-- Measure 6 -->
  <circle cx="0" cy="0" r="4" fill="orange" transform="rotate(270 0 0)" />
  <path d="M-40 -10 H40 V10 H-40 Z" fill="blue" />

  <!-- Measure 7 -->
  <circle cx="0" cy="0" r="6" fill="orange" transform="rotate(315 0 0)" />
  <rect width="100%" height="2" y="10%" rx="10%" fill="green" />

  <!-- Measure 8 -->
  <circle cx="0" cy="0" r="4" fill="orange" transform="rotate(360 0 0)" />
  <path d="M-40 10 H40 V-10 H-40 Z" fill="blue" />

</svg>