<svg xmlns="http://www.w3.org/2000/svg" viewBox="-50 -100 400 300">
  <!-- Body -->
  <rect x="-70" y="-100" width="140" height="200"
        style="fill:green; stroke:black; stroke-width:2;" />

  <!-- Head -->
  <circle cx="-50" cy="-80" r="60"
          style="fill:darkgreen; stroke:black; stroke-width:2;" />

  <!-- Tail -->
  <path d="M-40 -30 Q -100, -10 0, -70 Q -50, -120 -40, -90"
        style="fill:green; stroke:black; stroke-width:2;" />

  <!-- Legs -->
  <rect x="-80" y="-60" width="20" height="120" rx="10"
        style="fill:green; stroke:black; stroke-width:2;" />
  <use href="#leg" transform="translate(40, -60) rotate(30)" />
  <use href="#leg" transform="translate(-80, -40) rotate(-30)" />

  <!-- Arms -->
  <rect x="-90" y="-150" width="20" height="70" rx="10"
        style="fill:green; stroke:black; stroke-width:2;" />
  <use href="#arm" transform="translate(40, -150) rotate(30)" />

  <!-- Eyes -->
  <circle cx="-65" cy="-90" r="5"
          style="fill:white; stroke:black; stroke-width:2;" />
  <circle cx="-35" cy="-90" r="5"
          style="fill:white; stroke:black; stroke-width:2;" />

  <!-- Mouth -->
  <path d="M-70 -80 Q -40, -60 0, -80 Q -40, -100 -70, -80"
        style="fill:transparent; stroke:black; stroke-width:2;" />

  <!-- Leg template -->
  <defs>
    <g id="leg">
      <rect x="-5" y="-60" width="10" height="120" rx="5" />
      <circle cx="5" cy="-60" r="5" />
    </g>

    <!-- Arm template -->
    <g id="arm">
      <rect x="-5" y="-70" width="10" height="40" rx="5" />
      <circle cx="5" cy="-70" r="5" />
    </g>
  </defs>
</svg>