<svg xmlns="http://www.w3.org/2000/svg" viewBox="0 0 512 512">
  <!-- Body -->
  <path d="M256 8C124.79 8 8 124.79 8 256s116.79 248 256 248s248-116.79 248-248S387.21 8 256 8z" fill="#8B4513"/>

  <!-- Tail -->
  <path d="M256 304l96 0a64 64 0 0 1 -64 64L256 422.73A64 64 0 0 1 189.34 304z" fill="#8B4513"/>

  <!-- Neck -->
  <path d="M176 224l80 64a64 64 0 0 0 64-64V224h-96z" fill="#8B4513"/>

  <!-- Head -->
  <circle cx="176" cy="136" r="80" fill="#8B4513"/>

  <!-- Eyes -->
  <circle cx="144" cy="120" r="16"/>
  <circle cx="208" cy="120" r="16"/>

  <!-- Legs -->
  <path d="M96 256l32 -64a32 32 0 0 1 32 -32h96a32 32 0 0 1 32 32l32 64z" fill="#8B4513"/>
  <path d="M176 256l32 -64a32 32 0 0 1 32 -32h96a32 32 0 0 1 32 32l-32 64z" fill="#8B4513"/>
</svg>