<svg xmlns="http://www.w3.org/2000/svg" viewBox="-50 -10 600 240">
  <!-- Body -->
  <path d="M70,80 Q90,70 150,80 Q220,110 280,80 Q340,50 400,80 Q460,110 520,80 Q580,50 630,70" fill="steelblue"/>

  <!-- Fin -->
  <path d="M180,50 L210,80 L180,110 Z" fill="steelblue"/>
  <path d="M420,50 L390,80 L420,110 Z" fill="steelblue"/>

  <!-- Tail -->
  <path d="M630,70 Q600,80 570,110" stroke="black" stroke-width="2" fill="transparent"/>

  <!-- Head -->
  <path d="M70,80 Q40,90 70,120 A50,50 0 0 1 160,120" fill="steelblue"/>
  <circle cx="160" cy="120" r="30" fill="white"/>

  <!-- Eye -->
  <circle cx="140" cy="110" r="5" fill="black"/>
  <circle cx="180" cy="110" r="5" fill="black"/>

  <!-- Mouth -->
  <path d="M70,130 Q90,160 120,140 Q140,160 160,130" stroke="black" stroke-width="2" fill="transparent"/>
</svg>