<svg width="500" height="350" xmlns="http://www.w3.org/2000/svg">
  <!-- Body -->
  <path d="M100,275 Q140,260 180,275 L280,275 Q320,290 360,275" fill="#8DC6C6"/>
  <!-- Tail -->
  <path d="M360,275 C370,240 410,240 430,275 L430,300 Q390,330 360,300 Z" fill="#8DC6C6"/>
  <!-- Head -->
  <path d="M100,275 C70,260 50,290 100,320 Q80,340 140,320 L180,275" fill="#8DC6C6"/>
  <!-- Fin -->
  <path d="M140,320 C150,350 190,350 200,320 Z" fill="#8DC6C6"/>
  <!-- Eye -->
  <circle cx="70" cy="295" r="15" fill="#FFFFFF">
    <circle cx="70" cy="295" r="5" fill="#000000"/>
  </circle>
  <!-- Flipper -->
  <path d="M140,300 Q160,280 140,260 L100,260 Z" fill="#8DC6C6"/>

  <!-- Highlights (considering light interaction) -->
  <linearGradient id="grad" x1="0%" y1="0%" x2="100%" y2="100%">
    <stop offset="0%" style="stop-color:#FFFFFF;stop-opacity:1"/>
    <stop offset="50%" style="stop-color:#8DC6C6;stop-opacity:1"/>
  </linearGradient>
  <path d="M360,275 C370,240 410,240 430,275 L430,300 Q390,330 360,300 Z" fill="url(#grad)"/>
</svg>