<svg xmlns="http://www.w3.org/2000/svg" viewBox="-10 0 450 450">

  <!-- Main Dolphin (Melody) -->
  <path id="dolphin-main" d="M80,90 Q150,70 250,90 Q300,130 360,90 Q420,50 450,90 H490 V50 Q450,10 400,50 Q350,80 300,50 Q250,70 200,50 Q150,70 100,90 Z" fill="#0d47a1" stroke="#000" stroke-width="2"/>

  <!-- Accompanying Dolphins (Harmony) -->
  <path id="dolphin-accom1" d="M80,350 Q150,330 250,350 Q300,370 360,350 Q420,330 450,350 H490 V330 Q450,320 400,330 Q350,350 300,330 Q250,330 200,350 Q150,370 100,350 Z" fill="#2196f3" stroke="#000" stroke-width="2"/>
  <path id="dolphin-accom2" d="M80,150 Q150,170 250,150 Q300,130 360,150 Q420,170 450,150 H490 V170 Q450,180 400,170 Q350,150 300,170 Q250,170 200,150 Q150,130 100,150 Z" fill="#64b5f6" stroke="#000" stroke-width="2"/>
  <path id="dolphin-accom3" d="M80,270 Q150,290 250,270 Q300,250 360,270 Q420,290 450,270 H490 V290 Q450,300 400,290 Q350,270 300,290 Q250,290 200,270 Q150,250 100,270 Z" fill="#b3e5fc" stroke="#000" stroke-width="2"/>

  <!-- Wavy Lines (Rhythm) -->
  <path d="M80,90 Q150,70 250,90 T450,90 V50 H490 V330 Q450,320 400,330 T360,350 V270 Q300,290 350,270 Z" stroke="#000" stroke-width="3"/>

</svg>