<svg width="800" height="600" xmlns="http://www.w3.org/2000/svg">
  <!-- Background -->
  <defs>
    <linearGradient id="waveGrad" x1="0%" y1="0%" x2="0%" y2="100%">
      <stop offset="0%" style="stop-color:rgb(5,92,183);stop-opacity:1" />
      <stop offset="100%" style="stop-color:rgb(76,174,234);stop-opacity:1" />
    </linearGradient>
  </defs>
  <path d="M0,50 Q200,150 400,50 Q600,150 800,50 L800,600 H0 Z" fill="url(#waveGrad)" />

  <!-- Base Pan -->
  <rect width="800" height="200" rx="30" fill="#9BCAE1" />

  <!-- Dolphin -->
  <path d="M400,75 Q350,125 300,200 Q250,275 200,200 Q150,125 100,75 Q150,25 200,75 Q250,125 300,75 Z" fill="#4A849F" stroke="#6497B0" stroke-width="5"/>
  <ellipse cx="350" cy="250" rx="50" ry="75" fill="#6497B0" />
  <path d="M350,250 Q380,275 410,250 Z" stroke="#6497B0" stroke-width="5"/>

  <!-- Sun Rays -->
  <defs>
    <radialGradient id="sunGrad" cx="50%" cy="50%" r="50%" fx="50%" fy="50%">
      <stop offset="0%" style="stop-color:rgb(255,238,14);stop-opacity:1" />
      <stop offset="100%" style="stop-color:rgb(255,255,255);stop-opacity:0.7" />
    </radialGradient>
  </defs>
  <!-- Add sun rays using radial gradient and line elements here -->

  <!-- Sea Bubbles -->
  <circle cx="350" cy="180" r="10" fill="#fff"/>
  <circle cx="250" cy="150" r="7" fill="#fff"/>
  <!-- Add more bubbles here with varying sizes and opacities -->

  <!-- Water Droplets -->
  <!-- Add water droplets using path elements here -->

</svg>