<svg width="100%" height="100%" xmlns="http://www.w3.org/2000/svg" version="1.1">
  <!-- Background -->
  <rect x="0" y="0" width="100%" height="100%" fill="url(#backgroundGradient)" />

  <!-- Main action area: Ocean stage -->
  <rect id="oceanStage" x="20%" y="30%" width="60%" height="40%"
        fill="url(#oceanGradient)"
        stroke="black" stroke-width="2" />
  <text x="50%" y="70%" dominant-baseline="middle"
        font-size="2em" text-anchor="middle" fill="white">
    The Dolphin
  </text>

  <!-- Props: Waves -->
  <path id="wave1" d="M0,40 Q80,80 160,40 Q320,0 400,40 Q480,80 560,40"
        fill="none" stroke="url(#waveGradient)" stroke-width="2" />
  <use href="#wave1" x="600" y="0" transform="translate(600) scale(-1)" />

  <!-- Props: Dolphins -->
  <g id="dolphin" transform="translate(50,70)">
    <path d="M0,-20 Q40,80 80,-20 Q120,120 160,-20"
          fill="url(#dolphinGradient)" />
    <circle cx="40" cy="30" r="25" fill="white" stroke="black"/>
  </g>
  <use href="#dolphin" x="180" y="0" transform="translate(180) rotate(-30)" />
  <use href="#dolphin" x="360" y="0" transform="translate(360) rotate(30)" />

  <!-- Gradients -->
  <defs>
    <linearGradient id="backgroundGradient"
      gradientUnits="objectBoundingBox">
      <stop offset="0%" stop-color="#0f2027"/>
      <stop offset="100%" stop-color="#0e4d53"/>
    </linearGradient>
    <linearGradient id="oceanGradient" x1="0" y1="0" x2="0" y2="1"
      gradientUnits="objectBoundingBox">
      <stop offset="0%" stop-color="#327da9"/>
      <stop offset="100%" stop-color="#0a2e45"/>
    </linearGradient>
    <linearGradient id="waveGradient"
      gradientUnits="userSpaceOnUse" x1="0" y1="80" x2="600" y2="80">
      <stop offset="0%" stop-color="#79c7fe"/>
      <stop offset="50%" stop-color="#ffffff33"/>
      <stop offset="100%" stop-color="#79c7fe00"/>
    </linearGradient>
    <linearGradient id="dolphinGradient"
      gradientUnits="objectBoundingBox" x1="0" y1="0" x2="1" y2="0">
      <stop offset="0%" stop-color="#ffffff33"/>
      <stop offset="100%" stop-color="#79c7fe"/>
    </linearGradient>
  </defs>
</svg>