<svg xmlns="http://www.w3.org/2000/svg" viewBox="-50 -50 100 100">

  <!-- Dolphins -->
  <path d="M-40,-40 Q-20,-20 0,0 Q20,-20 40,-40 Q0,-60 20,-40 Q40,-20 40,-40"
        fill="url(#dolphinGradient)" stroke-width="3" stroke="black"/>
  <path d="M-40,-40 Q-20,-20 0,0 Q20,-20 40,-40 Q0,-60 -20,-40 Q-40,-20 -40,-40"
        fill="url(#dolphinGradient)" stroke-width="3" stroke="black"/>

  <!-- Waves -->
  <path d="M-50,0 Q-30,10 -10,0 Q30,10 50,0"
        fill="none" stroke="url(#waveGradient)" stroke-width="8"/>
  <path d="M-40,-20 Q-20,-10 0,-20 Q20,-10 40,-20"
        fill="none" stroke="url(#waveGradient)" stroke-width="6"/>

  <!-- Bubbles -->
  <circle cx="-30" cy="-30" r="5" fill="url(#bubbleGradient)"/>
  <circle cx="10" cy="-10" r="8" fill="url(#bubbleGradient)"/>
  <circle cx="40" cy="0" r="6" fill="url(#bubbleGradient)"/>

  <!-- Gradients -->
  <defs>
    <linearGradient id="dolphinGradient" x1="0%" y1="0%" x2="100%" y2="100%">
      <stop offset="0%" style="stop-color:rgb(54,83,194);stop-opacity:1"/>
      <stop offset="100%" style="stop-color:rgb(17,36,73);stop-opacity:1"/>
    </linearGradient>
    <linearGradient id="waveGradient" x1="0%" y1="0%" x2="100%" y2="100%">
      <stop offset="0%" style="stop-color:rgb(255,255,255);stop-opacity:.8"/>
      <stop offset="100%" style="stop-color:rgb(64,133,197);stop-opacity:1"/>
    </linearGradient>
    <radialGradient id="bubbleGradient" cx="50%" cy="50%" r="50%" fx="50%" fy="50%">
      <stop offset="0%" style="stop-color:rgb(239,245,187);stop-opacity:1"/>
      <stop offset="100%" style="stop-color:rgb(255,255,255);stop-opacity:.6"/>
    </radialGradient>
  </defs>

</svg>