<svg width="800" height="600" xmlns="http://www.w3.org/2000/svg">
  <!-- Ocean Background -->
  <defs>
    <linearGradient id="oceanGradient" x1="50%" y1="0%" x2="50%" y2="100%">
      <stop offset="0%" style="stop-color:#B8E5FF;stop-opacity:1"/>
      <stop offset="100%" style="stop-color:#023E7D;stop-opacity:1"/>
    </linearGradient>
  </defs>
  <rect width="800" height="600" fill="url(#oceanGradient)" />

  <!-- Main Dolphin -->
  <image href="dolphin.svg" x="250" y="200" width="300" height="300"/>

  <!-- Seaweed -->
  <polyline points="100,580 200,590 300,570 400,600" fill="#228B22"/>
  <polyline points="500,580 600,590 700,570 800,600" fill="#228B22"/>

  <!-- Bubbles -->
  <circle cx="300" cy="400" r="10">
    <animateMotion begin="0s" dur="2s" repeatCount="indefinite">
      <mpath href="#bubblePath"/>
    </animateMotion>
  </circle>
  <!-- Add more bubbles here... -->

  <!-- Seagulls -->
  <polygon points="350,150 450,70 550,150" fill="#FFFFFF">
    <animateTransform attributeName="transform"
                     type="rotate"
                     from="0 400 200"
                     to="360 400 200"
                     dur="3s"
                     repeatCount="indefinite"/>
  </polygon>
  <!-- Add more seagulls here... -->

  <!-- Sun and Waves -->
  <circle cx="750" cy="550" r="50" fill="#FFDF36"/>

  <!-- Wave Path -->
  <path id="wavePath" d="M0,420 Q100,480 200,420 Q300,360 400,420 Q500,480 600,420 Q700,360 800,420 Q900,480 1000,420" stroke="#A3E4F7"/>
</svg>