<svg width="100%" height="100%" xmlns="http://www.w3.org/2000/svg">
  <rect width="100%" height="100%" fill="#87CEEB" />
  <circle cx="50%" cy="90%" r="45%" stroke="#C0C0C0" stroke-width="3" fill="transparent" />
  <path d="M10% 90% Q25% 85%, 40% 75% A30% 30% 0 1 0 60% 75% Q75% 85%, 90% 90%" fill="#0094FF" stroke="transparent"/>
  <path d="M20% 75% Q30% 65%, 40% 55%" fill="#0094FF" stroke="transparent"/>
  <path d="M12% 85% L2% 75% Z" stroke="#FFFFFF" fill="transparent"/>
  <path d="M88% 85% L98% 75% Z" stroke="#FFFFFF" fill="transparent"/>
  <ellipse cx="30%" cy="65%" rx="5%" ry="4%" fill="#000000"/>
  <ellipse cx="70%" cy="65%" rx="5%" ry="4%" fill="#000000"/>
  <text x="50%" y="10%" font-family="Verdana" font-size="2em" text-anchor="middle" fill="#32CD32">Dolphin Delight</text>
  <rect x="15%" y="60%" width="70%" height="20%" fill="#32CD32"/>
  <path d="M40% 80% L10% 90% Q20% 100%, 40% 110%" stroke="#32CD32" fill="transparent"/>
  <text x="35%" y="78%" font-family="Verdana" font-size="1em" text-anchor="middle" dominant-baseline="middle" fill="#FFFFFF">Hello, I'm a dolphin!</text>
</svg>