<svg width="600" height="540" viewBox="0 0 600 540" xmlns="http://www.w3.org/2000/svg">
  <!-- Body -->
  <path d="M180,90 Q240,70 360,90 Q420,110 540,90 A60,60 0 0 1 540,270 Q420,450 360,470 Q240,490 180,470 Z" fill="#4A5568"/>

  <!-- Tail -->
  <path d="M540,470 Q510,510 450,530 A60,60 0 0 0 390,530 Q330,510 300,470 Z" fill="#2D3748"/>

  <!-- Head -->
  <path d="M180,90 Q150,70 120,90 A60,60 0 0 0 120,270 Q150,450 180,470 Z" fill="#4A5568"/>

  <!-- Dorsal Fin -->
  <path d="M360,90 L390,110 Z" fill="#2D3748"/>

  <!-- Pectoral Fins (Pair) -->
  <g>
    <path d="M140,150 Q160,130 210,150 A30,30 0 0 0 240,180 Q220,190 180,170 Z" fill="#2D3748"/>
    <path d="M460,150 Q440,130 390,150 A30,30 0 0 1 360,180 Q380,190 420,170 Z" fill="#2D3748"/>
  </g>

  <!-- Eye -->
  <circle cx="150" cy="170" r="20" fill="#000">
    <circle cx="155" cy="165" r="5" fill="#FFF"/>
  </circle>
</svg>