<svg width="200" height="200" xmlns="http://www.w3.org/2000/svg">
  <circle cx="50%" cy="50%" r="45%" stroke="gray" stroke-width="2" fill="#F0F0F0"/>
  <path d="M50 90 Q65 80, 75 70 A75 75 0 0 1 25 70 Q35 80, 50 90" stroke="#1F3A93" stroke-width="2" fill="#1F3A93"/>
  <path d="M75 70 Q80 60, 75 50 Z" fill="#1C2859"/>
  <path d="M35 80 Q25 90, 35 100" fill="url(#grad1)"/>
  <path d="M65 80 Q75 90, 65 100" fill="url(#grad2)"/>
  <ellipse cx="30" cy="60" rx="10" ry="5" fill="#000000"/>
  <circle cx="35" cy="62.5" r="2" fill="#FFFFFF"/>
  <ellipse cx="70" cy="60" rx="10" ry="5" fill="#000000"/>
  <circle cx="65" cy="62.5" r="2" fill="#FFFFFF"/>
  <text x="5%" y="95%" font-family="Verdana" font-size="30px" fill="#CD7F32">Dolphin Delight</text>
  <defs>
    <linearGradient id="grad1" x1="0%" y1="0%" x2="100%" y2="0%">
      <stop offset="0%" style="stop-color:#B3D4FC; stop-opacity:1"/>
      <stop offset="100%" style="stop-color:#1C2859; stop-opacity:1"/>
    </linearGradient>
    <linearGradient id="grad2" x1="0%" y1="0%" x2="100%" y2="0%">
      <stop offset="0%" style="stop-color:#B3D4FC; stop-opacity:1"/>
      <stop offset="100%" style="stop-color:#1C2859; stop-opacity:1"/>
    </linearGradient>
  </defs>
</svg>