<svg width="800" height="600" xmlns="http://www.w3.org/2000/svg">
  <!-- Background -->
  <rect x="0" y="0" width="100%" height="100%" fill="#87CEEB"/>

  <!-- Pan -->
  <rect x="50" y="400" width="700" height="200" rx="10" ry="10" fill="#4A4A4A"/>

  <!-- Dolphin 1 -->
  <path d="M300,350 Q350,250 400,300 Q350,350 400,400 Q350,450 300,350" fill="#212F3C"/>
  <path d="M370,380 Q400,420 430,380" stroke="#455A64" fill="transparent"/>
  <circle cx="340" cy="330" r="10" fill="#FFFFFF"/>

  <!-- Dolphin 2 -->
  <path d="M600,350 Q550,250 600,300 Q550,350 600,400 Q550,450 600,350" fill="#212F3C"/>
  <path d="M670,380 Q700,420 730,380" stroke="#455A64" fill="transparent"/>
  <circle cx="640" cy="330" r="10" fill="#FFFFFF"/>

  <!-- Water Waves -->
  <path d="M0,550 Q200,600 400,550 Q600,600 800,550" stroke="#ADD8E6" fill="transparent"/>
  <path d="M0,570 Q200,610 400,570 Q600,610 800,570" stroke="#0099CC" fill="transparent"/>

  <!-- Fishes -->
  <path d="M200,450 Q230,430 260,450 Q230,470 200,450" fill="#FFDF00"/>
  <path d="M550,450 Q580,430 610,450 Q580,470 550,450" fill="#FFDF00"/>

</svg>