<svg xmlns="http://www.w3.org/2000/svg" viewBox="-150 -150 300 300">
  <!-- Body -->
  <path fill="#4CAF50" d="
    M -80,-70 C -60,-90 -40,-90 -20,-70
    Q 20,-90 60,-70
    Q 140,-90 160,-70
    L 160,50
    Q 180,130 180,210
    H -100
    V 210
    Q -80,130 -80,70 Z"
  />

  <!-- Fin -->
  <path fill="#4CAF50" d="M -160,-90 L -80,-110 L -80,-70 Z"/>

  <!-- Tail -->
  <path fill="#4CAF50" d="M -20,210 Q 0,230 20,210"/>

  <!-- Flipper -->
  <path fill="#4CAF50" d="M 60,-90 Q 80,-70 100,-90 Q 120,-70 140,-90 Z"/>

  <!-- Head -->
  <path fill="#FFFFFF" stroke="#4CAF50" stroke-width="3" d="
    M -160,50 A 80,80 0 0 0 -80,130
    A 60,60 0 0 0 -20,90"/>

  <!-- Eye -->
  <circle cx="-120" cy="70" r="15" fill="#000"/>
  <circle cx="-120" cy="70" r="8" fill="#FFF"/>

</svg>