<svg xmlns="http://www.w3.org/2000/svg" viewBox="0 0 200 300">

  <!-- Body -->
  <path d="M100,50 Q90,70 80,140 C60,200 100,280 140,280 L180,200 C220,280 260,200 300,140 Q310,70 300,50 Z" fill="url(#bodyGradient)"/>

  <!-- Tail Fin -->
  <path d="M260,280 C270,300 290,300 300,280" fill="none" stroke="#303F9F"/>

  <!-- Dorsal Fin -->
  <path d="M140,220 Q160,250 170,220 Z" fill="#303F9F"/>

  <!-- Pectoral Fins -->
  <path d="M80,140 Q70,160 80,180" fill="none" stroke="#303F9F"/>
  <path d="M120,140 Q130,160 120,180" fill="none" stroke="#303F9F"/>

  <!-- Eye -->
  <circle cx="70" cy="60" r="5" fill="#303F9F"/>
  <circle cx="70" cy="60" r="3" fill="white"/>

  <!-- Defining gradient for body -->
  <defs>
    <linearGradient id="bodyGradient" x1="0%" y1="0%" x2="100%" y2="100%">
      <stop offset="0%" style="stop-color:#6DD5ED"/>
      <stop offset="100%" style="stop-color:#2C97A1"/>
    </linearGradient>
  </defs>

</svg>