<svg width="500" height="500" xmlns="http://www.w3.org/2000/svg">
  <defs>
    <!-- Gradient for the dolphin bodies -->
    <linearGradient id="dolphinGradient" x1="0%" y1="0%" x2="100%" y2="100%">
      <stop offset="0%" style="stop-color:rgb(53,94,171);stop-opacity:1"/>
      <stop offset="100%" style="stop-color:rgb(26,57,118);stop-opacity:1"/>
    </linearGradient>

    <!-- Gradient for the garden paths -->
    <linearGradient id="pathGradient" x1="0%" y1="0%" x2="100%" y2="100%">
      <stop offset="0%" style="stop-color:rgb(34,139,34);stop-opacity:1"/>
      <stop offset="50%" style="stop-color:rgb(0,80,0);stop-opacity:1"/>
      <stop offset="100%" style="stop-color:rgb(27,68,22);stop-opacity:1"/>
    </linearGradient>
  </defs>

  <!-- Background -->
  <rect x="0" y="0" width="500" height="500" fill="#D3E4F9"/>

  <!-- Garden paths -->
  <path d="M250,10 A170,170 0 0 1 250,390 Q300,280 350,10 T400,390 Q350,280 300,10" fill="none" stroke-url("#pathGradient") stroke-width="2"/>

  <!-- Dolphin shapes and arrangement -->
  <g id="dolphins">
    <g transform="rotate(12) translate(250, 170)">
      <use xlink:href="#dolphin" fill-url="#dolphinGradient"/>
      <use xlink:href="#dolphin" transform="translate(-50,-30) rotate(90)" fill-opacity="0.7"/>
    </g>
    <!-- Repeat the dolphin group 18 times to create a full circle -->
    <g id="dolphins-repeat">
      <use xlink:href="#dolphins" transform="rotate(20)"/>
      <!-- Repeat 9 more times (18 in total) -->
    </g>
  </g>

  <!-- Dolphin shape definition -->
  <path id="dolphin" d="M240,35 C275,60 290,145 310,180 A150,150 0 0 1 190,275 C165,185 135,60 110,35 Z"/>

</svg>