<svg width="100%" height="600" xmlns="http://www.w3.org/2000/svg">

<!-- Dolphins -->
<g id="dolphins">
  <path d="M50 80 Q90 40, 150 80 Q190 120, 250 80 Q300 20, 360 80" fill="url(#dolphinGradient)" />
  <path d="M400 80 Q450 40, 520 80 Q570 120, 630 80 Q690 20, 750 80" fill="url(#dolphinGradient)" />
</g>

<!-- Waves -->
<defs>
  <linearGradient id="waveGradient" x1="0%" y1="0%" x2="100%" y2="0%">
    <stop offset="0%" style="stop-color:rgb(25,73,149); stop-opacity:1" />
    <stop offset="50%" style="stop-color:rgb(84,162,237); stop-opacity:1" />
    <stop offset="100%" style="stop-color:rgb(25,73,149); stop-opacity:1" />
  </linearGradient>
</defs>
<path d="M0 200 Q100 150, 200 200 Q300 250, 400 200 Q500 100, 600 200" fill="url(#waveGradient)" />

<!-- Ocean currents -->
<path d="M0 220 Q100 240, 200 220 Q300 230, 400 220 Q500 240, 600 220" fill="url(#currentGradient)" stroke-width="0" />

<!-- Gradients -->
<linearGradient id="dolphinGradient" x1="0%" y1="0%" x2="0%" y2="100%">
  <stop offset="0%" style="stop-color:rgb(117,210,236); stop-opacity:1" />
  <stop offset="100%" style="stop-color:rgb(189,240,255); stop-opacity:1" />
</linearGradient>
<linearGradient id="currentGradient" x1="0%" y1="0%" x2="0%" y2="100%">
  <stop offset="0%" style="stop-color:rgb(0,128,128); stop-opacity:0.5" />
</linearGradient>

<!-- Dolphin trails -->
<path d="M50 80 Q90 40, 150 80" stroke="#fff" stroke-width="2" fill="none"/>
<path d="M400 80 Q450 40, 520 80" stroke="#fff" stroke-width="2" fill="none"/>

</svg>