<svg width="800" height="400" xmlns="http://www.w3.org/2000/svg">

  <!-- Define color gradients -->
  <defs>
    <linearGradient id="waterGrad" x1="0%" y1="0%" x2="100%" y2="100%">
      <stop offset="0%" style="stop-color:rgb(8,37,56);stop-opacity:1" />
      <stop offset="100%" style="stop-color:rgb(49,117,161);stop-opacity:1" />
    </linearGradient>
  </defs>

  <!-- Dolphins -->
  <path id="dolphin1" d="M50 30 Q80 10, 120 30 Q160 60, 200 40 Q240 70, 290 30 Q340 10, 380 30" fill="url(#waterGrad)" stroke="none"/>
  <path id="dolphin2" d="M50 60 Q80 80, 120 60 Q160 50, 200 70 Q240 60, 290 70 Q340 80, 380 70" fill="url(#waterGrad)" stroke="none"/>

  <!-- Waves -->
  <path id="wave1" d="M50 380 Q100 410, 200 400 Q300 430, 400 400 Q500 410, 600 400" fill="url(#waterGrad)" stroke="none"/>
  <path id="wave2" d="M50 400 Q100 390, 200 410 Q300 380, 400 410 Q500 390, 600 410" fill="url(#waterGrad)" stroke="none"/>
  <path id="wave3" d="M50 420 Q100 410, 200 430 Q300 420, 400 430 Q500 420, 600 430" fill="url(#waterGrad)" stroke="none"/>

  <!-- Dolphin connector line -->
  <path d="M190 30 C280 10, 370 80, 380 30" stroke="#ddd" stroke-width="5"/>

  <!-- Wave connectors -->
  <path d="M60 400 Q160 430, 290 400" stroke="#ddd" stroke-width="5"/>
  <path d="M170 410 Q270 380, 390 410" stroke="#ddd" stroke-width="5"/>

  <!-- Dolphin highlights -->
  <circle cx="100" cy="35" r="10" fill="gold"/>
  <circle cx="250" cy="45" r="10" fill="gold"/>
  <circle cx="380" cy="35" r="10" fill="gold"/>

</svg>