<svg width="600" height="400" xmlns="http://www.w3.org/2000/svg">

  <!-- Body -->
  <path d="M100,50 Q150,20 200,70 Q250,120 300,90 Q350,50 400,80 L500,150 L400,220 Q350,250 300,220 Q250,250 200,220 Q150,250 100,220 Z" fill="#80a3cc"/>

  <!-- Dorsal fin -->
  <path d="M270,90 Q280,100 290,90 Q300,110 290,120 Q280,110 270,120" fill="#457b9d"/>

  <!-- Pectoral fins -->
  <path d="M160,120 Q170,130 180,120 Q190,140 180,150 Q170,140 160,150" fill="#80a3cc"/>
  <path d="M440,180 Q450,190 460,180 Q470,200 460,210 Q450,200 440,210" fill="#80a3cc"/>

  <!-- Pelvic fins -->
  <path d="M160,220 Q170,230 180,220 Q190,240 180,250 Q170,240 160,250" fill="#80a3cc"/>
  <path d="M440,260 Q450,270 460,260 Q470,280 460,290 Q450,280 440,290" fill="#80a3cc"/>

  <!-- Tail fluke -->
  <path d="M500,150 Q510,160 520,150 Q530,170 520,180 Q510,170 500,180" fill="#457b9d"/>
  <path d="M505,175 L515,185 L505,195 Z" fill="#80a3cc"/>

  <!-- Snout -->
  <path d="M100,50 Q120,40 140,60" fill="#80a3cc"/>

  <!-- Eye -->
  <circle cx="150" cy="70" r="10" fill="#ffffff"/>
  <circle cx="150" cy="70" r="5" fill="#000000"/>

  <!-- Blowhole -->
  <circle cx="165" cy="65" r="3.5" fill="#457b9d"/>

</svg>