<svg xmlns="http://www.w3.org/2000/svg" viewBox="-50 -50 100 100">
  <!-- Filters -->
  <defs>
    <filter id="glow" x="-50%" y="-50%" width="200%" height="200%">
      <feGaussianBlur stdDeviation="3" result="coloredBlur"/>
      <feMerge>
        <feMergeNode in="coloredBlur"/>
        <feMergeNode in="SourceGraphic"/>
      </feMerge>
    </filter>

    <filter id="ripple">
      <feTurbulence baseFrequency="0.1" numOctaves="2" result="turbulence"/>
      <feDisplacementMap in="SourceGraphic" in2="turbulence" scale="5" xChannelSelector="R" yChannelSelector="G"/>
    </filter>
  </defs>

  <!-- Route & Landmarks -->
  <path id="route" d="
    M0,-40
    C-30,-20 -10,0 20,0
    Q60,20 90,0
    T120,-40 Z"
    fill="none" stroke="#333" stroke-width="5"/>

  <!-- Dolphin's Tail -->
  <path d="M-30,-40 Q-10,-20 10,0 Q30,-20 35,-40" fill="#6CA6CD" filter="url(#glow)"/>
  <circle cx="-17.5" cy="-40" r="5" fill="#fff"/>

  <!-- Dolphin's Body -->
  <path d="M-10,0 Q20,0 30,-20 A30,30 0 0,0 60,0 A30,30 0 0,0 90,-20" fill="#6CA6CD" filter="url(#glow)"/>
  <circle cx="45" cy="-10" r="5" fill="#fff"/>

  <!-- Dolphin's Head -->
  <path d="M70,0 Q80,-10 90,0 A20,20 0 0,0 100,-10" fill="#6CA6CD" filter="url(#glow)"/>
  <circle cx="95" cy="-5" r="5" fill="#fff"/>

  <!-- Sea Surface -->
  <path d="M-50,-40 Q-30,-20 -10,0 A10,10 0 0,0 30,0 Q50,-20 70,-40" fill="#6CA6CD" filter="url(#ripple)"/>

</svg>