<svg>` tag:

```html
<svg xmlns="http://www.w3.org/2000/svg" viewBox="0 0 500 700">
```

Next, we'll draw a basic outline of our fairy using broad strokes for the body and delicate lines for details.

1. **Body**: A light pink oval shape with a white fill color.
```html
<path d="M 225 300 Q 250 275, 275 300 Q 250 325, 225 300" stroke="#da4167" stroke-width="20" fill="#ffffff"/>
```

2. **Wings**: Two delicate blue lines forming a teardrop shape on either side of the body.
```html
<path d="M 200 250 Q 150 300, 200 350, M 250 250 Q 300 300, 250 350" stroke="#2d348a" stroke-width="5"/>
```

3. **Hair**: A wavy light blue line on top of the head.
```html
<path d="M 175 150 Q 200 125, 225 150 Q 200 175, 175 150" stroke="#00c6ff" stroke-width="8"/>
```

4. **Face**: A delicate pink outline for the face.
```html
<path d="M 200 300 a 75 75 0 1 1 150 0 a 75 75 0 1 1 -150 0" stroke="#da4167" stroke-width="8"/>
```

5. **Arms**: Two thin white lines extending from the body.
```html
<path d="M 225 350 L 175 400, M 225 350 L 275 400" stroke="#ffffff" stroke-width="5"/>
```

6. **Legs**: Two thin white lines extending from the body.
```html
<path d="M 225 375 L 175 425, M 225 375 L 275 425" stroke="#ffffff" stroke-width="5"/>
```

Finally, close the `<svg>` tag:
```html
</svg>