<svg xmlns="http://www.w3.org/2000/svg" viewBox="-5 -5 100 100">
  <!-- Body -->
  <rect x="15" y="20" width="70" height="60" stroke="black" stroke-width="4" fill="none"/>

  <!-- Head -->
  <ellipse cx="50" cy="35" rx="25" ry="30" stroke="black" stroke-width="4" fill="none"/>

  <!-- Hair (irregular curves) -->
  <path d="M55,18 Q65,25 70,20 Q65,15 55,10 Q45,15 40,20 Q45,25 55,30" stroke="brown" stroke-width="2"/>

  <!-- Arms -->
  <line x1="25" y1="40" x2="65" y2="40" stroke="black" stroke-width="4"/>
  <circle cx="25" cy="40" r="5" stroke="black" fill="none"/>
  <circle cx="65" cy="40" r="5" stroke="black" fill="none"/>

  <!-- Legs -->
  <line x1="35" y1="70" x2="35" y2="90" stroke="black" stroke-width="4"/>
  <circle cx="35" cy="90" r="5" stroke="black" fill="none"/>

  <!-- Wings (irregular curves) -->
  <path d="M10,70 Q20,60 30,70 Q20,80 10,90" stroke="purple" stroke-width="2"/>
  <path d="M90,70 Q80,60 70,70 Q80,80 90,90" stroke="purple" stroke-width="2"/>

</svg>