<svg xmlns="http://www.w3.org/2000/svg" viewBox="0 0 500 600" style="isolation:isolate">

<!-- Fairy body -->
<path d="M175,50 A80,80 0 1,0 250,50 A80,80 0 1,0 175,230 Q160,310 175,410 Q190,310 175,470 Q190,370 175,410 Z" fill="#008000"/>

<!-- Fairy head -->
<circle cx="175" cy="260" r="30" fill="#008000"/>
<path d="M175,230 Q190,260 175,290 Q160,260 175,230 Z" stroke="#CD7F32" stroke-width="5"/>

<!-- Fairy hair -->
<path d="M160,200 C160,140 200,140 200,200 Q200,180 220,200 H160 Z" fill="#9C27B0"/>
<path d="M165,230 C165,170 215,170 215,230 Q215,210 235,230 H165 Z" fill="#9C27B0"/>

<!-- Fairy wings -->
<path d="M180,430 Q210,390 240,430 Q210,470 180,430 Q150,470 120,430 Z" fill="#2196F3"/>
<path d="M180,430 Q210,450 240,430 Q210,390 180,430 Q150,390 120,430 Z" stroke="#CD7F32" stroke-width="5"/>

<!-- Fairy dress -->
<path d="M160,470 Q240,470 240,510 Q160,510 160,470 Z" fill="#008000"/>
<path d="M160,510 Q240,510 240,550 Q160,550 160,510 Z" stroke="#CD7F32" stroke-width="5"/>

<!-- Fairy shoes -->
<rect x="140" y="550" width="20" height="40" fill="#CD7F32"/>
<rect x="190" y="550" width="20" height="40" fill="#CD7F32"/>

<!-- Fairy hands -->
<circle cx="160" cy="360" r="20" stroke="#CD7F32" stroke-width="5"/>
<circle cx="190" cy="360" r="20" stroke="#CD7F32" stroke-width="5"/>

<!-- Fairy eyes -->
<circle cx="165" cy="250" r="5" fill="#FFFFFF"/>
<circle cx="185" cy="250" r="5" fill="#FFFFFF"/>

<!-- Fairy mouth -->
<path d="M175,295 Q165,310 175,325 Q185,310 175,295 Z" stroke="#CD7F32" stroke-width="5"/>

</svg>