<svg width="500" height="600" xmlns="http://www.w3.org/2000/svg">
  <!-- Background -->
  <rect width="100%" height="100%" fill="#F8F9FA"/>

  <!-- Fairy body (main pane) -->
  <g id="fairy-body" transform="translate(250, 400)">
    <path d="M-60 -130 A70 70 0 0 0 60 -130 A70 70 0 0 0 -60 130 Z" fill="#FFC3A0"/>
    <path d="M0 -25 Q-40 -80 0 -160 Q40 -80 0 -95 Z" stroke="#E74C3C" stroke-width="10"/>

    <!-- Fairy wings (organic patterns) -->
    <g transform="translate(0, -200)">
      <path d="M-80 -80 Q-160 -160 0 -240 Q160 -160 -80 -80 Z" fill="#58D68D"/>
      <path d="M-80 80 Q-160 0 0 160 Q160 0 -80 80 Z" fill="#9B5DE5"/>
    </g>
  </g>

  <!-- Fairy hair (geometric pattern) -->
  <g id="fairy-hair" transform="translate(250, 320)">
    <rect width="100%" height="40" fill="#3D9970"/>
    <polygon points="-50,0 50,0 -50,-40" fill="#FFF" stroke="#3D9970" stroke-width="2"/>
  </g>

  <!-- Fairy face (main pane) -->
  <circle cx="250" cy="320" r="80" fill="#FF6F61">
    <circle cx="250" cy="320" r="70" stroke="#FFF" stroke-width="10"/>
    <ellipse cx="240" cy="300" rx="20" ry="30" fill="#FFF"/>
    <ellipse cx="260" cy="300" rx="20" ry="30" fill="#FFF"/>
  </circle>

  <!-- Fairy arms (organic patterns) -->
  <g transform="translate(210, 450)">
    <path d="M0 -80 Q-80 -160 0 -240 Q80 -160 0 -80 Z" fill="#FFC3A0"/>
    <path d="M0 -20 Q-80 0 0 -80 Q80 0 0 -20 Z" stroke="#E74C3C" stroke-width="10"/>
  </g>

  <!-- Fairy legs (geometric pattern) -->
  <g transform="translate(250, 560)">
    <rect width="100%" height="80" fill="#FF6F61"/>
    <polygon points="-30,-40 30,-40 -30,-120 30,-120" fill="#FFF" stroke="#FF6F61" stroke-width="10"/>
  </g>
</svg>