<svg width="500" height="500" viewBox="0 0 500 500" xmlns="http://www.w3.org/2000/svg">

<!-- Background -->
<rect x="0" y="0" width="500" height="500" fill="#1C3A62"/>

<!-- Fairy body -->
<path d="M250 125 Q275 85, 300 125 Q275 165, 250 200 Q225 165, 200 125" fill="#7B48D9"/>
<path d="M250 200 Q235 225, 250 250 Q265 225, 250 200" fill="#E5007A"/>

<!-- Fairy hair -->
<path d="M245 125 C240 80, 230 60, 220 80 L190 125 H180 Q190 135, 200 125" stroke="#C0C0C0"/>
<path d="M255 125 C260 80, 270 60, 280 80 L290 125 H300 Q290 135, 280 125" stroke="#C0C0C0"/>

<!-- Fairy wings -->
<path d="M240 75 Q260 50, 280 75 Q260 100, 240 75 A30 30 0 0 0 210 75 Q230 50, 210 75" fill="#00FFFF"/>
<path d="M280 75 Q300 50, 320 75 Q300 100, 280 75 A30 30 0 0 1 340 75 Q320 50, 340 75" fill="#00FFFF"/>

<!-- Fairy dress -->
<path d="M250 275 Q260 300, 280 325 L290 325 H310 Q290 340, 270 325" fill="#CD7F32"/>
<path d="M250 325 Q260 350, 280 375 L290 375 H310 Q290 360, 270 375" fill="#CD7F32"/>

<!-- Fairy face -->
<circle cx="250" cy="140" r="35" stroke="#C0C0C0"/>
<path d="M245 175 Q255 185, 265 195 Q275 185, 265 175" stroke="#C0C0C0"/>

<!-- Fairy arms -->
<path d="M230 225 Q240 240, 250 250 Q240 260, 230 250"/>
<path d="M270 225 Q260 240, 250 250 Q260 260, 270 250"/>

<!-- Fairy legs -->
<path d="M240 380 Q250 400, 260 410 Q250 420, 240 410"/>
<path d="M260 410 Q270 400, 280 390 Q270 380, 260 390"/>

</svg>