<svg>` canvas:

```xml
<svg width="100%" height="100%" xmlns="http://www.w3.org/2000/svg" version="1.1">
```

For this creation, I'll use separate SVG elements for each section of the fairy to keep things organized and make edits easier if needed.

Let's start with the body. We can create a simple ellipse for the body:

```xml
<ellipse cx="50%" cy="80%" rx="30" ry="40" fill="lightblue"/>
```

Next, let's add the head. We'll use another ellipse, but this time we'll make it smaller and more circular:

```xml
<ellipse cx="50%" cy="60%" rx="20" ry="20" fill="lightblue"/>
```

Now, let's add some arms using rectangles:

```xml
<rect x="30%" y="70%" width="10" height="40" fill="lightblue"/>
<rect x="70%" y="70%" width="10" height="40" fill="lightblue"/>
```

For the legs, we'll use two more rectangles:

```xml
<rect x="35%" y="90%" width="10" height="20" fill="lightblue"/>
<rect x="65%" y="90%" width="10" height="20" fill="lightblue"/>
```

Let's add some hair using a path element:

```xml
<path d="M40,30 Q60,10 80,30" stroke="black" fill="transparent"/>
```

Finally, let's add a dress using a rectangle and a triangle for the hem:

```xml
<rect x="40%" y="85%" width="20%" height="30%" fill="pink"/>
<polygon points="60%,115% 70%,125% 80%,115%" fill="pink"/>
```

Here's the complete SVG so far:

```xml
<svg width="100%" height="100%" xmlns="http://www.w3.org/2000/svg" version="1.1">
  <ellipse cx="50%" cy="80%" rx="30" ry="40" fill="lightblue"/>
  <ellipse cx="50%" cy="60%" rx="20" ry="20" fill="lightblue"/>
  <rect x="30%" y="70%" width="10" height="40" fill="lightblue"/>
  <rect x="70%" y="70%" width="10" height="40" fill="lightblue"/>
  <rect x="35%" y="90%" width="10" height="20" fill="lightblue"/>
  <rect x="65%" y="90%" width="10" height="20" fill="lightblue"/>
  <path d="M40,30 Q60,10 80,30" stroke="black" fill="transparent"/>
  <rect x="40%" y="85%" width="20%" height="30%" fill="pink"/>
  <polygon points="60%,115% 70%,125% 80%,115%" fill="pink"/>
</svg>