<svg width="100" height="60" viewBox="0 0 100 60"
xmlns="http://www.w3.org/2000/svg">

<!-- Body -->
<rect x="5" y="15" width="20" height="30" fill="lightpink"/>

<!-- Head -->
<circle cx="-5" cy="30" r="10" fill="lightyellow"/>
<path d="M -20 30 Q -10 40 -5 30 Q 10 40 20 30" stroke="black"/>

<!-- Hair -->
<path d="M -20 25 Q -15 20 -10 25 Q -5 30 -5 35 Z" fill="brown"/>
<path d="M 10 25 Q 15 20 20 25 Q 25 30 25 35 Z" fill="brown"/>

<!-- Wings -->
<ellipse cx="-20" cy="40" rx="10" ry="5" fill="lightgreen"/>
<path d="M -30 35 Q -20 45 -10 35 Q 0 45 10 35 Z"/>
<ellipse cx="20" cy="40" rx="10" ry="5" fill="lightgreen"/>
<path d="M 30 35 Q 20 45 10 35 Q 0 45 -10 35 Z"/>

<!-- Dress -->
<rect x="-12.5" y="-5" width="25" height="40" fill="lightblue"/>
<line x1="-12.5" y1="-5" x2="-12.5" y2="35" stroke="black"/>
<line x1="12.5" y1="-5" x2="12.5" y2="35" stroke="black"/>

</svg>