<svg width="150" height="300" xmlns="http://www.w3.org/2000/svg">
  <!-- Background -->
  <rect width="100%" height="100%" fill="#E9F7ED"/>

  <!-- Fairy Body -->
  <ellipse cx="50" cy="70" rx="30" ry="40" fill="lightpink"/>
  <rect x="45" y="100" width="60" height="80" fill="lightpink"/>
  <rect x="20" y="120" width="30" height="60" fill="lightpink"/>
  <rect x="90" y="120" width="30" height="60" fill="lightpink"/>
  <polygon points="45,170 85,170 65,220" fill="lightpink"/>

  <!-- Fairy Wings -->
  <path d="M20,100 Q35,90 50,110 Q65,90 80,100 L90,140 Z" stroke="black" fill="#D6EAF5"/>
  <path d="M90,100 Q75,90 65,110 Q55,90 40,100 L20,140 Z" stroke="black" fill="#D6EAF5"/>

  <!-- Fairy Hair -->
  <polyline points="35,60 40,70 45,65 50,75 55,60" stroke="brown" fill="transparent"/>
  <polyline points="65,60 60,70 55,65 50,75 45,60" stroke="brown" fill="transparent"/>

  <!-- Fairy Clothing -->
  <path d="M35,200 Q45,210 55,220 Q65,210 75,200 L90,250 Z" stroke="black" fill="#F8D7AA"/>
  <rect x="40" y="270" width="70" height="10" fill="#F8D7AA"/>

  <!-- Fairy Details -->
  <circle cx="45" cy="80" r="5"/>
  <circle cx="65" cy="80" r="5"/>
  <path d="M45,90 Q50,100 60,90"/>

</svg>