<svg width="500" height="600" xmlns="http://www.w3.org/2000/svg">
  <!-- Background -->
  <rect width="100%" height="100%" fill="#f8f9fa"/>

  <!-- Fairy body (main pane) -->
  <path d="M50,100 Q150,75 250,100 Q150,125 50,100" fill="#ff6347"/>
  <circle cx="150" cy="150" r="75" fill="#ffb69d"/>

  <!-- Fairy wings (organic patterns) -->
  <path d="M300,50 Q375,125 450,50 A75,75 0 0 1 300,200 A75,75 0 0 1 150,50 Z" fill="#9acd32"/>
  <path d="M350,175 Q425,250 500,175 A50,50 0 0 1 400,225 A50,50 0 0 1 350,175 Z" fill="#8dc63f"/>

  <!-- Fairy hair (geometric pattern) -->
  <polygon points="100,75 150,50 200,75" fill="#ffa500"/>
  <polygon points="90,85 140,60 190,85" fill="#ffa500"/>

  <!-- Fairy face (main pane) -->
  <circle cx="150" cy="75" r="25" fill="#ffffff"/>
  <path d="M135,100 Q145,110 155,100 Q145,90 135,100" stroke="#000000" fill="transparent"/>

  <!-- Fairy dress (geometric pattern) -->
  <rect x="75" y="225" width="250" height="100" fill="#ff69b4"/>
  <path d="M75,325 L100,275 L225,275 L250,325 Z" stroke="#ff00ff" fill="transparent"/>

  <!-- Fairy shoes (geometric pattern) -->
  <polygon points="125,400 175,400 150,450" fill="#00bfff"/>
  <polygon points="135,410 165,410 150,420" fill="#00bfff"/>

</svg>