<svg>` tag.

Let's use a color palette inspired by nature: blues for the sky and water, greens for the forest, purples for the sunset, and golds for the magical glow. We'll use broad strokes for the background and delicate lines for the intricate details of the fairy.

Here's how you might create this in SVG:

```svg
<svg width="100%" height="100%" xmlns="http://www.w3.org/2000/svg" viewBox="0 0 800 600">
  <!-- Background -->
  <rect x="0" y="0" width="100%" height="100%" fill="lightblue"/>

  <!-- Sky and Sunset -->
  <linearGradient id="sunsetGrad" gradientTransform="rotate(90)">
    <stop offset="0%" stop-color="#87CEEB"/>
    <stop offset="50%" stop-color="#FF6347"/>
    <stop offset="100%" stop-color="#FFA500"/>
  </linearGradient>
  <rect x="0" y="0" width="100%" height="200" fill="url(#sunsetGrad)"/>

  <!-- Forest -->
  <rect x="0" y="400" width="100%" height="200" fill="#3D9970"/>
  <path d="M0,500 Q200,450 400,500 Q600,550 800,500" stroke-width="10" stroke="#3D9970"/>

  <!-- Fairy's Body -->
  <circle cx="400" cy="250" r="50" fill="#FFF" stroke-width="5" stroke="#FFF"/>
  <path d="M400,250 Q350,180 400,120 Q450,180 400,250" stroke-width="2" stroke="#FFF"/>

  <!-- Fairy's Hair -->
  <path d="M375,190 C360,170 420,170 405,190 C390,210 430,210 405,190" stroke-width="1" stroke="#FFF"/>

  <!-- Fairy's Wings -->
  <path d="M380,260 Q350,300 400,320 Q450,300 420,260" stroke-width="1" stroke="#FFF"/>
</svg>