<svg width="500" height="500" xmlns="http://www.w3.org/2000/svg" style="background-color: #E9EBF2;">

  <!-- Gradient definition -->
  <defs>
    <linearGradient id="blueGradient" x1="0%" y1="0%" x2="100%" y2="100%">
      <stop offset="0%" style="stop-color:#81D4F3" />
      <stop offset="100%" style="stop-color:#2E7BB0" />
    </linearGradient>
  </defs>

  <!-- Fairy's body -->
  <ellipse cx="150" cy="250" rx="90" ry="120" fill="#81D4F3">
    <animate attributeName="fill-opacity" values=".7;1;.7" dur="1s" repeatCount="indefinite"/>
  </ellipse>

  <!-- Fairy's head -->
  <circle cx="150" cy="220" r="40" fill="#FF69B4">
    <animate attributeName="r" values="40;30;40" dur="1s" repeatCount="indefinite"/>
  </circle>

  <!-- Fairy's eyes -->
  <circle cx="135" cy="215" r="5" fill="#FFFFFF"/>
  <circle cx="165" cy="215" r="5" fill="#FFFFFF"/>

  <!-- Fairy's hair (gold stars) -->
  <polygon points="140,200 170,200 155,180" fill="#CD7F32"/>
  <polygon points="125,190 165,190 145,165" fill="#CD7F32"/>

  <!-- Fairy's wings -->
  <path d="M120,280 Q140,310 160,280 T180,280 Q160,310 140,280" fill="url(#blueGradient)" stroke="#CD7F32" stroke-width="5"/>
  <path d="M125,290 L165,290 Z" fill="#FF69B4"/>

  <!-- Fairy's dress -->
  <polygon points="120,320 180,320 150,370" fill="#81D4F3"/>
  <line x1="120" y1="320" x2="120" y2="370" stroke="#CD7F32" stroke-width="5"/>
  <line x1="180" y1="320" x2="180" y2="370" stroke="#CD7F32" stroke-width="5"/>

</svg>