<svg xmlns="http://www.w3.org/2000/svg" viewBox="0 0 150 150">

  <!-- Mushroom Cap -->
  <path d="M75,50 a50,50 0 1,0 100,0 a50,50 0 1,0 -100,0" fill="#FFF8DC"/>
  <linearGradient id="mushroomGrad" x1="0%" y1="0%" x2="100%" y2="100%">
    <stop offset="0%" style="stop-color:#FFF8DC;stop-opacity:1" />
    <stop offset="100%" style="stop-color:#F5DEB3;stop-opacity:1" />
  </linearGradient>
  <path d="M75,50 a50,50 0 1,0 100,0 a50,50 0 1,0 -100,0" fill="url(#mushroomGrad)" />

  <!-- Mushroom Stem -->
  <circle cx="75" cy="85" r="15" fill="#B22222"/>

  <!-- Fairy Head -->
  <circle cx="20" cy="65" r="15" fill="#FFF"/>
  <path d="M13,55 Q14.5,75 18,90 Q15,75 21,55" stroke="#000" fill="transparent"/>

  <!-- Fairy Body -->
  <circle cx="20" cy="80" r="20" fill="#FAA"/>
  <path d="M13,85 Q14.5,105 18,120 Q15,105 21,85" stroke="#000" fill="transparent"/>

  <!-- Fairy Wings -->
  <ellipse cx="27" cy="75" rx="15" ry="30" fill="#FAA"/>
  <ellipse cx="13" cy="75" rx="15" ry="30" fill="#FAA"/>

  <!-- Fairy Dress -->
  <path d="M18,95 Q20,115 22,95" stroke="#000" fill="transparent"/>

  <!-- Wand Stick -->
  <rect x="40" y="75" width="10" height="30" fill="#FFD700"/>
  <rect x="40" y="105" width="10" height="20" fill="#FFF"/>

  <!-- Fairy Arms -->
  <path d="M26,80 Q35,90 40,80" stroke="#000" fill="transparent"/>
  <path d="M26,95 Q35,105 40,95" stroke="#000" fill="transparent"/>

</svg>