<svg>` element with a width and height suitable for our creation:

```xml
<svg viewBox="0 0 500 600" xmlns="http://www.w3.org/2000/svg">
```

Now, let's create the body. We'll use an ellipse for the body shape:

```xml
<ellipse cx="250" cy="400" rx="150" ry="200" fill="lightblue"/>
```

Next, we'll create the head using a circle:

```xml
<circle cx="250" cy="300" r="75" fill="lightpink"/>
```

For the wings, we'll use two separate polygons for simplicity. We can adjust their points to give them a feather-like appearance:

```xml
<polygon points="400,200 450,150 500,200 475,275 400,350 325,275" fill="lightgreen"/>
<polygon points="100,200 50,150 0,200 25,275 100,350 65,275" fill="lightgreen"/>
```

Finally, let's add some details like the hair using a path element:

```xml
<path d="M225,250 Q250,225 275,250 T300,225 Z" stroke="black" fill="transparent"/>
```

Here's the complete SVG code for our fairy:

```xml
<svg viewBox="0 0 500 600" xmlns="http://www.w3.org/2000/svg">
  <ellipse cx="250" cy="400" rx="150" ry="200" fill="lightblue"/>
  <circle cx="250" cy="300" r="75" fill="lightpink"/>
  <polygon points="400,200 450,150 500,200 475,275 400,350 325,275" fill="lightgreen"/>
  <polygon points="100,200 50,150 0,200 25,275 100,350 65,275" fill="lightgreen"/>
  <path d="M225,250 Q250,225 275,250 T300,225 Z" stroke="black" fill="transparent"/>
</svg>