<svg width="100" height="200" xmlns="http://www.w3.org/2000/svg">

  <!-- Fairy Body -->
  <path d="M50 20 Q90 60 50 100 Q10 60 50 20" fill="lightblue"/>

  <!-- Fairy Hair -->
  <polygon points="30,40 70,40 50,80" fill="brown"/>
  <circle cx="50" cy="90" r="10" fill="brown"/>

  <!-- Fairy Wings -->
  <path d="M20 60 Q40 80 60 100 Q80 80 100 60" stroke="purple" fill="transparent"/>
  <path d="M30 70 Q50 90 70 70 Q90 90 70 70"/>

  <!-- Fairy Clothing -->
  <rect x="40" y="120" width="20" height="60" fill="lightgreen"/>
  <path d="M45 180 Q65 170 85 180" stroke="black" fill="transparent"/>

  <!-- Fairy Face -->
  <circle cx="50" cy="45" r="25" fill="white"/>
  <circle cx="50" cy="35" r="5" fill="black"/>
  <circle cx="45" cy="50" r="3" fill="black"/>
  <circle cx="55" cy="50" r="3" fill="black"/>

</svg>