<svg width="200" height="250" xmlns="http://www.w3.org/2000/svg">

  <!-- Fairy Body -->
  <path d="M100 50 Q150 75, 200 100 Q150 125, 100 150 Q50 125, 0 100 Q50 75, 100 50"
        stroke="pink" stroke-width="4" fill="transparent"/>

  <!-- Fairy Wings -->
  <path d="M90 30 Q110 60, 140 60 Q170 20, 190 50 Q170 80, 140 110 Q110 100, 90 80"
        stroke="lightblue" stroke-width="3" fill="transparent"/>

  <!-- Fairy Hair -->
  <path d="M100 25 Q120 60, 170 40 Q130 70, 90 35 Q80 60, 100 30"
        stroke="darkblue" stroke-width="2" fill="transparent"/>

  <!-- Fairy Face -->
  <circle cx="100" cy="100" r="20" stroke="black" stroke-width="2" fill="white"/>
  <circle cx="90" cy="95" r="3" stroke="black" fill="black"/>
  <circle cx="110" cy="95" r="3" stroke="black" fill="black"/>

</svg>