<svg xmlns="http://www.w3.org/2000/svg" viewBox="0 0 24 28">
  <!-- Fairy Body -->
  <path d="M12,26 A10,10 0 1,0 12,16 A10,10 0 1,0 12,26" fill="lightgoldenrodyellow"/>

  <!-- Fairy Hair -->
  <polygon points="9,8 14,5 19,8" fill="black"/>
  <polygon points="13,2 17,2 15,10" fill="black"/>

  <!-- Fairy Wings -->
  <path d="M6,12 Q10,14 14,12 Q10,10 6,10 Z" fill="lightgreen"/>
  <path d="M7,9 L8.5,10.5 L10,9" stroke="black"/>

  <!-- Fairy Clothing -->
  <rect x="3" y="14" width="18" height="12" rx="6" fill="pink"/>
  <circle cx="12" cy="22" r="3" fill="darkred"/>

  <!-- Fairy Face -->
  <circle cx="12" cy="15" r="7" fill="white"/>
  <circle cx="10" cy="14" r="1" fill="black"/>
  <circle cx="14" cy="14" r="1" fill="black"/>
</svg>