<svg xmlns="http://www.w3.org/2000/svg" viewBox="0 0 600 800">
  <!-- Body -->
  <path d="M300,250 Q350,150 400,250 Q350,350 300,450 Q250,350 200,250" fill="#F7D9AA" stroke="#000" stroke-width="3"/>

  <!-- Clothes (top) -->
  <path d="M180,150 Q250,100 320,150 L400,250 Q320,350 250,300 Q180,350 100,250" fill="#FFB6C1" stroke="#000" stroke-width="3"/>

  <!-- Clothes (bottom) -->
  <path d="M180,450 Q250,500 320,450 L400,350 Q320,300 250,350 Q180,300 100,350" fill="#87CEFA" stroke="#000" stroke-width="3"/>

  <!-- Wings -->
  <defs>
    <linearGradient id="grad" x1="0%" y1="0%" x2="100%" y2="100%">
      <stop offset="0%" style="stop-color:#FFD700;stop-opacity:1"/>
      <stop offset="100%" style="stop-color:#F78DA7;stop-opacity:1"/>
    </linearGradient>
  </defs>
  <path d="M250,300 Q200,400 250,450 Q300,400 250,350" fill="url(#grad)" stroke="#000" stroke-width="3"/>

  <!-- Hair -->
  <path d="M180,100 Q250,50 320,100 L400,150 Q320,150 250,200 Q180,150 100,200" fill="none" stroke="#38200C" stroke-width="1"/>

  <!-- Outline -->
  <path d="M180,100 Q250,50 320,100 L400,150 Q320,150 250,200 Q180,150 100,200 M300,250 Q350,150 400,250 Q350,350 300,450 Q250,350 200,250" fill="none" stroke="#000" stroke-width="1"/>
</svg>