<svg width="200" height="200" xmlns="http://www.w3.org/2000/svg">

  <!-- Body -->
  <path d="M50,100 h100 v-80 H75 A40,40 0 1 0 50,20 Z"
        stroke="#6B459D" stroke-width="3" fill="none"/>

  <!-- Arms -->
  <path d="M50,30 Q80,10 100,30"
        stroke="#6B459D" stroke-width="2" fill="none"/>
  <path d="M150,30 Q120,10 100,30"
        stroke="#6B459D" stroke-width="2" fill="none"/>

  <!-- Hair -->
  <path d="M50,20 Q70,10 90,20 Q70,30 50,20"
        stroke="#F8C5A4" stroke-width="2.5" fill="none"/>
  <path d="M150,20 Q130,10 110,20 Q130,30 150,20"
        stroke="#F8C5A4" stroke-width="2.5" fill="none"/>

  <!-- Wings -->
  <path d="M60,70 Q90,100 120,70 Q90,40 60,70"
        stroke="#FFDAB9" stroke-width="3" fill="none"/>
  <path d="M140,70 Q110,100 80,70 Q110,40 140,70"
        stroke="#FFDAB9" stroke-width="3" fill="none"/>

</svg>