<svg width="200" height="300" xmlns="http://www.w3.org/2000/svg"
    xmlns:xlink="http://www.w3.org/1999/xlink" version="1.1">
  <!-- Fairy body -->
  <path id="fairyBody" d="M100,5 Q90,70 120,70 Q130,40 150,70 T280,70"
        fill="#FFD700" stroke="black" stroke-width="2"/>

  <!-- Fairy hair -->
  <path id="fairyHair" d="M90,40 L160,20 Q180,30 150,40 Z"
        fill="#FFFFFF" stroke="black" stroke-width="1"/>

  <!-- Fairy wings (left) -->
  <polygon id="wingLeft" points="70,60 90,20 90,100"
           fill="#8B4513" stroke="black" stroke-width="1"/>

  <!-- Fairy wings (right) -->
  <polygon id="wingRight" points="130,60 110,20 110,100"
           fill="#8B4513" stroke="black" stroke-width="1"/>

  <!-- Fairy dress -->
  <path id="fairyDress" d="M100,70 Q90,150 120,150 Q130,90 150,150"
        fill="#48CAE4" stroke="black" stroke-width="2"/>

  <!-- Fairy legs -->
  <path id="fairyLegs" d="M100,170 Q90,180 120,180 Q130,170 150,180"
        fill="#FFD700" stroke="black" stroke-width="2"/>

  <!-- Fairy eyes -->
  <circle id="fairyEyeLeft" cx="95" cy="45" r="5" fill="#FFFFFF"/>
  <circle id="fairyEyeRight" cx="135" cy="45" r="5" fill="#FFFFFF"/>

  <!-- Fairy mouth -->
  <path id="fairyMouth" d="M100,55 Q95,60 105,60 Q110,55 115,60"
        stroke="black" stroke-width="2"/>

  <!-- Fairy crown (gemstones) -->
  <circle id="gemstone1" cx="125" cy="30" r="4" fill="#800080"/>
  <circle id="gemstone2" cx="105" cy="35" r="3.5" fill="#00FFFF"/>
  <circle id="gemstone3" cx="145" cy="35" r="3.5" fill="#00FFFF"/>

</svg>