<svg xmlns="http://www.w3.org/2000/svg" viewBox="-50 -100 100 200">
  <!-- Body -->
  <ellipse cx="0" cy="70" rx="40" ry="60"
           fill="#FFFDEE" stroke="#FBB034" stroke-width="2"/>

  <!-- Head -->
  <circle cx="0" cy="-5" r="10"
          fill="#FFFDEE" stroke="#FBB034" stroke-width="2"/>

  <!-- Hair -->
  <path d="M -5 0 Q 15 -30, 50 -20 Q 80 0, 60 30"
        fill="transparent" stroke="#8B4513" stroke-width="5"/>

  <!-- Arms -->
  <rect x="-15" y="50" width="10" height="30" rx="5"
        fill="#FFFDEE" stroke="#FBB034" stroke-width="2"/>
  <rect x="10" y="50" width="10" height="30" rx="5"
        fill="#FFFDEE" stroke="#FBB034" stroke-width="2"/>

  <!-- Wings -->
  <path d="M -40 20 Q -60 70, -40 120 Q -20 70, 0 80"
        fill="#FFFDEE" stroke="#FBB034" stroke-width="2"/>
  <path d="M 40 20 Q 60 70, 40 120 Q 20 70, 0 80"
        fill="#FFFDEE" stroke="#FBB034" stroke-width="2"/>

  <!-- Dress -->
  <path d="M -50 90 Q -20 130, 0 160 Q 20 130, 50 90"
        fill="#FFC1CC" stroke="#FBB034" stroke-width="2"/>

  <!-- Legs -->
  <path d="M -5 80 L 0 120 L 5 80"
        fill="transparent" stroke="#FBB034" stroke-width="2"/>
</svg>