<svg xmlns="http://www.w3.org/2000/svg" viewBox="-50 -100 600 400">

<!-- Neck -->
<rect x="-40" y="-80" width="80" height="160" fill="#FDD79C" opacity="0.8"/>
<path d="M-30,-20 Q5,20 -30,60" stroke="black" stroke-width="10" fill-opacity="0"/>

<!-- Body -->
<rect x="-80" y="-140" width="160" height="280" rx="30" ry="30" fill="#FDD79C"/>
<path d="M-70,-100 Q50,50 -70,120" stroke="black" stroke-width="10" fill-opacity="0"/>

<!-- Legs -->
<rect x="-120" y="-40" width="40" height="160" rx="20" ry="20" fill="#FDD79C"/>
<rect x="80" y="-40" width="40" height="160" rx="20" ry="20" fill="#FDD79C"/>

<!-- Head -->
<circle cx="0" cy="-150" r="100" fill="#FDD79C"/>
<path d="M-80,-140 Q0,-170 80,-140" stroke="black" stroke-width="10" fill-opacity="0"/>

<!-- Horns -->
<circle cx="-20" cy="-130" r="15" fill="#966F33"/>
<circle cx="20" cy="-130" r="15" fill="#966F33"/>

<!-- Eyes -->
<circle cx="-40" cy="-140" r="10" fill="white"/>
<circle cx="40" cy="-140" r="10" fill="white"/>
<circle cx="-40" cy="-140" r="5" fill="black"/>
<circle cx="40" cy="-140" r="5" fill="black"/>

<!-- Mane -->
<path d="M-80,-70 Q-30,-60 0,-70 T80,-70 Q30,-60 -80,-70 Z" stroke="#966F33" stroke-width="10" fill-opacity="0"/>

<!-- Shadows and highlights -->
<defs>
    <linearGradient id="grad" x1="0%" y1="0%" x2="100%" y2="100%">
        <stop offset="0%" style="stop-color:rgb(255,255,255);stop-opacity:0"/>
        <stop offset="100%" style="stop-color:rgb(255,255,255);stop-opacity:0.7"/>
    </linearGradient>
</defs>
<rect x="-80" y="-140" width="160" height="280" rx="30" ry="30" fill="url(#grad)"/>

</svg>