<svg xmlns="http://www.w3.org/2000/svg" viewBox="-50 -100 700 600">

  <!-- Neck -->
  <path d="M-20,-80 C-20,-40 50,-40 50,-80" stroke="#333" fill="none"/>
  <path d="M50,-80 Q100,-60 150,-80 Q200,-100 250,-80" stroke="#333" fill="none"/>

  <!-- Body -->
  <rect x="-40" y="-90" width="80" height="150" rx="30" fill="#F5DEB3"/>
  <linearGradient id="grad1" x1="0%" y1="0%" x2="100%" y2="0%">
    <stop offset="0%" style="stop-color:rgb(245,222,179);stop-opacity:1" />
    <stop offset="100%" style="stop-color:rgb(220,187,136);stop-opacity:.8" />
  </linearGradient>
  <rect x="-40" y="-90" width="80" height="150" rx="30" fill="url(#grad1)" stroke="#333"/>

  <!-- Head -->
  <circle cx="270" cy="-60" r="60" fill="#FEF4DB"/>
  <linearGradient id="grad2" x1="0%" y1="0%" x2="100%" y2="0%">
    <stop offset="0%" style="stop-color:rgb(254,244,219);stop-opacity:1" />
    <stop offset="100%" style="stop-color:rgb(230,217,186);stop-opacity:.8" />
  </linearGradient>
  <circle cx="270" cy="-60" r="60" fill="url(#grad2)" stroke="#333"/>
  <path d="M270,-45 Q310,-30 270,-15 Q230,-30 270,-45" stroke="#333" fill="none"/>

  <!-- Legs -->
  <rect x="-60" y="-140" width="20" height="180" rx="10" fill="#9B7D69"/>
  <linearGradient id="grad3" x1="0%" y1="0%" x2="100%" y2="0%">
    <stop offset="0%" style="stop-color:rgb(155,125,105);stop-opacity:1" />
    <stop offset="100%" style="stop-color:rgb(73,64,54);stop-opacity:.8" />
  </linearGradient>
  <rect x="-60" y="-140" width="20" height="180" rx="10" fill="url(#grad3)" stroke="#333"/>
  <!-- Repeat the above shape for other three legs -->

  <!-- Shadows -->
  <rect x="-50" y="-95" width="100" height="160" rx="40" fill="black" opacity=".2"/>
  <path d="M-20,-80 Q30,-70 140,-80" stroke="black" stroke-opacity=".2" fill="none"/>

</svg>