<svg xmlns="http://www.w3.org/2000/svg" viewBox="0 0 800 600">

  <!-- Background -->
  <rect width="100%" height="100%" fill="#90E050" />

  <!-- Rolling Hills -->
  <path d="M10,30 Q200,70 400,30 Q600,70 800,30 H820 V600 H0 Z"
        fill="#C6E2A5" />

  <!-- River -->
  <path d="M10,570 Q200,540 400,570 Q600,540 800,570"
        stroke="#3D9970" stroke-width="10" fill="transparent" />

  <!-- Trees -->
  <g transform="translate(100, 200)">
    <circle cx="0" cy="0" r="40" fill="#8B5C26"/>
    <rect width="80" height="100" x="-40" y="-100" fill="#3D9970" />
  </g>

  <!-- Giraffe -->
  <g transform="translate(400, 150)">
    <path d="M20,0 L20,80 A60,60 0 0 0 80,80 L140,200 Q170,180 200,200 Z"
          fill="#FDD95B" />
    <path d="M100,120 L160,120 Q180,130 200,140 A60,60 0 0 1 100,140 Z"
          fill="#FFFFFF" stroke="#9C7E5B" stroke-width="5"/>
    <circle cx="150" cy="80" r="30" fill="#FFFFFF" />
    <path d="M120,60 Q150,80 180,60" stroke="#9C7E5B" stroke-width="5"/>
    <circle cx="150" cy="400" r="30" fill="#FFFFFF"/>
    <path d="M120,380 Q150,400 180,380" stroke="#9C7E5B" stroke-width="5"/>
  </g>

</svg>