<svg width="800" height="600" xmlns="http://www.w3.org/2000/svg">

<!-- Background gradient -->
<defs>
  <linearGradient id="bgGradient" x1="0%" y1="0%" x2="0%" y2="100%">
    <stop offset="0%" style="stop-color:rgb(195,237,248);stop-opacity:1" />
    <stop offset="100%" style="stop-color:rgb(126,194,226);stop-opacity:1" />
  </linearGradient>
</defs>

<rect width="100%" height="100%" fill="url(#bgGradient)"/>

<!-- Rolling hills -->
<path d="M50,300 Q100,275 150,300 T300,300 Q400,325 500,300 Q600,275 700,300 T900,300"
fill="rgb(84,171,82)" stroke="none"/>

<!-- Winding river -->
<path d="M100,450 Q200,425 300,450 Q400,475 500,450 Q600,425 700,450"
fill="url(#riverGradient)" stroke="none"/>
<defs>
  <linearGradient id="riverGradient" x1="0%" y1="0%" x2="0%" y2="100%">
    <stop offset="0%" style="stop-color:rgb(74,135,216);stop-opacity:1" />
    <stop offset="100%" style="stop-color:rgb(98,164,224);stop-opacity:1" />
  </linearGradient>
</defs>

<!-- Towering trees -->
<circle cx="750" cy="350" r="50" fill="rgb(30,104,46)" stroke="none"/>
<circle cx="780" cy="280" r="40" fill="rgb(129,196,61)" stroke="none"/>
<circle cx="650" cy="320" r="55" fill="rgb(30,104,46)" stroke="none"/>

<!-- Giraffe -->
<g transform="translate(400, 270) rotate(-10)">
  <path d="M-80,-100 L100,-100 A50,50 0 0,1 -80,100 Z"
  fill="rgb(229,214,137)" stroke="black"/>
  <ellipse cx="0" cy="-10" rx="60" ry="50" fill="rgb(240,226,184)"
  stroke="black"/>
  <polygon points="-10,-30 -30,0 -10,30" fill="rgb(179,137,66)" stroke="black"/>
</g>

<!-- Sun -->
<circle cx="750" cy="150" r="40" fill="rgb(255,228,111)"
stroke="orange"/>

</svg>