<svg width="200" height="300" xmlns="http://www.w3.org/2000/svg">

  <!-- Body -->
  <rect x="50" y="50" width="100" height="200" fill="#CD7F32"/>

  <!-- Legs -->
  <ellipse cx="60" cy="280" rx="25" ry="40" fill="#CD7F32"/>
  <ellipse cx="90" cy="280" rx="25" ry="40" fill="#CD7F32"/>
  <ellipse cx="60" cy="310" rx="25" ry="40" fill="#CD7F32"/>
  <ellipse cx="90" cy="310" rx="25" ry="40" fill="#CD7F32"/>

  <!-- Hooves -->
  <circle cx="60" cy="340" r="8" fill="#262626"/>
  <circle cx="90" cy="340" r="8" fill="#262626"/>
  <circle cx="60" cy="370" r="8" fill="#262626"/>
  <circle cx="90" cy="370" r="8" fill="#262626"/>

  <!-- Spots -->
  <circle cx="85" cy="120" r="15" fill="#262626"/>
  <circle cx="65" cy="145" r="10" fill="#262626"/>
  <circle cx="95" cy="170" r="12" fill="#262626"/>

  <!-- Eyes -->
  <circle cx="80" cy="80" r="12" fill="#262626"/>
  <circle cx="100" cy="80" r="12" fill="#262626"/>

  <!-- Mane -->
  <ellipse cx="75" cy="40" rx="20" ry="30" fill="#004E98"/>
  <ellipse cx="85" cy="55" rx="20" ry="30" fill="#004E98"/>
  <ellipse cx="70" cy="65" rx="20" ry="30" fill="#004E98"/>

  <!-- Base -->
  <rect x="0" y="280" width="200" height="20" fill="#D3D3D3"/>

</svg>