<svg xmlns="http://www.w3.org/2000/svg" viewBox="0 0 600 800">

  <!-- Body -->
  <rect x="150" y="300" width="300" height="400" fill="#FFCC99" opacity="0.8"/>
  <path d="M250,700 Q280,650 350,600 Q420,650 450,700" stroke="#663300" fill="none"/>

  <!-- Head -->
  <circle cx="300" cy="150" r="80" fill="#FFCC99"/>
  <path d="M260,150 Q280,100 300,120 Q320,100 340,150" stroke="#663300" fill="none"/>

  <!-- Legs -->
  <rect x="170" y="500" width="20" height="200" fill="#FFCC99"/>
  <path d="M190,500 Q180,600 190,700 Q200,600 190,500"/>

  <rect x="430" y="500" width="20" height="200" fill="#FFCC99"/>
  <path d="M450,500 Q460,600 450,700 Q440,600 450,500"/>

  <!-- Hooves -->
  <circle cx="185" cy="720" r="30"/>
  <circle cx="445" cy="720" r="30"/>

  <!-- Neck Pattern -->
  <path d="M250,620 Q270,640 310,620 Q290,640 330,620" stroke="#996600" fill="none"/>

  <!-- Body Patterns -->
  <path d="M180,520 Q220,570 260,520 Q200,570 140,520"/>
  <path d="M390,520 Q330,570 310,520 Q350,570 410,520"/>

</svg>