<svg width="800" height="600" xmlns="http://www.w3.org/2000/svg">

  <!-- Background -->
  <rect width="100%" height="100%" fill="#E0F7FA"/>

  <!-- Rolling Hills -->
  <path id="hill" d="M 50,50 Q 150,80 300,50 Q 450,120 600,50 Q 750,20 800,50 H 0 Z"
        fill="#90EE90" stroke="none"/>

  <!-- Repeat hills to create terrain -->
  <use href="#hill" y="100"/>
  <use href="#hill" y="200" transform="scale(1.2) translate(-50, -50)"/>

  <!-- River -->
  <path id="river" d="M 150,450 Q 250,550 350,450 Q 450,550 550,450"
        fill="url(#riverGradient)" stroke="#77A3C4"/>

  <!-- River Gradient -->
  <linearGradient id="riverGradient" x1="0%" y1="100%" x2="0%" y2="0%">
    <stop offset="0%" style="stop-color:#BFD5E2; stop-opacity:1"/>
    <stop offset="100%" style="stop-color:#77A3C4; stop-opacity:1"/>
  </linearGradient>

  <!-- Trees -->
  <g id="tree">
    <circle cx="100" cy="300" r="50" fill="#8B7D6B"/>
    <path d="M 100,250 L 100,100 L 150,100 Z" fill="#32CD32"/>
  </g>
  <use href="#tree" x="250" y="280" transform="scale(1.2) rotate(-30)"/>
  <use href="#tree" x="450" y="330" transform="scale(0.9) rotate(20)"/>

  <!-- Giraffe -->
  <path id="giraffe-neck" d="M 400,300 Q 470,180 540,300"
        stroke="#9C661F" fill="none" stroke-width="20"/>
  <circle id="giraffe-head" cx="540" cy="260" r="50" fill="#FFFACD"/>
  <circle id="giraffe-body" cx="470" cy="380" r="80" fill="#FDD9B5"/>

</svg>