<svg width="800" height="600" xmlns="http://www.w3.org/2000/svg">

  <!-- Background -->
  <rect width="100%" height="100%" fill="#FFFFFF"/>

  <!-- Rolling Hills -->
  <path d="M 50,400 Q 250,250 500,400 Q 750,550 800,300" stroke="#66BB6A" fill="none" stroke-width="2"/>
  <path d="M 500,100 Q 250,250 50,400" stroke="#66BB6A" fill="none" stroke-width="2"/>

  <!-- Rivers -->
  <path d="M 100,550 Q 300,600 500,550 Q 700,650 800,550" stroke="#4CAF50" fill="none" stroke-width="2"/>
  <path d="M 100,400 Q 300,350 500,400 Q 700,450 800,400" stroke="#4CAF50" fill="none" stroke-width="2"/>

  <!-- Lake -->
  <path d="M 600,550 A 100,100 0 0 1 700,550 A 100,100 0 0 1 600,450" fill="#8BC34A"/>

  <!-- Giraffe -->
  <g transform="translate(400,200)">
    <!-- Giraffe body and neck -->
    <path d="M 0,-100 Q 100,-50 200,-100" stroke="#BDB76B" fill="#FFFACD"/>
    <!-- Giraffe head -->
    <circle cx="300" cy="-100" r="80" stroke="#BDB76B" fill="#FFFACD"/>
    <!-- Giraffe legs -->
    <path d="M 25,-400 L 25,100 L 50,100 Z" stroke="#BDB76B" fill="#FFFACD"/>
    <path d="M 350,-400 L 350,100 L 400,100 Z" stroke="#BDB76B" fill="#FFFACD"/>
  </g>

  <!-- Trees -->
  <circle cx="200" cy="300" r="80" fill="url(#tree-texture)"/>
  <circle cx="600" cy="350" r="90" fill="url(#tree-texture)"/>

  <!-- Tree texture -->
  <defs>
    <radialGradient id="tree-texture" cx="50%" cy="50%" r="50%" fx="50%" fy="50%">
      <stop offset="0%" style="stop-color:rgb(12,55,38);stop-opacity:1"/>
      <stop offset="100%" style="stop-color:rgb(40,96,63);stop-opacity:1"/>
    </radialGradient>
  </defs>

</svg>