<svg xmlns="http://www.w3.org/2000/svg" viewBox="0 0 800 600">

  <!-- Background -->
  <rect x="0" y="0" width="800" height="600" fill="#FFF7E5"/>

  <!-- Tableware -->
  <circle cx="100" cy="400" r="20" fill="#392F22"/>
  <path d="M80 380 h120 v-80 H80 Z" stroke="#392F22" fill="none"/>

  <!-- Giraffe -->
  <g id="giraffe" transform="translate(150, 200) scale(0.7)">
    <path d="M50 0 L100 80 L120 30 Z" fill="#FFD966"/>
    <path d="M70 40 Q90 20, 120 40 T140 60 Q140 100, 120 120 T80 130 Z" fill="#FFD966"/>
    <path d="M50 170 Q70 150, 90 170 L120 200 Z" fill="#C4B67F"/>
    <circle cx="120" cy="300" r="40" fill="#C4B67F"/>
    <path d="M80 300 Q100 350, 120 300 Z" stroke="#392F22" fill="none"/>
    <circle cx="120" cy="250" r="20" fill="#392F22"/>
  </g>

  <!-- Ingredients -->
  <rect x="400" y="100" width="100" height="100" rx="20" fill="#FFD966"/>
  <path d="M500 200 Q600 250, 700 300 Z" stroke="#392F22" fill="none"/>
  <circle cx="450" cy="350" r="50" fill="#C4B67F"/>
  <rect x="300" y="400" width="100" height="50" rx="25" fill="#FFD966"/>

  <!-- Garnish -->
  <path d="M650 200 Q750 150, 800 200 Z" stroke="#392F22" fill="none"/>
  <circle cx="700" cy="250" r="20" fill="#C4B67F"/>

</svg>