<svg width="500" height="500" xmlns="http://www.w3.org/2000/svg">
  <!-- Background -->
  <rect x="0" y="0" width="100%" height="100%" fill="#FFE6C7"/>

  <!-- Giraffe (Star Ingredient) -->
  <g id="giraffe" transform="translate(250, 300)">
    <!-- Body -->
    <path d="M80,0 H140 V50 A50,50 0 0 0 80,100 Z" fill="#F7941E"/>
    <!-- Neck and Head -->
    <path d="M200,100 Q230,80 260,100 L300,50 A30,30 0 0 1 270,20 Z" fill="#F7941E"/>
    <!-- Legs -->
    <path d="M80,50 H140 V150 H80 Z M60,150 V200 M160,150 V200" stroke="#F7941E" fill="transparent"/>
    <!-- Eyes -->
    <circle cx="230" cy="70" r="10" fill="white"/>
    <circle cx="245" cy="70" r="5" fill="black"/>
  </g>

  <!-- Accompaniments -->

  <!-- Pineapple Garnish -->
  <g transform="translate(150, 350)">
    <path d="M100,0 A50,50 0 1 0 200,50 A50,50 0 1 0 100,100" fill="#FDD83A"/>
    <path d="M150,70 Q160,80 170,70" stroke="#FFC02E" fill="transparent"/>
  </g>

  <!-- Banana Utensil -->
  <g transform="translate(400, 300)">
    <rect x="0" y="0" width="50" height="100" fill="#FFF9D7"/>
    <path d="M25,50 Q35,60 50,50 Q35,40 25,50 Z" stroke="#E8F572" fill="transparent"/>
  </g>

  <!-- Leaf Tableware -->
  <g transform="translate(100, 400)">
    <path d="M0,0 L50,30 Q70,20 90,0 Z" fill="#6DCB86"/>
    <path d="M0,15 L50,45 Q70,60 90,15" fill="#6DCB86"/>
  </g>

</svg>