<svg xmlns="http://www.w3.org/2000/svg" viewBox="0 0 800 600">

  <!-- Background -->
  <rect width="100%" height="100%" fill="#E6E9C4"/>

  <!-- Rolling Hills -->
  <path id="hillPath" d="M0,300 Q200,350 400,300 Q600,250 800,300"/>
  <linearGradient id="hillGradient" x1="0%" y1="0%" x2="100%" y2="100%">
    <stop offset="0%" style="stop-color:#C9DC7F; stop-opacity:1" />
    <stop offset="100%" style="stop-color:#A8C358; stop-opacity:1" />
  </linearGradient>
  <path d="M0,600 Q200,550 400,600 Q600,650 800,600" fill="url(#hillGradient)"/>

  <!-- Winding River -->
  <path id="riverPath" d="M100,550 Q250,530 400,550 Q550,570 700,550"/>
  <linearGradient id="riverGradient" x1="0%" y1="0%" x2="100%" y2="100%">
    <stop offset="0%" style="stop-color:#8EBBEE; stop-opacity:1" />
    <stop offset="100%" style="stop-color:#7D9DB5; stop-opacity:1" />
  </linearGradient>
  <path d="M100,600 Q250,580 400,600 Q550,620 700,600" fill="url(#riverGradient)"/>

  <!-- Towering Trees -->
  <circle cx="350" cy="450" r="150" fill="#7E9772"/>
  <circle cx="450" cy="400" r="120" fill="#6F8C6A"/>

  <!-- Giraffe -->
  <g transform="translate(350, 200) rotate(-15)">
    <!-- Body -->
    <rect x="-100" y="-200" width="200" height="400" fill="#F8E7D5"/>
    <!-- Neck -->
    <path d="M-100,-200 Q0,-150 100,-200" stroke="#B3966A" fill="none" stroke-width="20"/>
    <!-- Head -->
    <circle cx="100" cy="-200" r="80" fill="#F5D7AA"/>
    <!-- Legs -->
    <rect x="-100" y="200" width="200" height="400" fill="none" stroke="#B3966A" stroke-width="20"/>
  </g>

</svg>