<svg xmlns="http://www.w3.org/2000/svg" viewBox="0 0 24 24">
  <!-- Body -->
  <path d="M12,2C6.5,2 2,6.5 2,12c0,5.5 4.5,10 10,10s10-4.5 10-10C22,6.5 17.5,2 12,2z" fill="brown"/>

  <!-- Neck -->
  <path d="M12,8c3.3,0 6,2.7 6,6v4h-12V14c0-3.3 2.7-6 6-6z" fill="tan"/>

  <!-- Head -->
  <circle cx="12" cy="4" r="4" fill="saddleBrown"/>
  <path d="M12,8a4,4 0 0,0 -4,4v2h8V12A4,4 0 0,0 12,8z" fill="gold"/>

  <!-- Legs -->
  <rect x="9" y="16" width="3" height="8" rx="1.5" fill="brown"/>
  <rect x="16" y="16" width="3" height="8" rx="1.5" fill="brown"/>
  <rect x="7" y="20" width="3" height="4" rx="1.5" fill="brown"/>
  <rect x="20" y="20" width="3" height="4" rx="1.5" fill="brown"/>

  <!-- Horns -->
  <path d="M8,6l4,-2h2l4,2h-6z" fill="black"/>
  <path d="M12,10l4,2h2l-4,2H12z" fill="black"/>
</svg>