<svg width="800" height="600" xmlns="http://www.w3.org/2000/svg">

<!-- Background -->
<rect x="0" y="0" width="100%" height="100%" fill="#E5F5E0"/>

<!-- Mountains -->
<path d="M10 140 Q60 80, 180 120 Q320 90, 400 170 Q550 130, 690 220 Q830 190, 890 260 Q990 200, 1000 250" stroke="#4B0082" fill="none" stroke-width="3"/>

<!-- Rivers -->
<path d="M180 360 Q300 470, 460 390 Q620 430, 780 350" stroke="#00BFFF" fill="none" stroke-width="3"/>

<!-- Forests -->
<rect x="10%" y="45%" width="50%" height="30%" fill="#009900"/>
<text x="20%" y="67%" font-size="18" text-anchor="middle">Enchanted Forest</text>

<!-- Giraffe Plains -->
<rect x="25%" y="15%" width="40%" height="30%" fill="#F5DEB3"/>
<text x="37.5%" y="40%" font-size="18" text-anchor="middle">Giraffe Plains</text>
<polygon points="320,260 380,290 320,320 260,290" fill="#FFC0CB"/>
<text x="315" y="300" font-size="24">Giraffes</text>

<!-- City -->
<circle cx="700" cy="300" r="80" stroke="#D6B795" fill="none" stroke-width="3"/>
<polygon points="650,250 750,250 750,350 650,350" fill="#D6B795"/>
<text x="700" y="310" font-size="18" text-anchor="middle">Giraficus City</text>

<!-- Labels -->
<text x="10%" y="10%" font-size="24">Girafficus: The Land of Giraffes</text>

<!-- Legend -->
<rect x="695" y="520" width="80" height="30" fill="#FFC0CB"/>
<text x="705" y="545" font-size="12">Giraffes</text>
<circle cx="790" cy="540" r="6" stroke="#D6B795" fill="none" stroke-width="3"/>
<text x="800" y="545" font-size="12">Cities</text>

</svg>