<svg xmlns="http://www.w3.org/2000/svg" viewBox="-50 -50 100 100">

  <!-- Neck -->
  <path d="M-25,-40 Q-10,-30 10,-40 L30,-30 L25,-40 Z"
        fill="#C69F8A" stroke="#705E3E"/>

  <!-- Body -->
  <rect x="-40" y="-45" width="80" height="80"
        fill="#9EA26D" stroke="#666942"/>

  <!-- Head -->
  <circle cx="-10" cy="-30" r="30"
          fill="#A8978B" stroke="#6C5F54"/>
  <path d="M-10,-30 Q0,-25 10,-30 Z"
        fill="none" stroke="#6C5F54"/>

  <!-- Legs -->
  <rect x="-45 -35" y="-10 -5" width="10" height="70"
        rx="5" ry="5"
        fill="#9EA26D" stroke="#666942"/>
  <rect x="35 45" y="-10 -5" width="10" height="70"
        rx="5" ry="5"
        fill="#9EA26D" stroke="#666942"/>

  <!-- Tail -->
  <path d="M-35,-10 Q-25,0 -35,-10 L-30,-30 Z"
        fill="#9EA26D" stroke="#666942"/>

  <!-- Eyes and spots -->
  <circle cx="-15" cy="-35" r="5"
          fill="#FFFFFF"/>
  <circle cx="5" cy="-35" r="5"
          fill="#FFFFFF"/>
  <circle cx="-20" cy="-20" r="5"
          fill="#9EA26D"/>
  <circle cx="10" cy="-20" r="5"
          fill="#9EA26D"/>

  <!-- Shadows and highlights -->
  <defs>
    <linearGradient id="g1" x1="0%" y1="0%" x2="100%" y2="0%">
      <stop offset="0%" style="stop-color:#7C835B;stop-opacity:1"/>
      <stop offset="100%" style="stop-color:#666942;stop-opacity:1"/>
    </linearGradient>
  </defs>
  <rect x="-50" y="-50" width="100" height="100"
        fill="url(#g1)" opacity="0.3"/>

</svg>