<svg xmlns="http://www.w3.org/2000/svg" viewBox="0 0 800 600">
  <!-- Background -->
  <rect width="100%" height="100%" fill="#FFC107"/>

  <!-- Giraffe -->
  <g transform="translate(150, 120)">
    <path d="M40,30 Q90,80 160,120 Q200,100 250,120" fill="#7CFC00"/>
    <path d="M50,120 V160 H110 V140 Z" fill="#FFB90F"/>
    <path d="M280,30 Q330,80 360,120 Q410,100 450,120" fill="#7CFC00"/>
    <circle cx="370" cy="190" r="15" fill="#FFB90F"/>
    <path d="M280,160 V200 H360 V180 Z" fill="#FFB90F"/>
  </g>

  <!-- Vegetables -->
  <circle cx="400" cy="250" r="50" fill="#66BB6A"/>
  <circle cx="550" cy="250" r="30" fill="#FFC107"/>

  <!-- Fruit Garnish -->
  <circle cx="700" cy="280" r="40" fill="#FF5733"/>
  <path d="M690,230 Q700,240 710,230 Z" fill="#FFC107"/>

  <!-- Utensils -->
  <path d="M600,350 H650 V400 H600 Z" stroke="#333" fill="transparent"/>
  <circle cx="625" cy="375" r="15" stroke="#333" fill="transparent"/>

  <!-- Tableware -->
  <rect x="0" y="500" width="800" height="100" fill="#FFF" rx="5"/>
  <path d="M20,570 Q40,590 60,570 Z" fill="#333"/>

</svg>