<svg width="500" height="500" xmlns="http://www.w3.org/2000/svg">

  <!-- Background -->
  <rect width="100%" height="100%" fill="#FFFFFF"/>

  <!-- Rolling hills -->
  <path d="M0,40 Q50,70 100,40 Q150,100 200,40 Q250,130 300,40 Q350,80 400,40 Q450,150 500,40" fill="#C6E2FF" stroke="none"/>

  <!-- Winding river -->
  <path d="M50,90 Q100,70 150,90 Q200,80 250,90 Q300,70 350,90 Q400,80 450,90" fill="#3876A6" stroke="none"/>

  <!-- Giraffe -->
  <g transform="translate(150, 200) scale(0.5)">
    <path d="M100 0 L150 20 L200 0 L250 80 L300 0 L350 20 L400 0 Z" fill="#F3C697"/>
    <circle cx="225" cy="200" r="150" fill="#F3C697"/>
    <path d="M225 200 L225 50" stroke="#8B4513" stroke-width="10" fill="none"/>
    <circle cx="225" cy="125" r="75" fill="#FFFACD"/>
    <path d="M225 200 L225 50" stroke="#8B4513" stroke-width="5" fill="none"/>
    <circle cx="225" cy="125" r="60" fill="#FFFACD"/>
  </g>

  <!-- Trees -->
  <g transform="translate(75, 325) scale(0.3)">
    <path d="M0 0 L100 0 L50 100 L0 200 Z" fill="#3D9970"/>
    <circle cx="50" cy="150" r="50" stroke="#8B4513" stroke-width="5" fill="none"/>
  </g>

</svg>