<svg width="400" height="600" xmlns="http://www.w3.org/2000/svg">

  <!-- Body -->
  <circle cx="200" cy="400" r="80" fill="#FFA500"/>

  <!-- Legs -->
  <g stroke="black">
    <circle cx="160" cy="470" r="30"/>
    <circle cx="240" cy="470" r="30"/>
    <circle cx="160" cy="540" r="30"/>
    <circle cx="240" cy="540" r="30"/>
  </g>

  <!-- Spots -->
  <g fill="black">
    <!-- Add spot circles here, e.g., <circle cx="185" cy="430" r="5"/> -->
  </g>

  <!-- Head & Neck -->
  <ellipse cx="200" cy="150" rx="50" ry="150" fill="#FFF4E6"/>
  <circle cx="200" cy="75" r="50" fill="#FFF4E6"/>

  <!-- Face outline -->
  <path d="M200,85 C190,75 185,65 180,55 A30,30 0 0 1 220,55 A30,30 0 0 1 240,65 Z" fill="black"/>

  <!-- Eyes -->
  <ellipse cx="180" cy="85" rx="15" ry="22.5" fill="white"/>
  <ellipse cx="220" cy="85" rx="15" ry="22.5" fill="white"/>

  <!-- Mane -->
  <path d="M200,75 Q200,65 190,50 Q210,45 220,50 Q230,65 230,75 Z" fill="#FFBF00"/>

</svg>