<svg xmlns="http://www.w3.org/2000/svg" viewBox="0 0 24 28">
  <!-- Body -->
  <path d="M12,26c-5.5,-1.75 -9,-7.75 -9,-13h18C21,22.25 16.5,27.75 12,26z" fill="#FFD700"/>

  <!-- Neck -->
  <path d="M12,26c-2.2,-4.5 -1,-9.5 -3,-13h8c2,-3.5 5,-3.5 7,0v4z" fill="#FFD700"/>

  <!-- Head -->
  <path d="M13,8c-3,0 -6,3 -6,6s3,6 6,6h2c3,0 6,-3 6,-6v-2c0,-4 -3,-6 -7,-6z" fill="#FFD700"/>

  <!-- Eyes -->
  <circle cx="15" cy="10" r="1"/>
  <circle cx="9" cy="10" r="1"/>

  <!-- Ears -->
  <polygon points="8,4 12,6 8,8"/>
  <polygon points="16,4 12,6 16,8"/>

  <!-- Legs -->
  <rect x="8" y="20" width="3" height="10"/>
  <rect x="15" y="20" width="3" height="10"/>
</svg>