<svg width="800" height="600" xmlns="http://www.w3.org/2000/svg">
  <!-- Background -->
  <rect x="0" y="0" width="800" height="600" fill="#FFF1E6"/>

  <!-- Plate -->
  <ellipse cx="400" cy="350" rx="350" ry="200" fill="#F39C12"/>
  <path d="M400 75 Q400 50, 380 50 Q360 50, 360 75" stroke="#FFF1E6" fill="none" stroke-width="10"/>

  <!-- Giraffe -->
  <g id="giraffe">
    <path d="M400,50 Q380,100 350,150 Q280,150 250,50 Q200,50 170,100" fill="#FCD669"/>
    <path d="M400,50 Q420,100 450,150 Q520,150 500,50 Q480,50 450,100" fill="#FCD669"/>
    <circle cx="400" cy="250" r="75" fill="#D9A366"/>
    <path d="M330,250 Q380,300 430,250 Q380,200 330,250" stroke="#333" fill="none" stroke-width="10"/>
    <circle cx="365" cy="275" r="50" fill="#FFF"/>
    <path d="M400,200 Q430,220 460,200" stroke="#333" fill="none" stroke-width="10"/>
    <circle cx="430" cy="225" r="25" fill="#FFF"/>
  </g>

  <!-- Fruits and Vegetables -->
  <circle cx="200" cy="300" r="40" fill="#FF8C00"/>
  <path d="M160,300 Q190,350 230,300 Q260,300 230,250 Q190,250 160,300" stroke="#FFD700" fill="none" stroke-width="5"/>
  <circle cx="550" cy="300" r="40" fill="#0F0"/>
  <path d="M510,300 Q540,280 570,300 Q600,300 570,320 Q540,320 510,300" stroke="#FFD700" fill="none" stroke-width="5"/>
  <path d="M380,250 Q340,280 310,250 Q280,250 260,290 Q290,320 320,300 Q350,300 380,270" stroke="#FFD700" fill="none" stroke-width="5"/>

  <!-- Utensils -->
  <path d="M600,400 Q610,390 620,400 Z" fill="#CBCBCB"/>
  <path d="M610,400 Q615,395 620,400" stroke="#333" fill="none" stroke-width="2"/>

  <!-- Garnishes -->
  <rect x="700" y="200" width="80" height="10" rx="5" fill="#FFF"/>
  <path d="M760,210 Q770,200 760,190 Q750,200 740,210" stroke="#333" fill="none" stroke-width="2"/>

</svg>