<svg xmlns="http://www.w3.org/2000/svg" viewBox="0 0 500 500">

  <!-- Body -->
  <ellipse cx="250" cy="270" rx="180" ry="140" fill="#FFD700"/>

  <!-- Neck -->
  <ellipse cx="250" cy="190" rx="130" ry="60" fill="#FFD700"/>
  <!-- Neck spots -->
  <g>
    <circle cx="280" cy="140" r="5" fill="#654321"/>
    <circle cx="220" cy="150" r="5" fill="#9C661F"/>
    <!-- Add more spots here -->
  </g>

  <!-- Legs -->
  <rect x="180" y="330" width="70" height="140" fill="#FFD700"/>
  <rect x="250" y="360" width="70" height="110" fill="#FFD700"/>
  <rect x="320" y="330" width="70" height="140" fill="#FFD700"/>
  <rect x="250" y="280" width="70" height="80" fill="#FFD700"/>

  <!-- Face -->
  <circle cx="230" cy="160" r="10" fill="#000"/>
  <circle cx="270" cy="160" r="10" fill="#000"/>
  <ellipse cx="250" cy="180" rx="40" ry="20" stroke="#000" stroke-width="3"/>
  <rect x="240" y="170" width="20" height="10" fill="#000"/>

  <!-- Horns -->
  <polygon points="225,150,235,160,245,150" fill="#8B4513"/>
  <polygon points="275,150,265,160,255,150" fill="#8B4513"/>

  <!-- Tail -->
  <polygon points="250,290,260,310,240,310" fill="#FFD700"/>

</svg>