<svg xmlns="http://www.w3.org/2000/svg" viewBox="0 0 500 600">

<!-- Body -->
<rect x="100" y="150" width="300" height="400" fill="#D7B789" stroke="#996633" stroke-width="2"/>
<path d="M100,150 Q150,50 250,150 Q350,50 400,150" fill="#CFAA82" stroke="#996633" stroke-width="2"/>

<!-- Head -->
<circle cx="250" cy="120" r="70" fill="#D7B789" stroke="#996633" stroke-width="2"/>
<path d="M250,120 Q220,90 250,70 Q280,90 250,120" fill="#CFAA82" stroke="#996633" stroke-width="2"/>

<!-- Neck -->
<rect x="210" y="150" width="80" height="70" fill="#D7B789" stroke="#996633" stroke-width="2"/>
<path d="M210,150 Q240,200 250,120 Q280,200 290,150" fill="#CFAA82" stroke="#996633" stroke-width="2"/>

<!-- Legs -->
<g opacity=".7">
    <!-- Front legs -->
    <rect x="120" y="300" width="40" height="150" fill="#D7B789"/>
    <rect x="260" y="300" width="40" height="150" fill="#D7B789"/>

    <!-- Back legs -->
    <rect x="340" y="300" width="40" height="150" fill="#D7B789"/>
    <rect x="420" y="300" width="40" height="150" fill="#D7B789"/>
</g>

<!-- Shadow -->
<path d="M100,600 Q250,650 400,600" fill="#996633" opacity=".3"/>

<!-- Spots -->
<g stroke="#442200" stroke-width="2">
    <circle cx="180" cy="220" r="20"/>
    <circle cx="250" cy="220" r="20"/>
    <circle cx="320" cy="220" r="20"/>
    <circle cx="400" cy="220" r="20"/>
</g>

</svg>