<svg xmlns="http://www.w3.org/2000/svg" viewBox="-50 -10 600 400" preserveAspectRatio="xMidYMid meet">

<!-- Body -->
<rect x="-40" y="0" width="80" height="250" fill="#7D93A2" stroke="#6C7A86" stroke-width="1"/>

<!-- Neck -->
<path d="M-40 250 Q -10 300, 40 250" fill="#7D93A2" stroke="#6C7A86" stroke-width="1"/>

<!-- Head -->
<circle cx="-5" cy="-40" r="50" fill="#F0E68C" stroke="#F5DE75" stroke-width="1"/>
<path d="M-5,-50 Q 0,-35, -5,-25" fill="black"/>

<!-- Legs -->
<rect x="-40" y="200" width="80" height="100" fill="#7D93A2" stroke="#6C7A86" stroke-width="1"/>
<path d="M-40,300 Q 0,450, 40,300"/>

<!-- Shadow and Highlight -->
<defs>
    <linearGradient id="giraffeGradient" x1="-50%" y1="100%" x2="50%" y2="100%">
        <stop offset="0%" style="stop-color:#6C7A86; stop-opacity:0.5"/>
        <stop offset="100%" style="stop-color:#4B616F; stop-opacity:0"/>
    </linearGradient>
</defs>
<rect x="-40" y="200" width="80" height="100" fill="url(#giraffeGradient)"/>

<!-- Eyes -->
<circle cx="-35" cy="-45" r="5" fill="white"/>
<circle cx="-5" cy="-45" r="5" fill="white"/>
<path d="M-35,-45 Q -20,-60, -5,-45"/>

<!-- Horns -->
<path d="M 10,-50 Q 20,-30, 10,-20 Z" fill="#F0E68C"/>
<path d="M 15,-50 Q 25,-30, 15,-20 Z" fill="#F0E68C"/>

</svg>