<svg xmlns="http://www.w3.org/2000/svg" viewBox="0 0 24 24">
  <!-- Body -->
  <path d="M12,2C6.5,2 2,6.5 2,13h8c0-6.5-5.5-11-12-11z" fill="#f9a03f"/>

  <!-- Neck -->
  <path d="M12,17l0,-5c0,-1.4 -1.4,-2.5 -3,-2.5s-3,1.1 -3,2.5v5h6z" fill="#f9a03f"/>

  <!-- Head -->
  <circle cx="12" cy="7" r="5" fill="#fff"/>
  <ellipse cx="8" cy="5" rx="1" ry="2" fill="#000"/>
  <ellipse cx="16" cy="5" rx="1" ry="2" fill="#000"/>

  <!-- Legs -->
  <rect x="7" y="19" width="2" height="8" fill="#f9a03f"/>
  <rect x="9" y="19" width="2" height="8" fill="#f9a03f"/>
  <rect x="15" y="19" width="2" height="8" fill="#f9a03f"/>
  <rect x="17" y="19" width="2" height="8" fill="#f9a03f"/>

  <!-- Horns -->
  <polygon points="6,4 10,8 6,12" fill="#785138"/>
</svg>