<svg width="800" height="600" xmlns="http://www.w3.org/2000/svg">

<!-- Background gradient -->
<defs>
  <linearGradient id="bgGradient" x1="0%" y1="0%" x2="0%" y2="100%">
    <stop offset="0%" style="stop-color:rgb(158, 223, 246); stop-opacity:1" />
    <stop offset="100%" style="stop-color:rgb(79, 184, 204); stop-opacity:1" />
  </linearGradient>
</defs>

<rect width="100%" height="100%" fill="url(#bgGradient)"/>

<!-- Rolling hills -->
<path d="M50,300 Q200,370 450,300 Q700,260 850,300" stroke="black" fill="none" stroke-width="2"/>
<path d="M850,300 Q700,260 550,300 Q250,340 100,300" stroke="black" fill="none" stroke-width="2"/>

<!-- Winding river -->
<path d="M100,400 Q200,450 350,400 Q500,450 650,400 Q800,450 950,400" stroke="blue" fill="none" stroke-width="3"/>

<!-- Towering trees -->
<circle cx="120" cy="270" r="50" fill="green"/>
<circle cx="650" cy="270" r="50" fill="green"/>

<!-- Giraffe -->
<g transform="translate(450, 300)">
  <rect width="100" height="800" fill="tan"/>
  <polygon points="50,600 150,700 50,800" fill="saddlebrown"/>
  <circle cx="100" cy="500" r="300" stroke="black" fill="white" stroke-width="2"/>
  <ellipse cx="100" cy="400" rx="70" ry="150" fill="saddlebrown"/>
</g>

<!-- Textures -->
<pattern id="grassPattern" patternUnits="userSpaceOnUse" width="10" height="10">
  <rect width="10" height="10" fill="#3d7468"/>
  <rect x="5" y="5" width="5" height="5" fill="#a3c8ad"/>
</pattern>
<rect x="0" y="350" width="800" height="250" fill="url(#grassPattern)"/>

</svg>