<svg xmlns="http://www.w3.org/2000/svg" viewBox="0 0 800 600">

<!-- Background -->
<rect width="100%" height="100%" fill="#f5deb3"/>

<!-- Tableware -->
<circle cx="400" cy="570" r="20" fill="#fff"/>
<path d="M200 570 h600 v-150 H200 z" stroke="#fff" fill="transparent"/>
<rect width="100%" height="30" y="540" fill="#bdbdbd"/>

<!-- Giraffe -->
<g transform="translate(250, 80) rotate(-7)">
  <path d="M160 80 Q190 50, 220 80 H350 V150 Q340 170, 320 200 L160 200 Z" fill="#ffd700"/>
  <path d="M170 130 Q200 90, 230 130 H380 V250 Q370 270, 340 300 L170 300 Z" fill="#ffd700"/>
  <circle cx="260" cy="320" r="60" fill="#ffa500"/>
</g>

<!-- Garnishes -->
<circle cx="150" cy="400" r="20" fill="#008000"/>
<path d="M170 400 a30 30 0 1 0 60 0 a30 30 0 1 0 -60 0 z" stroke="#008000" fill="transparent"/>

<!-- Accompaniments -->
<rect x="50" y="450" width="70" height="70" rx="20" fill="#d9381e"/>
<path d="M60 450 h10 v-50 H60 Z" stroke="#d9381e" fill="transparent"/>

</svg>