<svg xmlns="http://www.w3.org/2000/svg" viewBox="0 0 500 600">
  <!-- Body -->
  <ellipse cx="250" cy="400" rx="180" ry="200"
           fill="#FADADD" stroke="#937054" stroke-width="5"/>
  <!-- Neck -->
  <rect x="200" y="320" width="100" height="160"
        fill="#E8B984" stroke="#937054" stroke-width="5"/>
  <!-- Head -->
  <circle cx="250" cy="250" r="80"
          fill="#FADADD" stroke="#937054" stroke-width="5"/>

  <!-- Legs (front) -->
  <path d="M170,400 h100 a100,100 0 0 1 100,-200 v-60 a100,100 0 0 1 -100,-100
                v60 a100,100 0 0 1 -100,200 z" fill="#E8B984"/>
  <path d="M370,400 h-100 a100,100 0 0 1 -100,-200 v-60 a100,100 0 0 1 100,-100
                v60 a100,100 0 0 1 100,200 z" fill="#E8B984"/>

  <!-- Legs (back) -->
  <path d="M170,560 h100 a100,100 0 0 1 100,-200 v-60 a100,100 0 0 1 -100,-100
                v60 a100,100 0 0 1 -100,200 z" fill="#E8B984"/>
  <path d="M370,560 h-100 a100,100 0 0 1 -100,-200 v-60 a100,100 0 0 1 100,-100
                v60 a100,100 0 0 1 100,200 z" fill="#E8B984"/>

  <!-- Spots -->
  <circle cx="230" cy="350" r="20" fill="#937054"/>
  <circle cx="270" cy="390" r="15" fill="#937054"/>
  <circle cx="310" cy="430" r="25" fill="#937054"/>

</svg>