<svg xmlns="http://www.w3.org/2000/svg" viewBox="0 0 800 600">

<!-- Background -->
<rect width="100%" height="100%" fill="#FFF5E6"/>

<!-- Circular Plate -->
<circle cx="400" cy="300" r="200" fill="#FFEFD5" stroke="#D9B78C" stroke-width="5"/>

<!-- Giraffe -->
<g transform="translate(150, 220) scale(.7)">
  <path d="M450 60 L425 30 A50 50 0 0 0 350 50 H300 A50 50 0 0 0 250 30 Z" fill="#FDB971"/>
  <path d="M350 60 L400 80 V120 H350 Z" stroke="#7D430B" stroke-width="5"/>
  <circle cx="350" cy="150" r="50" fill="#FFF5E6"/>
</g>

<!-- Vegetables -->
<rect x="500" y="220" width="80" height="80" rx="10" fill="#90EE90"/>
<path d="M630 220 Q670 190, 670 240 H600 Z" stroke="#7D430B" stroke-width="5"/>

<!-- Fruits -->
<circle cx="650" cy="300" r="40" fill="#FF6B81"/>
<path d="M650 280 Q620 310, 650 340 Z" stroke="#7D430B" stroke-width="5"/>

<!-- Fork and Knife -->
<g transform="translate(300, 400) scale(.8)">
  <path d="M0 0 L20 10 H30 V30 H40 V10 Z" fill="#CBCBCB"/>
  <path d="M0 0 L5 10 H15 V50 H0 Z" stroke="#7D430B" stroke-width="5"/>
</g>

<!-- Garnish -->
<rect x="280" y="280" width="20" height="60" rx="5" fill="#9ACD32"/>
<path d="M310 280 Q340 270, 350 280 Z" stroke="#7D430B" stroke-width="5"/>

</svg>