<svg viewBox="0 0 800 600" xmlns="http://www.w3.org/2000/svg">
  <!-- Hot Air Balloon -->
  <circle cx="400" cy="150" r="100" fill="#FFB973"/>
  <path d="M400,80 Q450,120 400,180 Q350,120 400,80" stroke="#FFCC66" fill="transparent"/>

  <!-- Hills -->
  <path id="hillPattern" d="M0,0 Q200,200 400,0 Q600,200 800,0"/>
  <pattern id="hills" patternUnits="userSpaceOnUse" width="800" height="300">
    <use href="#hillPattern" x="0" y="150" style="fill:#8DC63C; stroke:none;" />
  </pattern>
  <rect width="800" height="400" fill="url(#hills)"/>

  <!-- River -->
  <path id="riverPath" d="M20,400 Q150,350 300,400 Q450,350 600,400"/>
  <linearGradient id="riverGradient" x1="0%" y1="0%" x2="100%" y2="0%">
    <stop offset="0%" style="stop-color:#ADD8E6; stop-opacity:1" />
    <stop offset="50%" style="stop-color:#A3D2F1; stop-opacity:1" />
  </linearGradient>
  <path d="M20,400 Q150,350 300,400 Q450,350 600,400" fill="url(#riverGradient)"/>

  <!-- Trees -->
  <g id="tree">
    <circle cx="0" cy="250" r="50" style="fill:#592F00; stroke:none;" />
    <polygon points="15,-75, -15,-75, 0,0" fill="#006400"/>
  </g>

  <!-- Tree instances -->
  <use href="#tree" x="30" y="280" width="100"/>
  <use href="#tree" x="90" y="270" width="80"/>
  <use href="#tree" x="450" y="260" width="70"/>

</svg>