<svg width="800px" height="600px" xmlns="http://www.w3.org/2000/svg">

  <!-- Montis Advenae -->
  <polygon points="-5,-100 40,20 95,-100" fill="#6a5acd"/>
  <text x="0" y="-80" font-family="Arial" font-size="14">Montis Advenae</text>

  <!-- Flumen Caelum -->
  <path d="M40,20 Q140,90 270,-30 Q460,-50 650,-10" stroke="#38b0de" fill="none" stroke-width="3"/>
  <circle cx="200" cy="50" r="5" fill="#38b0de"/>
  <text x="70" y="40" font-family="Arial" font-size="14">Flumen Caelum</text>

  <!-- Silva Aeria -->
  <path d="M270,-30 Q460,-50 650,-10 Q840,-30 980,0" stroke="#3d9900" fill="none" stroke-width="3"/>
  <circle cx="700" cy="-15" r="5" fill="#3d9900"/>
  <text x="620" y="-25" font-family="Arial" font-size="14">Silva Aeria</text>

  <!-- Civitas Ballono -->
  <circle cx="700" cy="150" r="80" fill="#ffd700"/>
  <path d="M620,150 Q700,190 780,150" stroke="#ffa502" fill="none" stroke-width="3"/>
  <text x="640" y="170" font-family="Arial" font-size="14">Civitas Ballono</text>

  <!-- Hot Air Balloons -->
  <circle cx="180" cy="-50" r="25" fill="#ffa502"/>
  <path d="M160,-30 Q175,-60 190,-30" stroke="#ffa502" fill="none" stroke-width="2"/>
  <circle cx="730" cy="80" r="25" fill="#ffa502"/>
  <path d="M710,60 Q725,90 740,60" stroke="#ffa502" fill="none" stroke-width="2"/>

</svg>