<svg width="500" height="500" xmlns="http://www.w3.org/2000/svg">

  <!-- Hot Air Balloon -->
  <g id="hot-air-balloon">
    <path d="M170,80 Q140,30 170,10 Q200,50 230,80" fill="#FFB6C1"/>
    <circle cx="190" cy="30" r="30" fill="#FFFF66"/>
    <path d="M190,40 V70 H175 L190,60 Z" fill="#FFA500"/>
  </g>

  <!-- Basket -->
  <rect x="160" y="230" width="80" height="30" rx="5" fill="#C4A484"/>

  <!-- Tableware & Utensils -->
  <circle cx="75" cy="450" r="40" fill="#FFFFFF"/>
  <path d="M90,420 L160,320 Z" stroke="#3D9970" fill="transparent"/>
  <rect x="280" y="420" width="150" height="50" rx="10" fill="#FFFFFF"/>

  <!-- Garnishes & Ingredients -->
  <circle cx="400" cy="320" r="20" fill="#FF69B4"/>
  <path d="M400,320 Q380,300 400,270 Q420,300 400,320 Z" fill="#FFD700"/>
  <rect x="350" y="360" width="100" height="20" rx="5" fill="#8DC63C"/>

  <!-- Table Cloth -->
  <rect x="0" y="450" width="500" height="50" fill="#FFFACD"/>

</svg>