<svg width="800" height="600" xmlns="http://www.w3.org/2000/svg">

  <!-- Rolling Hills -->
  <path d="M10,50 Q200,70 400,90 Q600,110 800,90" fill="#8DC63C" stroke="black"/>
  <path d="M10,100 Q200,90 400,110 Q600,130 800,110" fill="#6DAB2E" stroke="black"/>

  <!-- Winding River -->
  <path d="M50,170 C150,140 250,190 350,160 450,190 550,130 650,150" fill="url(#riverGradient)" stroke="black"/>
  <defs>
    <linearGradient id="riverGradient" x1="0%" y1="0%" x2="0%" y2="100%">
      <stop offset="0%" style="stop-color:#82A9DB; stop-opacity:1" />
      <stop offset="100%" style="stop-color:#90CAF9; stop-opacity:1" />
    </linearGradient>
  </defs>

  <!-- Towering Trees -->
  <path d="M70,450 L120,380 Q150,420 180,450" fill="#3D613E" stroke="#5D4735"/>
  <path d="M350,420 L400,350 Q430,400 460,420" fill="#3D613E" stroke="#5D4735"/>

  <!-- Hot Air Balloon -->
  <circle cx="500" cy="200" r="80" fill="#FFB974"/>
  <rect x="450" y="150" width="60" height="80" fill="#F58208"/>
  <circle cx="480" cy="230" r="10" fill="#FFFFFF"/>

</svg>