<svg width="500" height="600" xmlns="http://www.w3.org/2000/svg">

  <!-- Background -->
  <rect x="0" y="0" width="500" height="600" fill="#FFF"/>

  <!-- Main Body (Bodice and Sleeves) -->
  <path id="mainBody"
        d="M18,24 Q36,0 74,0 A6,6 0 0 0 74,50 Q36,96 18,72
            A6,6 0 0 1 18,66 Z"
        stroke="#000" fill="url(#skyGradient)" stroke-width="2"/>

  <!-- Balloon Envelope -->
  <path id="balloonEnvelope"
        d="M250,74 a136,136 0 1 0 0,-272 a136,136 0 1 0 0,272 Z"
        stroke="#000" fill="url(#balloonGradient)" stroke-width="2"/>

  <!-- Balloon Fins -->
  <path id="finLeft"
        d="M250,384 Q292,464 250,544"
        stroke="#000" fill="url(#balloonStripeGradient)" stroke-width="2"/>
  <path id="finRight"
        d="M210,384 Q168,464 210,544"
        stroke="#000" fill="url(#balloonStripeGradient)" stroke-width="2"/>

  <!-- Sewing Lines -->
  <path d="M18,72 H90 V240 H18 Z" stroke-dasharray="4,2" stroke="#AAA"/>
  <path d="M168,544 H250 V384 H168 Z" stroke-dasharray="4,2" stroke="#AAA"/>

  <!-- Gradients -->
  <defs>
    <linearGradient id="skyGradient" x1="0%" y1="0%" x2="0%" y2="100%">
      <stop offset="0%"   stop-color="#98FBFF"/>
      <stop offset="50%"  stop-color="#4B9CD3"/>
      <stop offset="100%" stop-color="#0F52BA"/>
    </linearGradient>
    <radialGradient id="balloonGradient" cx="50%" cy="50%" r="50%">
      <stop offset="0%"   stop-color="#FFF"/>
      <stop offset="50%"  stop-color="#FFD700"/>
      <stop offset="100%" stop-color="#F39C12"/>
    </radialGradient>
    <pattern id="balloonStripePattern" patternUnits="userSpaceOnUse">
      <rect width="20" height="40" fill="#FF0000"/>
      <rect x="20" width="20" height="40" fill="#FFFFFF"/>
    </pattern>
    <linearGradient id="balloonStripeGradient" x1="0%" y1="50%" x2="100%" y2="50%">
      <stop offset="0%"   stop-color="#FF0000"/>
      <stop offset="50%"  stop-color="#FFFFFF"/>
    </linearGradient>
  </defs>

</svg>