<svg xmlns="http://www.w3.org/2000/svg" viewBox="0 0 500 500">

  <!-- Hot Air Balloon -->
  <circle cx="175" cy="80" r="60" fill="#FFB6C1"/>
  <polygon points="130,240 190,240 250,80" fill="#FF69B4">
    <animate attributeName="points" values="130,240 190,240 250,80;170,180 190,240 210,80;150,160 190,240 230,80" dur="4s" repeatCount="indefinite"/>
  </polygon>
  <circle cx="175" cy="40" r="15" fill="#FFA07A"/>

  <!-- Tablecloth -->
  <rect x="10" y="360" width="480" height="120" fill="#FFF9E5"/>
  <path d="M0,360 Q10,380 20,360 H460 Q470,380 480,360 V500 H0 Z" stroke="#FFA500" fill="transparent"/>

  <!-- Basket -->
  <rect x="140" y="390" width="20" height="60" fill="#C3B091"/>
  <path d="M160,390 Q180,410 200,390 H220 Q240,410 260,390 V450 H140 Z" fill="#C3B091"/>

  <!-- Picnic Basket -->
  <rect x="300" y="400" width="50" height="70" fill="#FDD83A"/>
  <path d="M325,470 Q350,490 375,470 H425 Q450,490 475,470 V410 Z" fill="#FDD83A"/>

  <!-- Utensils -->
  <path d="M400,460 Q420,480 440,460 H460 Q480,480 500,460 V500 H400 Z" stroke="#C3B091" fill="transparent"/>
  <circle cx="470" cy="420" r="10" fill="#C3B091"/>

  <!-- Garnishes -->
  <circle cx="230" cy="450" r="15" fill="#FFDAB9"/>
  <circle cx="280" cy="430" r="10" fill="#FFDAB9"/>

</svg>