<svg width="800" height="600" xmlns="http://www.w3.org/2000/svg">

  <!-- Plate -->
  <circle cx="400" cy="500" r="250" fill="#FFFBDF"/>

  <!-- Hot Air Balloon -->
  <g id="hot-air-balloon">
    <!-- Basket -->
    <rect x="300" y="370" width="100" height="80" fill="#964B00"/>
    <path d="M350,370 Q325,400 300,370 H350 Z" stroke="#964B00"/>

    <!-- Balloon -->
    <ellipse cx="350" cy="180" rx="150" ry="200" fill="#F9C0D3"/>
    <path d="M350,100 Q300,75 250,100 L350,140 Z" stroke="#964B00"/>

    <!-- Ribbon -->
    <path d="M350,140 Q375,180 350,220 Z" stroke="#FF5733"/>
  </g>

  <!-- Salad Garnish -->
  <image xlink:href="https://upload.wikimedia.org/wikipedia/commons/thumb/e/e6/Lettuce.svg/1200px-Lettuce.svg.png"
         width="80" height="80" x="570" y="390"/>

  <!-- Cherry Tomato -->
  <circle cx="520" cy="430" r="20" fill="#FF6347"/>
  <circle cx="520" cy="430" r="10" fill="#FFFACD"/>

  <!-- Olive Utensil -->
  <ellipse cx="600" cy="480" rx="30" ry="40" fill="#8D776B"/>
  <path d="M590,470 Q610,420 620,470 Z" stroke="#FFFACD"/>

  <!-- Tableware - Napkin -->
  <rect x="650" y="390" width="80" height="80" fill="#FFFFFF"/>
  <path d="M680,410 Q720,380 680,350 Z" stroke="#8D776B"/>

</svg>