<svg xmlns="http://www.w3.org/2000/svg" viewBox="0 0 500 600" preserveAspectRatio="xMidYMid meet">

<!-- Hot Air Balloon Envelope -->
<path d="M150,75 Q250,25 350,75 Q250,125 150,125 Q50,75 150,75" fill="#ffcc00" stroke="none"/>

<!-- Hot Air Balloon Basket -->
<rect x="120" y="400" width="160" height="80" rx="20" ry="20" fill="#c6935e" stroke="none"/>

<!-- Hot Air Balloon burner flame (top) -->
<path d="M170,200 Q180,180 190,200 Q200,180 210,200" fill="#ffa502" stroke="none" opacity="0.6"/>

<!-- Hot Air Balloon burner flame (bottom) -->
<path d="M170,430 Q180,450 190,430 Q200,450 210,430" fill="#ffa502" stroke="none" opacity="0.6"/>

<!-- Hot Air Balloon ropes -->
<path d="M170,480 Q190,520 210,480" stroke="#4c2e0b" stroke-width="5"/>
<path d="M230,480 Q210,520 190,480" stroke="#4c2e0b" stroke-width="5"/>

<!-- Hot Air Balloon shadow -->
<filter id="shadow" x="-20%" y="-20%" width="140%" height="140%">
  <feGaussianBlur in="SourceAlpha" stdDeviation="3"/>
  <feOffset dx="2" dy="2"/>
  <feMerge>
    <feMergeNode/>
    <feMergeNode in="SourceGraphic"/>
  </feMerge>
</filter>
<rect x="100" y="570" width="300" height="30" fill="#4c2e0b" stroke="none" filter="url(#shadow)"/>

<!-- Hot Air Balloon final touch -->
<circle cx="200" cy="60" r="20" fill="#ffcc00" stroke="#ffa502" stroke-width="3"/>

</svg>