<svg width="600" height="400" xmlns="http://www.w3.org/2000/svg">

  <!-- Plate -->
  <circle cx="150" cy="275" r="125" fill="#fff" stroke="#f89f17" stroke-width="5"/>

  <!-- Hot Air Balloon (Star Ingredient) -->
  <g id="balloon">
    <path d="M150,30 A120,60 0 1 0 270,30 A120,60 0 1 0 150,90" fill="#f1d8a9"/>
    <polygon points="150,90 70,45 230,45" fill="#f3bdb7"/>
    <rect x="125" y="60" width="50" height="50" fill="#fbcf8c"/>
    <circle cx="150" cy="110" r="15" fill="#fff"/>
  </g>

  <!-- Utensils -->
  <path d="M375,290 Q420,320 460,290 H480 V320 H460 Z" stroke="#f89f17" fill="#fff"/>
  <rect x="375" y="350" width="100" height="50" rx="10" fill="#fff" stroke="#f89f17"/>

  <!-- Garnishes -->
  <circle cx="275" cy="200" r="40" fill="#ffcc00"/>
  <path d="M275,200 Q300,220 325,200" stroke="#f89f17" fill="transparent"/>

  <!-- Tableware -->
  <rect x="5" y="350" width="60" height="50" rx="5" fill="#fff" stroke="#f89f17"/>
  <text x="20" y="390" font-family="Verdana" font-size="24">Bon appétit!</text>

</svg>