<svg xmlns="http://www.w3.org/2000/svg" viewBox="-10 -10 700 400">
  <!-- Scene 1 -->
  <circle cx="50" cy="150" r="60" fill="#FF4500"/>
  <rect x="25" y="190" width="50" height="80" fill="#8B4513"/>
  <circle cx="350" cy="70" r="40" fill="#FFF569"/>
  <ellipse cx="300" cy="200" rx="150" ry="70" fill="#ADD8E6"/>
  <!-- Scene 2 -->
  <path d="M25,190 Q50,250 75,190" stroke="#FF4500" fill="transparent"/>
  <!-- Scene 3 -->
  <ellipse cx="300" cy="150" rx="180" ry="90" fill="#323232"/>
  <polyline points="270,70 300,40 330,70" stroke="#FFFFFF" fill="transparent"/>
  <!-- Scene 4 -->
  <circle cx="550" cy="180" r="60" fill="#A9A9A9">
    <path d="M520,140 A40,40 0 1,0 600,140 A40,40 0 1,0 520,180 z"/>
    <circle cx="570" cy="135" r="5" fill="#FFA500"/>
  </circle>
  <!-- Scene 5 -->
  <circle cx="350" cy="70" r="40" fill="#FFA07A"/>
  <!-- Scene 6 -->
  <rect x="-10" y="280" width="720" height="120" fill="#2C69A5">
    <circle cx="30" cy="310" r="2" fill="#FFFFFF"/>
    <circle cx="60" cy="340" r="2" fill="#FFFFFF"/>
  </rect>
  <!-- Scene 7 -->
  <path d="M50,190 Q80,250 100,190" stroke="#FF4500" fill="transparent"/>
  <circle cx="350" cy="70" r="40" fill="#C0C0C0"/>

  <!-- Annotation -->
  <text x="-10" y="280" font-size="16" text-anchor="start">Story of the Hot Air Balloon</text>
</svg>