<svg width="600" height="400" xmlns="http://www.w3.org/2000/svg">
  <!-- Background -->
  <rect x="0" y="0" width="600" height="400" fill="#FFF5E6"/>

  <!-- Hot Air Balloon -->
  <circle cx="180" cy="70" r="90" fill="#FFC300"/>
  <path d="M180,70 Q250,0 310,70" stroke="#FFC300" fill="transparent"/>
  <circle cx="310" cy="70" r="10" fill="#FF5733"/>

  <!-- Basket and Gondola -->
  <rect x="140" y="280" width="260" height="20" rx="5" fill="#D99C7A"/>
  <path d="M160,280 Q200,340 240,280" stroke="#D99C7A" fill="transparent"/>

  <!-- Accompanying Ingredients -->
  <circle cx="450" cy="200" r="40" fill="#FF5733"/>
  <path d="M410,200 Q450,160 490,200" stroke="#FF5733" fill="transparent"/>

  <!-- Tableware -->
  <rect x="5" y="340" width="100" height="20" rx="5" fill="#FFF"/>
  <path d="M60,340 Q100,380 60,420" stroke="#FFF" fill="transparent"/>

  <!-- Utensils -->
  <polygon points="520,340 560,340 560,380" fill="#D99C7A"/>
  <path d="M540,360 Q560,380 580,360" stroke="#D99C7A" fill="transparent"/>

  <!-- Garnishes -->
  <circle cx="550" cy="200" r="10" fill="#FFC300"/>
  <path d="M540,200 Q560,180 580,200" stroke="#FFC300" fill="transparent"/>

  <!-- Text -->
  <text x="50%" y="370" dominant-baseline="middle" text-anchor="middle" font-family="Verdana" font-size="48">Bon Appétit!</text>
</svg>