<svg width="800" height="600" xmlns="http://www.w3.org/2000/svg">

  <!-- Igloo -->
  <path id="igloo" d="M150 400 Q200 300, 270 350 Q340 200, 400 250 Q460 200, 500 300 Q570 200, 600 300 A100 100 0 0 0 150 400" fill="lightblue" stroke="white"/>

  <!-- Snow on igloo -->
  <path d="M150 400 Q200 350, 270 370 Q340 300, 400 350 Q460 300, 500 320 Q570 300, 600 350" fill="url(#snowGradient)" stroke="none"/>

  <!-- Hill under igloo -->
  <path id="hill" d="M100 450 Q150 500, 200 450 Q250 550, 300 450 Q350 500, 400 450 Q450 500, 500 450" fill="url(#hillGradient)" stroke="none"/>

  <!-- River -->
  <path id="river" d="M100 500 Q200 550, 300 500 Q400 550, 500 500 Q600 550, 700 500" fill="url(#riverGradient)" stroke="none"/>

  <!-- Rolling hills -->
  <path id="rollingHills" d="M100 550 Q200 600, 300 550 Q400 600, 500 550 Q600 600, 700 550" fill="url(#grassGradient)" stroke="none"/>

  <!-- Trees -->
  <g id="trees">
    <!-- Tree 1 -->
    <path d="M300 250 Q320 280, 340 250 Q360 280, 380 250" fill="brown"/>
    <circle cx="320" cy="170" r="30" fill="green"/>
    <!-- Tree 2 -->
    <path d="M450 200 Q470 230, 500 200 Q520 230, 540 200" fill="brown"/>
    <circle cx="470" cy="120" r="30" fill="green"/>
  </g>

  <!-- Gradients -->
  <defs>
    <linearGradient id="snowGradient" x1="0%" y1="0%" x2="0%" y2="100%">
      <stop offset="0%" style="stop-color:rgb(255,255,255);stop-opacity:1"/>
      <stop offset="100%" style="stop-color:rgb(230,230,230);stop-opacity:1"/>
    </linearGradient>
    <linearGradient id="hillGradient" x1="0%" y1="0%" x2="0%" y2="100%">
      <stop offset="0%" style="stop-color:rgb(240,240,240);stop-opacity:1"/>
      <stop offset="100%" style="stop-color:rgb(230,230,230);stop-opacity:1"/>
    </linearGradient>
    <linearGradient id="riverGradient" x1="0%" y1="0%" x2="0%" y2="100%">
      <stop offset="0%" style="stop-color:rgb(90,150,230);stop-opacity:1"/>
      <stop offset="100%" style="stop-color:rgb(70,130,200);stop-opacity:1"/>
    </linearGradient>
    <linearGradient id="grassGradient" x1="0%" y1="0%" x2="0%" y2="100%">
      <stop offset="0%" style="stop-color:rgb(95,170,60);stop-opacity:1"/>
      <stop offset="100%" style="stop-color:rgb(85,150,50);stop-opacity:1"/>
    </linearGradient>
  </defs>

</svg>