<svg xmlns="http://www.w3.org/2000/svg" viewBox="-150 -150 300 300">

  <!-- Igloo -->
  <circle cx="0" cy="0" r="80" fill="#ffffff" stroke="#c0c0c0" stroke-width="2"/>

  <!-- Hills -->
  <path d="M-140,-60 A90,70 0 1,0 140,-60" fill="lightgreen"/>
  <path d="M-60,-130 A90,70 0 1,0 60,-130" fill="lightgreen"/>
  <path d="M-140,60 A90,70 0 1,0 140,60" fill="lightgreen"/>

  <!-- Trees -->
  <circle cx="-80" cy="-50" r="20" fill="#3d9900"/>
  <circle cx="-30" cy="-90" r="20" fill="#3d9900"/>
  <circle cx="80" cy="-50" r="20" fill="#3d9900"/>

  <!-- Grove of trees near igloo -->
  <g transform="rotate(45, 0, 0)">
    <circle cx="-70" cy="-70" r="15" fill="#3d9900"/>
    <circle cx="-50" cy="-60" r="15" fill="#3d9900"/>
    <circle cx="-30" cy="-50" r="15" fill="#3d9900"/>
  </g>

  <!-- River -->
  <path d="M-170,-80 Q-120,-60 -140,-10 A10,10 0 0,0 -100,-80 H100 A10,10 0 0,0 140,-10 Q120,-60 170,-80" stroke="#add8e6" fill="transparent" stroke-width="5"/>

</svg>