<svg width="800" height="600" xmlns="http://www.w3.org/2000/svg">

  <!-- Igloo -->
  <ellipse cx="400" cy="150" rx="150" ry="100"
           fill="white" stroke="#888" stroke-width="5"/>

  <!-- Rolling Hills -->
  <path d="M10,300 Q200,100 800,300 T800,600 Q200,500 10,300"
        fill="lightgreen" stroke="#447" stroke-width="5"/>

  <!-- Rivers -->
  <path d="M10,300 Q100,200 200,300 T800,300 Q700,200 800,300"
        fill="lightblue" stroke="#004" stroke-width="5"/>
  <path d="M800,300 Q600,200 500,300 T10,300 Q150,200 10,300"/>

  <!-- Trees -->
  <circle cx="150" cy="400" r="50" fill="#339"/>
  <circle cx="200" cy="450" r="50" fill="#339"/>
  <circle cx="650" cy="400" r="50" fill="#339"/>
  <circle cx="700" cy="450" r="50" fill="#339"/>

  <!-- Small forests -->
  <g transform="translate(250, 500)">
    <rect width="100" height="100" fill="url(#forestGradient)"/>
    <circle cx="50" cy="75" r="25" fill="#339"/>
    <circle cx="125" cy="75" r="25" fill="#339"/>
  </g>
  <g transform="translate(600, 500)">
    <rect width="100" height="100" fill="url(#forestGradient)"/>
    <circle cx="50" cy="75" r="25" fill="#339"/>
    <circle cx="125" cy="75" r="25" fill="#339"/>
  </g>

  <!-- Gradients -->
  <defs>
    <linearGradient id="hillGradient" x1="0%" y1="0%" x2="100%" y2="100%">
      <stop offset="0%" style="stop-color:lightgreen; stop-opacity:1"/>
      <stop offset="50%" style="stop-color:green; stop-opacity:1"/>
    </linearGradient>
    <linearGradient id="forestGradient" x1="0%" y1="0%" x2="100%" y2="100%">
      <stop offset="0%" style="stop-color:lightgreen; stop-opacity:0.5"/>
      <stop offset="50%" style="stop-color:green; stop-opacity:0.5"/>
      <stop offset="100%" style="stop-color:darkgreen; stop-opacity:1"/>
    </linearGradient>
  </defs>

</svg>