<svg width="800" height="600" xmlns="http://www.w3.org/2000/svg">

<!-- Background -->
<rect width="100%" height="100%" fill="#FFFFFF"/>

<!-- Hills -->
<path d="M 50,475 Q 150,500 300,475 Q 400,600 550,475 Q 700,625 800,475" fill="#98FB98"/>
<path d="M 50,525 Q 150,550 300,525 Q 400,650 550,525 Q 700,675 800,525" fill="#66CDAA"/>
<path d="M 50,575 Q 150,600 300,575 Q 400,700 550,575 Q 700,725 800,575" fill="#32CD32"/>

<!-- River -->
<path d="M 100,600 Q 200,575 350,600 Q 450,575 550,600 Q 650,575 750,600" stroke="#ADD8E6" fill="transparent" stroke-width="10"/>
<path d="M 90,620 H 760" stroke="#40E0D0" fill="transparent" stroke-width="2"/>

<!-- Igloo -->
<circle cx="350" cy="300" r="100" fill="#B3E0FF"/>
<path d="M 250,300 A 100,100 0 1,1 450,300" stroke="#FFFFFF" fill="transparent" stroke-width="2"/>

<!-- Trees -->
<circle cx="80" cy="200" r="50" fill="#006400"/>
<circle cx="700" cy="200" r="50" fill="#006400"/>
<path d="M 130,150 L 80,200 L 30,150 Z" fill="#006400"/>
<path d="M 670,150 L 700,200 L 630,150 Z" fill="#006400"/>

</svg>