<svg width="800" height="600" xmlns="http://www.w3.org/2000/svg">
  <!-- Bar 1 -->
  <circle cx="400" cy="300" r="50" fill="#0d47a1" transform="rotate(-90 400 300)" />
  <path d="M400,250 A50,50 0 0 0 600,300 L800,300 Z" fill="#ffffff" />

  <!-- Bar 2 -->
  <circle cx="400" cy="300" r="75" fill="#b3e5fc" transform="rotate(-90 400 300) scale(1.5)" />
  <path d="M400,250 A75,75 0 0 0 600,300 L800,300 Z" fill="#ffffff" />

  <!-- Bar 3 -->
  <circle cx="400" cy="300" r="100" fill="#ffd700" transform="rotate(-90 400 300) scale(2)" />
  <path d="M400,250 A100,100 0 0 0 600,300 L800,300 Z" fill="#ffffff" />

  <!-- Igloo shape -->
  <path id="igloo" d="M400,150 A250,250 0 0 1 600,400 Q700,550 400,700 Q100,550 300,400 Z" fill="#ffffff" stroke="#0d47a1" stroke-width="2"/>

</svg>