<svg xmlns="http://www.w3.org/2000/svg" viewBox="-10 0 30 30">

<!-- Outer Layer (Insulation) -->
<rect x="-5" y="5" width="30" height="20" fill="white" fill-opacity="0.9"/>

<!-- Inner Layer -->
<path d="
M -5,0
A 5,5 0 0 1 5,-5
A 5,5 0 0 1 -5,-5
z"
fill="#4A4A4A"/>
<path d="M 2.5,-5 L 7.5,-5 L 7.5,-3 L 2.5,-3 z" fill="#4A4A4A"/>

<!-- Roof -->
<path d="
M 0,5
L 5,-5
L -5,-5
z"
fill="none"/>
<path d="M 0,5 L 5,-5 L 2.5,-3 L -2.5,-3 Z" fill="#4A4A4A"/>

<!-- Outline -->
<path stroke="#000000" stroke-width="1" d="
M -5,0
A 5,5 0 0 1 5,-5
A 5,5 0 0 1 -5,-5
z"/>
<path stroke="#000000" stroke-width="1" d="M 2.5,-5 L 7.5,-5 L 7.5,-3 L 2.5,-3 z"/>

</svg>