<svg xmlns="http://www.w3.org/2000/svg" viewBox="-50 -50 100 100">

  <!-- Outer dome -->
  <path id="outerDome"
        d="M-40,-40 A40,40 0 0 0 40,-40 A40,60 0 0 1 -40,20 A40,40 0 0 0 -40,-40"
        fill="white" stroke="black" opacity=".8"/>

  <!-- Inner dome -->
  <path id="innerDome"
        d="M-35,-35 A35,35 0 0 0 35,-35 A35,52.5 0 0 1 -35,17.5 A35,35 0 0 0 -35,-35"
        fill="lightblue" stroke="none"/>

  <!-- Door -->
  <rect id="door"
        width="18" height="25"
        x="-40" y="-47.5"
        rx="5" ry="5"
        fill="saddlebrown"/>

  <!-- Entry tunnel -->
  <path id="tunnel"
        d="M-35,-40 Q-40,-45 40,-40 Q-40,-35 -35,-40"
        stroke="black" fill="none" opacity=".6"/>

</svg>