<svg width="800" height="600" xmlns="http://www.w3.org/2000/svg">

<!-- Background Gradient -->
<defs>
    <linearGradient id="gradient" x1="0%" y1="0%" x2="100%" y2="100%">
        <stop offset="0%" style="stop-color:rgb(85,149,47);stop-opacity:1" />
        <stop offset="100%" style="stop-color:rgb(36,119,55);stop-opacity:1" />
    </linearGradient>
</defs>

<!-- Igloo -->
<ellipse cx="200" cy="400" rx="80" ry="150" fill="white" stroke="black"/>

<!-- Hills -->
<path d="M 30,475 Q 120,400 200,450 Q 280,500 360,450 Q 440,400 520,450 Q 600,500 680,450 Q 760,400 840,475" fill="url(#gradient)"/>
<path d="M 30,555 Q 120,500 200,550 Q 280,600 360,550 Q 440,500 520,550 Q 600,600 680,550 Q 760,500 840,555" fill="url(#gradient)"/>

<!-- River -->
<path d="M 150,590 Q 230,620 310,580 Q 390,640 470,590 Q 550,630 630,590 Q 710,630 790,590" fill="url(#gradient)" stroke="blue" stroke-width="2">
    <animate attributeName="stroke-opacity" values="1;0;1" dur="2s" repeatCount="indefinite"/>
</path>

<!-- Trees -->
<circle cx="40" cy="350" r="30" fill="green"/>
<circle cx="70" cy="380" r="25" fill="brown"/>
<circle cx="120" cy="420" r="35" fill="green"/>
<circle cx="160" cy="450" r="28" fill="brown"/>

<!-- Additional Trees -->
<circle cx="750" cy="350" r="30" fill="green"/>
<circle cx="700" cy="380" r="25" fill="brown"/>
<circle cx="640" cy="420" r="35" fill="green"/>
<circle cx="600" cy="450" r="28" fill="brown"/>

</svg>