<svg width="600" height="450" xmlns="http://www.w3.org/2000/svg">
  <!-- Plate -->
  <circle cx="300" cy="225" r="175" fill="#FFEBB8"/>

  <!-- Igloo -->
  <polygon points="275,50 325,50 300,150 290,160 280,150" fill="#A8DADB"/>
  <circle cx="300" cy="140" r="60" fill="#E3F5E9"/>

  <!-- Snow -->
  <g fill="#FFFFFF">
    <circle cx="270" cy="70" r="10"/>
    <circle cx="300" cy="80" r="8"/>
    <circle cx="330" cy="75" r="10"/>
  </g>

  <!-- Salmon -->
  <path d="M240,260 Q220,280 200,290 Q180,270 160,250 Z" fill="#FFB347"/>
  <polygon points="160,250 200,280 240,260" stroke="#FFB347" fill="transparent"/>

  <!-- Avocado -->
  <ellipse cx="380" cy="260" rx="40" ry="60" fill="#C5E1A5"/>
  <path d="M390,230 Q400,210 410,230 Z" stroke="#C5E1A5" fill="transparent"/>

  <!-- Tomato -->
  <circle cx="420" cy="280" r="30" fill="#FF6F91"/>
  <path d="M420,270 Q410,280 430,270 Z" stroke="#FF6F91" fill="transparent"/>

  <!-- Fork and Knife -->
  <g transform="translate(50,350)">
    <rect width="5" height="80" rx="2.5" fill="#A9A9A9"/>
    <path d="M0,-40 L10,-60 Z" stroke="#A9A9A9" fill="transparent"/>
  </g>

  <!-- Garnish (parsley) -->
  <polygon points="470,380 500,390 485,420 470,410" fill="#689F38"/>

</svg>