<svg width="100%" height="100%" viewBox="-50 -50 100 100" xmlns="http://www.w3.org/2000/svg">
  <defs>
    <!-- Defining colors for musical notes -->
    <linearGradient id="lowNotes" x1="0%" y1="0%" x2="100%" y2="100%">
      <stop offset="0%" style="stop-color:blue; stop-opacity:1"/>
      <stop offset="100%" style="stop-color:navy; stop-opacity:1"/>
    </linearGradient>
    <linearGradient id="highNotes" x1="0%" y1="0%" x2="100%" y2="100%">
      <stop offset="0%" style="stop-color:yellow; stop-opacity:1"/>
      <stop offset="100%" style="stop-color:gold; stop-opacity:1"/>
    </linearGradient>
  </defs>

  <!-- Igloo shape -->
  <path id="igloo" d="M0,-30 A30,30 0 1,0 0,30 A50,50 0 1,0 0,-30 z" fill="url(#lowNotes)"/>

  <!-- Bar 1: Slow, melodic rhythm -->
  <circle cx="-40" cy="0" r="20" fill="url(#highNotes)" transform="rotate(90, -40, 0)">
    <animateMotion begin="0s" dur="1.5s" repeatCount="indefinite">
      <mpath href="#iglooPath"/>
    </animateMotion>
  </circle>
  <circle cx="-20" cy="0" r="15" fill="url(#lowNotes)" transform="rotate(90, -20, 0)">
    <animateMotion begin="1.5s" dur="1.5s" repeatCount="indefinite">
      <mpath href="#iglooPath"/>
    </animateMotion>
  </circle>

  <!-- Igloo path for animation -->
  <path id="iglooPath" d="M0,-30 A30,30 0 1,0 0,30 A50,50 0 1,0 0,-30 z" style="display:none"/>

  <!-- Bar 2: Continue the melody -->
  <circle cx="0" cy="0" r="18" fill="url(#highNotes)" transform="rotate(90, 0, 0)">
    <animateMotion begin="3s" dur="1.5s" repeatCount="indefinite">
      <mpath href="#iglooPath"/>
    </animateMotion>
  </circle>
  <circle cx="20" cy="0" r="16" fill="url(#lowNotes)" transform="rotate(90, 20, 0)">
    <animateMotion begin="4.5s" dur="1.5s" repeatCount="indefinite">
      <mpath href="#iglooPath"/>
    </animateMotion>
  </circle>

</svg>