<svg width="800" height="600" xmlns="http://www.w3.org/2000/svg">

  <!-- Igloo -->
  <path d="M150 150 Q200 75, 300 150 Q350 225, 400 150 Q450 75, 500 150 Q550 225, 600 150 Q650 75, 700 150" fill="#FFDEAD" stroke="#FFA500"/>
  <path d="M400 50 A100 100 0 0 0 200 150" fill="#FFF" stroke="#FFF"/>

  <!-- Snow -->
  <circle cx="670" cy="90" r="3" fill="#FFFFFF"/>
  <circle cx="640" cy="80" r="3" fill="#FFFFFF"/>
  <circle cx="610" cy="75" r="3" fill="#FFFFFF"/>

  <!-- Tableware -->
  <rect x="20" y="20" width="200" height="40" fill="#FFFDD0" stroke="#FFC300"/>
  <circle cx="110" cy="75" r="60" fill="#FFF" stroke="#FFF"/>

  <!-- Garnishes -->
  <circle cx="320" cy="280" r="20" fill="#009900"/>
  <path d="M320 310 Q340 350, 360 310" stroke="#009900" fill="transparent"/>

  <!-- Utensils -->
  <path d="M700 450 Q750 400, 800 450 Q750 500, 700 550" stroke="#AAA" fill="transparent"/>
  <rect x="690" y="520" width="30" height="30" fill="#AAA"/>

</svg>