<svg xmlns="http://www.w3.org/2000/svg" viewBox="-10 -10 400 400">

<!-- Green Hills -->
<path d="M10,30 Q50,70 100,30 Q150,10 200,30 Q250,70 300,30" fill="green" stroke="none"/>
<path d="M10,40 Q50,80 100,40 Q150,20 200,40 Q250,80 300,40" fill="lightgreen" stroke="none"/>

<!-- Blue River -->
<path d="M10,60 Q50,90 C150,70 250,90 300,60" fill="blue" stroke="black"/>
<path d="M10,70 Q50,100 C150,80 250,100 300,70" fill="lightblue" stroke="none"/>

<!-- White Igloo -->
<circle cx="160" cy="80" r="40" fill="white"/>
<path d="M120,80 A40,40 0 0 1 200,80" fill="none" stroke="black"/>

<!-- Brown Trees -->
<circle cx="30" cy="70" r="5" fill="brown"/>
<circle cx="60" cy="60" r="5" fill="brown"/>
<circle cx="90" cy="80" r="5" fill="brown"/>

<!-- Towering Trees -->
<path d="M30,70 L35,120" stroke="brown" fill="none"/>
<path d="M60,60 L65,110" stroke="brown" fill="none"/>
<path d="M90,80 L95,130" stroke="brown" fill="none"/>

</svg>