<svg xmlns="http://www.w3.org/2000/svg" viewBox="0 0 100 100">
  <!-- Outer dome -->
  <path d="M50,5 C64.78,19.44 77.78,46.44 77.78,75 C77.78,103.56 52.22,153.56 0,124.78 C-52.22,-28.78 -22.22,75 -22.22,97.78 C-22.22,120.78 -50,147.78 50,153.56 C98,147.78 148,-28.78 100,5 Z" fill="white"/>

  <!-- Inner dome -->
  <path d="M50,25 C64.78,19.44 77.78,38.44 77.78,60 C77.78,81.56 52.22,103.56 0,84.78 C-52.22,-19.78 -22.22,50 -22.22,67.78 C-22.22,80.78 -50,103.78 50,107.56 C98,103.78 148,-19.78 100,25 Z" fill="lightblue"/>

  <!-- Door -->
  <rect x="40" y="90" width="20" height="20" rx="10" fill="brown"/>
</svg>