<svg xmlns="http://www.w3.org/2000/svg" viewBox="0 0 600 450">

  <!-- Igloo -->
  <polygon points="180,75 360,75 360,150 180,150" fill="#6AB0F2"/>
  <circle cx="270" cy="90" r="30" fill="#FFF"/>
  <path d="M240,150 Q270,160 270,180" stroke="#6AB0F2" stroke-width="5"/>

  <!-- Snow around igloo -->
  <circle cx="190" cy="100" r="10" fill="#FFF"/>
  <circle cx="220" cy="95" r="8" fill="#FFF"/>
  <circle cx="310" cy="120" r="7" fill="#FFF"/>

  <!-- Other ingredients -->
  <rect x="40" y="200" width="60" height="60" fill="#FF7F50" rx="10"/> <!-- Tomato -->
  <path d="M90,230 Q110,210 130,230 H90 Z" fill="#FFF"/>
  <circle cx="110" cy="260" r="30" fill="#8BC53F"/> <!-- Cucumber -->

  <!-- Utensils and garnishes -->
  <path d="M470,30 Q480,50 490,30 H470 Z" stroke="#000" stroke-width="2"/> <!-- Fork -->
  <circle cx="510" cy="60" r="20" fill="#FFD700"/> <!-- Lemon slice -->

  <!-- Tableware -->
  <rect x="0" y="390" width="600" height="60" fill="#FFF"/>
  <path d="M0,450 Q10,470 20,450 H0 Z" fill="#000"/>

</svg>