<svg width="800" height="600" xmlns="http://www.w3.org/2000/svg">

  <!-- Background -->
  <rect width="100%" height="100%" fill="#e0f7fa"/>

  <!-- Hills -->
  <path d="M50,450 Q80,420 150,450 Q220,480 300,450 Q380,420 450,450 Q520,480 600,450 Q680,420 750,450 Q820,480 900,450 H1000 V600 H0 Z" fill="#3d9970" stroke="none"/>

  <!-- Rivers -->
  <path d="M50,500 Q80,520 150,500 Q220,540 300,500 Q380,520 450,500 Q520,540 600,500 Q680,520 750,500 Q820,540 900,500 H1000 V600 H0 Z" fill="url(#riverGradient)" stroke="none"/>
  <defs>
    <linearGradient id="riverGradient" x1="0%" y1="0%" x2="0%" y2="100%">
      <stop offset="0%" style="stop-color:#b3e5fc; stop-opacity:1"/>
      <stop offset="100%" style="stop-color:#84a98f; stop-opacity:1"/>
    </linearGradient>
  </defs>

  <!-- Igloo -->
  <circle cx="650" cy="275" r="150" fill="#ffffff"/>

  <!-- Trees -->
  <g transform="matrix(0.7,0,0,0.7,350,400)">
    <path d="M250,50 A150,150 0 1,1 750,50 A150,150 0 1,1 250,650 Z" fill="#8b4513"/>
    <path d="M250,50 L250,650 L750,650 L750,50 Z" stroke="#693d1a" stroke-width="20"/>
  </g>

  <!-- Paths -->
  <path d="M50,450 Q80,420 150,450 Q220,480 300,450 L600,450 Z" stroke="#8b7d6b" stroke-width="20"/>

</svg>