<svg xmlns="http://www.w3.org/2000/svg" viewBox="-10 0 260 340">
  <!-- Sleeves -->
  <circle cx="50" cy="75" r="40" fill="#66CDAA"/>
  <circle cx="200" cy="75" r="40" fill="#66CDAA"/>

  <!-- Bodice -->
  <path d="M10,90 Q50,75 100,90 T200,90 Q150,75 200,90" fill="#fff"/>

  <!-- Igloo details -->
  <path d="M75,130 A40,40 0 0 0 150,130 A40,40 0 0 1 75,60" fill="#FFA500"/>
  <rect x="90" y="180" width="20" height="30" rx="5" fill="#fff"/>

  <!-- Gradients for dynamic effects -->
  <linearGradient id="grad1" x1="0%" y1="0%" x2="100%" y2="0%">
    <stop offset="0%" style="stop-color:#66CDAA;stop-opacity:1"/>
    <stop offset="100%" style="stop-color:#fff;stop-opacity:1"/>
  </linearGradient>
  <linearGradient id="grad2" x1="0%" y1="100%" x2="100%" y2="0%">
    <stop offset="0%" style="stop-color:#FFA500;stop-opacity:1"/>
    <stop offset="100%" style="stop-color:#fff;stop-opacity:1"/>
  </linearGradient>

  <!-- Apply gradients -->
  <rect width="260" height="340" fill="url(#grad1)"/>
  <path d="M75,130 A40,40 0 0 0 150,130 A40,40 0 0 1 75,60" fill="url(#grad2)"/>
</svg>