<svg width="600" height="400" xmlns="http://www.w3.org/2000/svg">
  <!-- Plate -->
  <ellipse cx="300" cy="250" rx="250" ry="170" fill="#FFF1E6"/>
  <!-- Jellyfish -->
  <g transform="translate(180, 150)">
    <path d="M20,15 A15,15 0 1,0 30,-15 A15,15 0 1,0 20,15" fill="#D4F9FF"/>
    <circle cx="20" cy="-15" r="8" fill="#25A7C1"/>
    <path d="M15,-30 Q25,-25 15,-5 L15,-30" stroke="#25A7C1" fill="transparent"/>
  </g>
  <!-- Lemon wedge garnish -->
  <polygon points="400,50 450,50 425,0" fill="#FDB813" transform="rotate(20, 425, 25)"/>
  <!-- Chopsticks -->
  <path d="M520,70 Q550,90 600,70 Q550,50 520,70" stroke="#BB860B" fill="transparent"/>
  <!-- Bowl with rice -->
  <ellipse cx="300" cy="180" rx="100" ry="70" fill="#F4D03F"/>
  <!-- Tableware shadow -->
  <rect x="50" y="350" width="500" height="50" fill="#CCA36B" opacity=".2"/>
</svg>