<svg width="300" height="250" xmlns="http://www.w3.org/2000/svg">

  <!-- Plate -->
  <circle cx="150" cy="175" r="125" fill="#FFD700"/>

  <!-- Jellyfish -->
  <g stroke="#0066CC" stroke-width="2">
    <path d="M140,70 q30,-40 60,0 q30,40 60,0 Q170,90 140,70"/>
    <path d="M150,80 a50,50 0 1,0 -20,20 a50,50 0 1,0 20,-20"/>
    <circle cx="150" cy="60" r="30" fill="#FFD700"/>

    <!-- Tentacles -->
    <g stroke-width="1">
      <path d="M140,90 q-20,-20 -40,0 l-20,-20"/>
      <path d="M160,90 q20,-20 40,0 l20,-20"/>
    </g>
  </g>

  <!-- Ginger slices -->
  <circle cx="80" cy="150" r="15" fill="#F7A35C"/>
  <circle cx="160" cy="150" r="15" fill="#F7A35C"/>

  <!-- Wasabi -->
  <polygon points="240,90 270,90 250,120" fill="#D1B28C"/>

  <!-- Chopsticks -->
  <path d="M290,90 l-30,-60 a10,10 0 0,0 -10,10 l-30,60" stroke="#704214" fill="transparent"/>
  <path d="M290,90 l-30,-30 a5,5 0 0,0 -5,5 l-30,30" stroke="#704214" fill="transparent"/>

  <!-- Garnish (greenery) -->
  <polygon points="260,180 270,190 250,190" fill="green"/>
  <polygon points="250,170 240,180 250,190" fill="green"/>

</svg>