<svg width="800" height="600" xmlns="http://www.w3.org/2000/svg">

<!-- Plate -->
<rect x="100" y="50" width="600" height="450" fill="#fff" stroke="#8b7d6e" stroke-width="5"/>

<!-- Jellyfish (star ingredient) -->
<path d="M300,200 q100,-50 -100,-100 a90,90 0 0,0 -140,0 a90,90 0 0,0 140,0 Q300,150 300,200" fill="url(#jellyfishGradient)" stroke="#fff"/>
<defs>
  <radialGradient id="jellyfishGradient" cx="0.5" cy="0.5" r="0.5">
    <stop offset="0%" style="stop-color:#8fbfd4; stop-opacity:1"/>
    <stop offset="100%" style="stop-color:#3a4786; stop-opacity:1"/>
  </radialGradient>
</defs>

<!-- Squid -->
<path d="M250,250 q-50,-50 -50,-100 a50,50 0 0,1 100,0 Q200,200 250,250" fill="#fff"/>
<circle cx="300" cy="275" r="25" fill="#8b7d6e"/>

<!-- Mussels -->
<path d="M400,225 q-25,-10 -50,0 a25,25 0 0,1 -25,-25 Q350,200 400,225" fill="#69b3a3"/>
<path d="M375,200 q-10,-5 -25,0 a25,25 0 0,1 -25,25 Q350,225 375,200" fill="#69b3a3"/>

<!-- Edible flowers (garnish) -->
<circle cx="180" cy="150" r="10" fill="#ffd34e"/>
<circle cx="220" cy="130" r="10" fill="#ffd34e"/>
<circle cx="270" cy="160" r="10" fill="#ffd34e"/>

<!-- Fork -->
<path d="M550,200 q-50,-50 -100,-5 a10,10 0 0,0 -20,20 Q450,250 550,200" fill="#8b7d6e"/>

<!-- Spoon -->
<path d="M600,300 q-20,-20 -40,-10 a40,40 0 0,0 -40,40 Q560,340 600,300" fill="#8b7d6e"/>

<!-- Tableware -->
<rect x="10" y="50" width="80" height="50" fill="#fff"/>
<text x="20" y="75" font-family="Verdana" font-size="20">Tableware</text>

</svg>