<svg width="800" height="600" xmlns="http://www.w3.org/2000/svg">

  <!-- Gradient for sky -->
  <defs>
    <linearGradient id="skyGrad" x1="0%" y1="0%" x2="100%" y2="100%">
      <stop offset="0%" style="stop-color:rgb(75,207,234);stop-opacity:1" />
      <stop offset="100%" style="stop-color:rgb(238,237,230);stop-opacity:1" />
    </linearGradient>
  </defs>

  <!-- Sky -->
  <rect width="800" height="600" fill="url(#skyGrad)"/>

  <!-- Rolling hills -->
  <path d="M50,400 Q150,350 250,400 Q350,450 450,400 Q550,350 650,400 Q750,450 850,400"
        fill="url(#hillGrad)" stroke-width="1" stroke="rgb(255,255,255)"/>

  <linearGradient id="hillGrad" x1="0%" y1="0%" x2="100%" y2="100%">
    <stop offset="0%" style="stop-color:rgb(92,184,92);stop-opacity:1" />
    <stop offset="100%" style="stop-color:rgb(163,207,85);stop-opacity:1" />
  </linearGradient>

  <!-- River -->
  <path d="M80,550 Q220,580 360,550 Q500,580 640,550"
        fill="url(#riverGrad)" stroke-width="1" stroke="rgb(0,0,0)"/>

  <linearGradient id="riverGrad" x1="0%" y1="0%" x2="100%" y2="100%">
    <stop offset="0%" style="stop-color:rgb(51,167,204);stop-opacity:1" />
    <stop offset="100%" style="stop-color:rgb(131,208,217);stop-opacity:1" />
  </linearGradient>

  <!-- Towering trees -->
  <g transform="translate(50,40)">
    <circle cx="60" cy="20" r="15" fill="rgb(39,48,20)" />
    <polygon points="70,10 130,10 100,90" fill="rgb(5,128,3)"/>
    <circle cx="60" cy="10" r="5" fill="rgb(255,255,255)" />
  </g>

  <!-- Jellyfish -->
  <g transform="translate(400,300)">
    <circle cx="50" cy="50" r="45" fill="url(#jellyGrad)" stroke-width="1" stroke="rgb(255,255,255)"/>
    <path d="M50,50 L60,70 L50,90 Z" fill="rgb(255,255,255)" />
  </g>

  <radialGradient id="jellyGrad" cx="50%" cy="50%" r="50%" fx="50%" fy="50%">
    <stop offset="0%" style="stop-color:rgb(236,98,187);stop-opacity:1" />
    <stop offset="100%" style="stop-color:rgb(194,147,224);stop-opacity:1" />
  </radialGradient>

</svg>