<svg width="800" height="600" xmlns="http://www.w3.org/2000/svg">

  <!-- Background -->
  <rect x="0" y="0" width="100%" height="100%" fill="#ECE9D8"/>

  <!-- Rolling Hills -->
  <path d="M0,50 Q200,100 400,50 Q600,150 800,50 L800,600 H0 Z" fill="#C3BEBE"
        stroke-width="0"/>

  <!-- Winding River -->
  <path d="M200,350 Q400,200 600,350 Q800,500 1000,350 L1000,600 H200 Z"
        fill="#A2D9FF" stroke-width="0"/>

  <!-- Towering Trees -->
  <g id="tree">
    <circle cx="250" cy="450" r="75" fill="#8B4513"/>
    <rect x="200" y="350" width="100" height="100" fill="#693D1F"/>
  </g>
  <use href="#tree" x="450" y="400"/>
  <use href="#tree" x="700" y="450"/>

  <!-- Jellyfish -->
  <circle cx="500" cy="250" r="150" fill="url(#jellyfishGradient)"/>

  <!-- Jellyfish Tentacles -->
  <g id="tentacle">
    <path d="M500,250 Q450,350 500,450 Q550,350 500,250"/>
  </g>
  <use href="#tentacle" x="450" y="180" transform="rotate(60, 500, 250)" fill="#FFFFFF"/>
  <use href="#tentacle" x="550" y="180" transform="rotate(-60, 500, 250)" fill="#FFFFFF"/>

  <!-- Jellyfish Gradient -->
  <defs>
    <linearGradient id="jellyfishGradient" gradientTransform="rotate(90)">
      <stop offset="0%" style="stop-color:#FFD700; stop-opacity:1"/>
      <stop offset="50%" style="stop-color:#FFF34F; stop-opacity:1"/>
      <stop offset="100%" style="stop-color:#FFD700; stop-opacity:1"/>
    </linearGradient>
  </defs>

</svg>