<svg width="800" height="600" xmlns="http://www.w3.org/2000/svg">

<!-- Background gradient -->
<defs>
    <linearGradient id="gradientBackground" x1="0%" y1="0%" x2="100%" y2="100%">
        <stop offset="0%" style="stop-color:rgb(135,206,235);stop-opacity:1" />
        <stop offset="100%" style="stop-color:rgb(74,144,192);stop-opacity:1" />
    </linearGradient>
</defs>

<rect width="800" height="600" fill="url(#gradientBackground)"/>

<!-- Rolling hills -->
<path d="M 50,300 Q 150,350 300,300 Q 450,250 600,300 Q 750,350 800,300" stroke="black" fill="none" stroke-width="2"/>
<path d="M 50,450 Q 150,400 300,450 Q 450,500 600,450 Q 750,400 800,450" stroke="black" fill="none" stroke-width="2"/>

<!-- Winding river -->
<path d="M 100,350 C 150,320 250,390 350,350 S 550,320 650,350" stroke="blue" fill="none" stroke-width="4"/>
<path d="M 100,400 C 150,380 250,440 350,400 S 550,380 650,400" stroke="blue" fill="none" stroke-width="2"/>

<!-- Towering trees -->
<circle cx="700" cy="500" r="100" fill="url(#treeGradient)" />
<defs>
    <linearGradient id="treeGradient" x1="0%" y1="0%" x2="100%" y2="100%">
        <stop offset="0%" style="stop-color:rgb(34,139,34);stop-opacity:1" />
        <stop offset="100%" style="stop-color:rgb(87,146,60);stop-opacity:1" />
    </linearGradient>
</defs>

<!-- Jellyfish -->
<circle cx="400" cy="350" r="100" fill="url(#jellyfishGradient)" />
<defs>
    <radialGradient id="jellyfishGradient" cx="50%" cy="50%" r="50%">
        <stop offset="0%" style="stop-color:rgb(238,99,99);stop-opacity:1" />
        <stop offset="100%" style="stop-color:rgb(255,0,0);stop-opacity:1" />
    </radialGradient>
</defs>

<!-- Jellyfish tentacles -->
<path d="M 400,250 Q 375,175 425,175 Q 475,225 400,275" stroke="pink" fill="none" stroke-width="8"/>
<path d="M 400,250 Q 325,125 475,125 Q 525,175 400,200" stroke="pink" fill="none" stroke-width="6"/>

</svg>