<svg width="500" height="350" xmlns="http://www.w3.org/2000/svg">

<!-- Plate -->
<circle cx="175" cy="200" r="90" fill="#FFB6C1"/>

<!-- Jellyfish -->
<g transform="translate(140, 80)">
    <path d="M 10 35 A 30 30 0 0 0 10 75 Q 20 95 10 115 A 30 30 0 0 0 10 135" stroke="#6B8E23" fill="none" stroke-width="4"/>
    <circle cx="10" cy="100" r="7" fill="#FFD700"/>
</g>

<!-- Sauce drizzle -->
<path d="M 190 150 Q 200 130 210 150 Q 220 160 230 150" stroke="#8B4513" fill="none" stroke-width="2"/>

<!-- Garnish: edible flowers -->
<circle cx="90" cy="270" r="7" fill="#FF69B4"/>
<circle cx="110" cy="270" r="5" fill="#DAA520"/>
<circle cx="130" cy="270" r="7" fill="#FF69B4"/>

<!-- Utensils: fork -->
<path d="M 300 300 L 280 280 L 300 260 Z" fill="#C0C0C0"/>
<path d="M 310 290 Q 305 270 315 270 Q 320 290 310 310" stroke="#C0C0C0" fill="none" stroke-width="2"/>

<!-- Tableware: napkin -->
<rect x="400" y="280" width="40" height="50" rx="5" fill="#FFFFFF"/>
<path d="M 410 320 Q 400 330 390 330 Q 380 320 390 310 Z" stroke="#C0C0C0" fill="none" stroke-width="2"/>

</svg>