<svg width="100" height="100" xmlns="http://www.w3.org/2000/svg">

  <!-- Jellyfish body -->
  <circle cx="50" cy="50" r="40" fill="#f7941e">
    <animate attributeName="r" values="40;30;40" dur="1s" repeatCount="indefinite"/>
  </circle>

  <!-- Tentacles -->
  <g stroke="#fff" stroke-width="2">
    <path d="M50,10 A30,30 0 1,0 90,10 30,30 0 1,0 50,10"/>
    <path d="M50,10 A30,30 0 1,0 10,10 30,30 0 1,0 50,10"/>
    <path d="M50,10 A30,30 0 1,0 40,80 30,30 0 1,0 60,80 30,30 0 1,0 50,10"/>
    <path d="M50,10 A30,30 0 1,0 70,80 30,30 0 1,0 40,80"/>
  </g>

</svg>