<svg width="100%" height="100%" xmlns="http://www.w3.org/2000/svg" viewBox="-50 -50 100 100">

  <!-- Bodice -->
  <rect x="-40" y="-40" width="80" height="60" fill="url(#grad1)"/>
  <path d="M-20,-30 Q-20,-15 -40,-20 Q-60,-15 -60,-30" stroke="#000" fill="transparent"/>

  <!-- Sleeves -->
  <circle cx="-30" cy="-20" r="15"/>
  <rect x="-48" y="-12" width="8" height="24"/>
  <circle cx="30" cy="-20" r="15"/>
  <rect x="28" y="-12" width="8" height="24"/>

  <!-- Tentacles -->
  <path d="M-40,-20 Q-50,-10 -60,-20 Q-70,-30 -60,-40 Q-50,-50 -40,-40" stroke="#4B0082" fill="transparent"/>
  <circle cx="-60" cy="-40" r="10" fill="#FFC0CB"/>
  <path d="M40,-20 Q30,-10 20,-20 Q10,-30 0,-40 Q-10,-50 -40,-40" stroke="#4B0082" fill="transparent"/>
  <circle cx="0" cy="-40" r="10" fill="#FFC0CB"/>

  <!-- White dots pattern -->
  <defs>
    <pattern id="dots" patternUnits="userSpaceOnUse" width="5" height="5">
      <circle cx="2.5" cy="2.5" r="2.5" fill="#FFF"/>
    </pattern>
  </defs>
  <rect x="-60" y="-40" width="120" height="80" fill="url(#dots)"/>

  <!-- Gradients -->
  <defs>
    <linearGradient id="grad1" x1="0%" y1="0%" x2="0%" y2="100%">
      <stop offset="0%"   style="stop-color:rgb(87,206,235);stop-opacity:1"/>
      <stop offset="100%" style="stop-color:rgb(0,61,98);stop-opacity:1"/>
    </linearGradient>
  </defs>

</svg>