<svg width="1000" height="600" xmlns="http://www.w3.org/2000/svg">
  <!-- Background Gradient -->
  <defs>
    <linearGradient id="grad1" x1="0%" y1="0%" x2="100%" y2="100%">
      <stop offset="0%" style="stop-color:rgb(135,206,235);stop-opacity:1"/>
      <stop offset="100%" style="stop-color:rgb(74,134,232);stop-opacity:1"/>
    </linearGradient>
  </defs>
  <rect width="100%" height="100%" fill="url(#grad1)"/>

  <!-- Rolling Hills -->
  <path d="M0 50 Q150 70, 300 50 Q450 70, 600 50 Q750 70, 900 50" stroke="green" fill="none" stroke-width="2"/>

  <!-- Winding River -->
  <path d="M100 100 Q300 80, 500 100 Q700 80, 900 100" stroke="blue" fill="none" stroke-width="2"/>

  <!-- Towering Trees -->
  <circle cx="250" cy="40" r="30" fill="brown"/>
  <circle cx="450" cy="40" r="30" fill="brown"/>
  <circle cx="650" cy="40" r="30" fill="brown"/>

  <!-- Jellyfish -->
  <g transform="translate(500,150) scale(0.8)">
    <path d="M0 -50 a50 50 0 1 0 100 0 a50 50 0 1 0 -100 0" fill="pink" stroke="black"/>
    <circle cx="0" cy="-40" r="20" fill="yellow"/>
    <path d="M-30 -90 Q0 -80, 30 -90" stroke="black" fill="transparent"/>
    <path d="M30 -90 Q0 -80, -30 -90" stroke="black" fill="transparent"/>
  </g>
</svg>