<svg width="200" height="200" xmlns="http://www.w3.org/2000/svg">

  <!-- Bell (Body) -->
  <circle cx="100" cy="100" r="100" fill="#ADD8E6" fill-opacity="0.7"/>

  <!-- Tentacles -->
  <g stroke="#FFFFFF" stroke-width="3">
    <!-- Large Tentacles -->
    <g transform="rotate(45 100 100)">
      <path d="M100,0 l-25,-80 a5,5 0 0,0 -5,5 l75,0 a5,5 0 0,0 5,-5 l-25,80" fill="#FFC0CB" fill-opacity="0.6"/>
      <path d="M100,0 l25,-80 a5,5 0 0,0 5,-5 l75,0 a5,5 0 0,0 5,5 l-25,80" fill="#FFC0CB" fill-opacity="0.6"/>
    </g>
    <g transform="rotate(135 100 100)">
      <path d="M100,0 l-25,-40 a2.5,2.5 0 0,0 -2.5,2.5 l75,0 a2.5,2.5 0 0,0 2.5,-2.5 l-25,40" fill="#FFC0CB" fill-opacity="0.6"/>
      <path d="M100,0 l25,-40 a2.5,2.5 0 0,0 2.5,-2.5 l75,0 a2.5,2.5 0 0,0 2.5,2.5 l-25,40" fill="#FFC0CB" fill-opacity="0.6"/>
    </g>
  </g>

</svg>