<svg xmlns="http://www.w3.org/2000/svg" viewBox="0 0 800 600">

<!-- Background -->
<rect width="100%" height="100%" fill="#F5F5DC"/>

<!-- Plate -->
<circle cx="400" cy="300" r="250" fill="#FFFFFF"/>
<path d="M275 300 Q350 275, 400 300 Q450 275, 325 300 Z" stroke="#8B4513" stroke-width="2"/>

<!-- Jellyfish -->
<g transform="translate(200, 200)">
    <!-- Umbrella -->
    <path d="M0,-100 A100,100 0 1 0 0,100 A100,100 0 1 0 0,-100" fill="#87CEEB"/>
    <!-- Tentacles -->
    <g stroke="#436EEE" stroke-width="5">
        <path d="M-20,-90 Q-50,-70 -80,-50"/>
        <path d="M20,-90 Q50,-70 80,-50"/>
    </g>
</g>

<!-- Cucumber slices -->
<circle cx="130" cy="420" r="40" fill="#D1FFBD"/>
<circle cx="260" cy="420" r="40" fill="#D1FFBD"/>

<!-- Cherry tomatoes -->
<circle cx="580" cy="470" r="20" fill="#FF6347"/>
<circle cx="660" cy="470" r="20" fill="#FF6347"/>

<!-- Microgreens garnish -->
<polygon points="-15,-15 15,-15 15,15 -15,15" fill="#8DC63C"/>
<use xlink:href="#microgreen" transform="translate(170,425) rotate(-45)" fill="#8DC63C"/>
<use xlink:href="#microgreen" transform="translate(240,425) rotate(45)" fill="#8DC63C"/>

<!-- Microgreens pattern -->
<defs>
    <pattern id="microgreen-pattern" patternUnits="userSpaceOnUse" width="10" height="10">
        <use xlink:href="#microgreen" x="0" y="0"/>
        <use xlink:href="#microgreen" x="5" y="5" fill="#7BC968"/>
    </pattern>
</defs>

<!-- Fork -->
<path d="M25,300 Q10,-40 200,-40 Q380,-40 400,300 Q380,660 200,660 Q10,660 25,300" stroke="#C0C0C0" fill="transparent"/>

<!-- Knife -->
<path d="M50,300 Q15,-40 180,-40 Q300,-40 400,300 Q300,660 180,660 Q15,660 50,300" stroke="#C0C0C0" fill="transparent"/>

</svg>