<svg width="800" height="600" xmlns="http://www.w3.org/2000/svg">

  <!-- Background -->
  <rect x="0" y="0" width="800" height="600" fill="#C0E6FF"/>

  <!-- Rolling hills -->
  <path d="M10,40 Q50,75 120,40 Q190,100 310,40 Q440,75 580,40 Q730,100 800,40" stroke="#8B9DC3" fill="none" stroke-width="2"/>
  <path d="M800,40 Q730,75 610,40 Q500,100 390,40 Q260,75 150,40 Q40,75 10,40" stroke="#8B9DC3" fill="none" stroke-width="2"/>

  <!-- Winding river -->
  <path d="M50,200 C100,150 200,175 300,150 C400,125 500,150 600,125" stroke="#3A98C5" fill="none" stroke-width="2"/>
  <path d="M600,125 A50,50 0 0 0 700,175" stroke="#3A98C5" fill="#3A98C5" stroke-width="2"/>

  <!-- Towering trees -->
  <g transform="translate(400,150)">
    <circle cx="0" cy="-50" r="50" fill="#6D7F4E"/>
    <path d="M0,-50 L-25,-25 L25,-25 Z" stroke="#8B9DC3" fill="#8B9DC3"/>
    <circle cx="0" cy="-100" r="30" fill="#6D7F4E"/>
    <path d="M0,-100 L-15,-75 L15,-75 Z" stroke="#8B9DC3" fill="#8B9DC3"/>
  </g>

  <!-- Jellyfish -->
  <circle cx="400" cy="250" r="60" fill="url(#jellyfishGradient)"/>
  <path d="M400,190 A60,60 0 0 1 340,250 Q370,300 400,340 Q430,300 360,250" stroke="#FFFFFF" fill="none" stroke-width="5"/>

  <!-- Jellyfish gradient -->
  <defs>
    <radialGradient id="jellyfishGradient" cx="0.5" cy="0.5" r="1">
      <stop offset="0%" style="stop-color: #FFF; stop-opacity: 1"/>
      <stop offset="100%" style="stop-color: #98FB98; stop-opacity: 0"/>
    </radialGradient>
  </defs>

</svg>