<svg xmlns="http://www.w3.org/2000/svg" viewBox="0 0 500 600">
  <!-- Bell-shaped body of the jellyfish -->
  <path id="body" d="M250,10 Q400,200 300,400 Q100,200 250,10"
        fill="#98FB98" opacity="0.7"/>
  <path id="body-shadow" d="M250,10 Q400,200 300,400 Q100,200 250,10"
        fill="#6B8E23" opacity="0.4"/>

  <!-- Oral arms -->
  <g id="arms">
    <path d="M250,400 L320,470 L130,470 Z"
          fill="#FFFFFF" stroke="#000000" stroke-width="2"/>
    <path d="M250,400 L380,470 L90,470 Z"
          fill="#FFFFFF" stroke="#000000" stroke-width="2"/>
  </g>

  <!-- Tentacles -->
  <g id="tentacles">
    <path d="M250,50 Q300,150 280,250 Q220,150 250,50"
          fill="#FFFFFF" stroke="#000000" stroke-width="2"/>
    <path d="M250,50 Q200,150 180,250 Q120,150 250,50"
          fill="#FFFFFF" stroke="#000000" stroke-width="2"/>
  </g>

  <!-- Eyes (simple circles) -->
  <circle cx="270" cy="380" r="10" fill="#000000"/>
  <circle cx="230" cy="380" r="10" fill="#000000"/>

  <!-- Outline of the jellyfish -->
  <path id="outline" d="M250,10 Q400,200 300,400 Q100,200 250,10"
        stroke="#000000" stroke-width="4"/>

</svg>