<svg width="800" height="600" xmlns="http://www.w3.org/2000/svg">

<!-- Background -->
<rect width="100%" height="100%" fill="#E5FCC2"/>

<!-- Terrain -->
<ellipse cx="400" cy="500" rx="600" ry="300" fill="url(#terrain)">
  <animate attributeName="opacity" values="1;0.8;1" dur="3s" repeatCount="indefinite"/>
</ellipse>

<!-- Rivers -->
<path d="M200,450 Q300,400 600,450 T900,450" stroke="#B0E0E6" fill="transparent" stroke-width="15"/>
<path d="M200,550 Q300,600 600,550 T900,550" stroke="#B0E0E6" fill="transparent" stroke-width="15"/>

<!-- Hills -->
<path d="M0,400 Q200,350 400,400 Q600,450 800,400 Q900,350 1000,400" stroke="#D7D7D7" fill="transparent" stroke-width="2"/>

<!-- Trees -->
<rect x="250" y="250" width="50" height="300" fill="url(#tree)"/>
<rect x="350" y="280" width="50" height="270" fill="url(#tree)"/>
<rect x="450" y="220" width="50" height="330" fill="url(#tree)"/>

<!-- Jellyfish -->
<circle cx="500" cy="420" r="60" fill="url(#jellyfish)">
  <animateTransform attributeName="transform" type="rotate" from="0 500 420" to="360 500 420" dur="6s" repeatCount="indefinite"/>
</circle>
<circle cx="600" cy="470" r="40" fill="url(#jellyfish)"/>
<circle cx="700" cy="380" r="50" fill="url(#jellyfish)"/>

<!-- Defs -->
<defs>
  <linearGradient id="terrain" x1="0%" y1="0%" x2="0%" y2="100%">
    <stop offset="0%" style="stop-color:#D7D7D7;stop-opacity:1"/>
    <stop offset="100%" style="stop-color:#A9A9A9;stop-opacity:1"/>
  </linearGradient>
  <linearGradient id="tree" x1="0%" y1="0%" x2="0%" y2="100%">
    <stop offset="0%" style="stop-color:#6B483C;stop-opacity:1"/>
    <stop offset="100%" style="stop-color:#292523;stop-opacity:1"/>
  </linearGradient>
  <radialGradient id="jellyfish" cx="50%" cy="50%" r="50%" fx="50%" fy="50%">
    <stop offset="0%" style="stop-color:#FF6F91;stop-opacity:1"/>
    <stop offset="100%" style="stop-color:#FFC3A0;stop-opacity:1"/>
  </radialGradient>
</defs>

</svg>