<svg width="200" height="200" xmlns="http://www.w3.org/2000/svg">
  <defs>
    <linearGradient id="gradient1" x1="0%" y1="0%" x2="0%" y2="100%">
      <stop offset="0%" style="stop-color:rgb(153,0,77);stop-opacity:1" />
      <stop offset="100%" style="stop-color:rgb(65,105,225);stop-opacity:1" />
    </linearGradient>
    <linearGradient id="gradient2" x1="50%" y1="0%" x2="50%" y2="100%">
      <stop offset="0%" style="stop-color:rgb(255,255,255);stop-opacity:.6" />
      <stop offset="100%" style="stop-color:rgb(255,255,255);stop-opacity:0" />
    </linearGradient>
  </defs>

  <!-- Body -->
  <circle cx="100" cy="100" r="90" fill="url(#gradient1)" stroke="black" stroke-width="3"/>

  <!-- Mouth -->
  <circle cx="100" cy="145" r="8" fill="black"/>

  <!-- Tentacles -->
  <path d="M100,70 Q90,60 80,70 T70,80 Q90,90 100,100 Q110,90 120,80 Z" fill="url(#gradient1)"/>
  <path d="M100,70 Q110,60 120,70 T130,80 Q110,90 100,100 Q90,90 80,80 Z" fill="url(#gradient1)"/>
  <path d="M100,70 Q90,60 80,70 T70,80 Q90,90 100,100 Q110,90 120,80 Z" fill="url(#gradient1)"/>
  <path d="M100,70 Q95,65 105,75 T115,85 Q95,95 100,105 Q105,95 115,85 Z" fill="url(#gradient1)"/>
  <path d="M100,70 Q105,65 95,75 T85,85 Q105,95 100,105 Q95,95 85,85 Z" fill="url(#gradient1)"/>
  <path d="M100,70 Q110,60 120,70 T130,80 Q110,90 100,100 Q90,90 80,80 Z" fill="url(#gradient1)"/>
  <path d="M100,70 Q90,60 80,70 T70,80 Q90,90 100,100 Q110,90 120,80 Z" fill="url(#gradient1)"/>
  <path d="M100,70 Q110,60 120,70 T130,80 Q110,90 100,100 Q90,90 80,80 Z" fill="url(#gradient1)"/>

  <!-- Bell -->
  <circle cx="100" cy="5" r="45" fill="url(#gradient2)" stroke="white" stroke-width="3"/>
</svg>