<svg xmlns="http://www.w3.org/2000/svg" viewBox="0 0 600 450">

  <!-- Plate -->
  <path d="M100 40 A80 80 0 0 1 500 40 A80 80 0 0 1 100 480 Q200 500 300 500 Q400 500 500 480 Z" fill="#fff" stroke="#ccc"/>

  <!-- Jellyfish -->
  <g transform="translate(175, 150)">
    <circle cx="60" cy="60" r="60" fill="lightblue"/>
    <path d="M60 0 a50 50 0 1 0 100 0 a50 50 0 0 0 -100 0" stroke="#3897d4" fill="transparent"/>
    <polygon points="-25,-25,25,-25,25,25,-25,25" fill="#3897d4"/>
  </g>

  <!-- Ingredients -->
  <circle cx="150" cy="200" r="30" fill="#ffa502" /> <!-- Carrot -->
  <polygon points="225,175 250,200 225,225" fill="#8dc63f"/> <!-- Spinach -->

  <!-- Utensils -->
  <path d="M400 250 l50 -50 50 50 Z" fill="#fff" stroke="#ccc" /> <!-- Fork -->
  <rect x="425" y="175" width="50" height="75" fill="#fff" stroke="#ccc" /> <!-- Knife -->

  <!-- Garnishes -->
  <circle cx="300" cy="300" r="15" fill="#ff6f91"/> <!-- Cherry tomato -->
  <path d="M280 315 l-15 -15 30 -30 Z" fill="#fff"/> <!-- Lemon wedge -->

  <!-- Tableware -->
  <rect x="550" y="400" width="50" height="40" fill="#3d9970" /> <!-- Napkin -->

</svg>