<svg xmlns="http://www.w3.org/2000/svg" viewBox="0 0 800 600">
  <!-- Scene 1 -->
  <g id="scene1">
    <circle cx="400" cy="300" r="50" fill="pink" />
    <rect x="200" y="200" width="400" height="200" fill="lightblue" />
    <text x="50%" y="10%" text-anchor="middle" font-family="Arial" font-size="36">Underwater World at Dawn</text>
  </g>

  <!-- Scene 2 -->
  <g id="scene2">
    <circle cx="400" cy="300" r="50" fill="pink" />
    <path d="M300,150 Q350,50 400,150 Q450,50 500,150" stroke="black" fill="transparent" />
    <text x="50%" y="70%" text-anchor="middle" font-family="Arial" font-size="36">Jellyfish Meets the Sea Witch</text>
  </g>

  <!-- Scene 3 -->
  <g id="scene3">
    <circle cx="400" cy="300" r="50" fill="pink" />
    <path d="M350,250 Q400,150 450,250 Q350,350 400,300" stroke="black" fill="transparent" />
    <text x="50%" y="85%" text-anchor="middle" font-family="Arial" font-size="36">Dance Rehearsal</text>
  </g>

  <!-- Scene 4 -->
  <g id="scene4">
    <circle cx="400" cy="300" r="50" fill="pink" />
    <path d="M200,100 Q350,150 500,100 Q350,50 200,100" stroke="black" fill="transparent" />
    <text x="50%" y="65%" text-anchor="middle" font-family="Arial" font-size="36">The Magical Night</text>
  </g>

  <!-- Scene 5 -->
  <g id="scene5">
    <circle cx="400" cy="300" r="50" fill="pink" />
    <path d="M200,400 Q350,450 500,400 Q350,350 200,400" stroke="black" fill="transparent" />
    <text x="50%" y="80%" text-anchor="middle" font-family="Arial" font-size="36">Cleanup Day</text>
  </g>

  <!-- Scene 6 -->
  <g id="scene6">
    <circle cx="400" cy="300" r="50" fill="pink" />
    <path d="M200,300 Q350,350 500,300 Q350,250 200,300" stroke="black" fill="transparent" />
    <text x="50%" y="95%" text-anchor="middle" font-family="Arial" font-size="36">Celebration</text>
  </g>
</svg>