<svg width="800" height="600" xmlns="http://www.w3.org/2000/svg">

  <!-- Background -->
  <rect x="0" y="0" width="800" height="600" fill="#f5deb3" />

  <!-- Rolling Hills -->
  <path d="M 10,40 Q 90,70 270,40 Q 450,70 730,40 Q 810,70 800,40 H 0 Z" fill="#a5d6a7" />
  <path d="M 10,90 Q 90,120 270,90 Q 450,120 730,90 Q 810,120 800,90 H 0 Z" fill="#a5d6a7" opacity="0.7" />
  <path d="M 10,140 Q 90,170 270,140 Q 450,170 730,140 Q 810,170 800,140 H 0 Z" fill="#a5d6a7" opacity="0.5" />

  <!-- Winding River -->
  <path d="M 200,190 C 350,250 550,200 700,250 S 800,400 600,350 S 400,500 200,350" stroke="#6c91c2" fill="transparent" stroke-width="5" />

  <!-- Towering Trees -->
  <g transform="translate(120,180)">
    <circle cx="0" cy="-40" r="40" fill="#7b4723" />
    <rect x="-10" y="-60" width="20" height="60" fill="#5d402c" />
    <polygon points="0,-20 10,-80 0,-120 10,-60" fill="#3e9650" opacity="0.7" />
  </g>
  <use href="#tree" x="240"/>
  <use href="#tree" x="360"/>

  <!-- Jellyfish -->
  <defs>
    <linearGradient id="grad1" x1="0%" y1="0%" x2="100%" y2="100%">
      <stop offset="0%" style="stop-color:#ff7f50;stop-opacity:1" />
      <stop offset="100%" style="stop-color:#ffffff;stop-opacity:1" />
    </linearGradient>
  </defs>
  <circle cx="400" cy="230" r="80" fill="url(#grad1)" />
  <path d="M 400,230 Q 350,180 370,160 Q 430,180 410,230" stroke="#ffa07a" fill="transparent" stroke-width="5" />
  <path d="M 400,230 Q 450,180 390,160 Q 370,180 390,230" stroke="#ffa07a" fill="transparent" stroke-width="5" />
  <circle cx="400" cy="250" r="20" fill="#ffa07a" />

</svg>