<svg width="500" height="500" xmlns="http://www.w3.org/2000/svg">

<!-- Plate -->
<circle cx="250" cy="250" r="200" fill="#1E90FF"/>

<!-- Jellyfish -->
<path d="M220 180 Q260 140, 300 180 Q260 220, 220 180" stroke="orange" stroke-width="5" fill="none"/>
<circle cx="270" cy="160" r="20" fill="yellow"/>

<!-- Ingredients -->
<rect x="150" y="350" width="40" height="40" fill="#8DC63C"/> <!-- Asparagus -->
<path d="M370 350 Q390 370, 410 350" stroke="#FFD700" stroke-width="5" fill="none"/> <!-- Carrot -->
<circle cx="280" cy="380" r="20" fill="#FF6F91"/> <!-- Cherry -->

<!-- Utensils and Garnishes -->
<!-- Fork -->
<path d="M420 250 L440 270 L420 290 Z"/>
<line x1="435" y1="285" x2="445" y2="285"/>
<!-- Knife -->
<rect x="370" y="220" width="60" height="10" fill="#FFFFFF"/>
<path d="M370 230 L430 230"/>
<!-- Lemon slice garnish -->
<ellipse cx="180" cy="150" rx="40" ry="20" fill="#FFD700"/>
<path d="M160 130 Q180 110, 200 130" stroke="#FFFF00" stroke-width="5" fill="none"/>

<!-- Final touch: Droplets -->
<circle cx="290" cy="210" r="5" fill="#FFFFFF"/>
<circle cx="270" cy="220" r="3" fill="#FFFFFF"/>
<circle cx="310" cy="200" r="4" fill="#FFFFFF"/>

</svg>