<svg width="500" height="500" xmlns="http://www.w3.org/2000/svg" style="font-family: Arial;">

  <!-- Plate -->
  <circle cx="175" cy="275" r="150" fill="#0F284C" stroke="#FFFFFF" stroke-width="3"/>

  <!-- Jellyfish (star ingredient) -->
  <g transform="translate(150, 150)">
    <path d="M-75,-75 A90,90 0 1,1 0,-90 Z" fill="#FFFFFF"/>
    <path d="M0,-80 L20,-130 A40,40 0 0,0 -20,-130 L0,-80 Z" fill="#FFA500" stroke="#FFD700" stroke-width="2"/>
  </g>

  <!-- Ingredients -->
  <rect x="100" y="225" width="40" height="40" fill="#9ACD32" rx="5"/> <!-- Green vegetable (broccoli) -->
  <circle cx="225" cy="225" r="15" fill="#FF6F00"/> <!-- Orange carrot slice -->
  <polygon points="175,225 190,240 160,240" fill="#FFC300"/> <!-- Yellow corn kernel -->

  <!-- Utensils -->
  <g transform="translate(350, 300)">
    <rect width="80" height="20" rx="5" fill="#FFFFFF" stroke="#000000" stroke-width="1"/>
    <path d="M10,10 L60,40 L10,70 Z" fill="#000000"/> <!-- Fork -->
  </g>
  <circle cx="385" cy="325" r="15" stroke="#000000" stroke-width="2"/> <!-- Knife -->

  <!-- Garnishes & Tableware -->
  <path d="M400,100 Q420,60 470,100 T490,30 Z" fill="#FFD700" stroke="#FFFFFF" stroke-width="2"/> <!-- Lemon slice -->
  <circle cx="500" cy="200" r="50" fill="#CC0000"/> <!-- Cherry tomato -->

</svg>