<svg xmlns="http://www.w3.org/2000/svg" viewBox="-50 -50 100 100">
  <defs>
    <!-- Colors -->
    <linearGradient id="note-color" x1="0%" y1="0%" x2="100%" y2="100%">
      <stop offset="0%" style="stop-color:#FF6347;stop-opacity:1" />
      <stop offset="100%" style="stop-color:#FFFFFF;stop-opacity:1" />
    </linearGradient>
    <!-- Animations -->
    <animateTransform
      attributeName="transform"
      type="rotate"
      from="0"
      to="360"
      dur="24s"
      repeatCount="indefinite"
      id="transform-animation"/>
  </defs>
```

Now, let's create the composition in four bars:

**Bar 1:**

```svg
  <circle cx="-25" cy="0" r="15" fill="url(#note-color)" transform="translate(0,-40)"/>
  <path d="M-25,0 Q0,15 25,0 T50,0" stroke="black" fill="transparent"/>
```

**Bar 2:**

```svg
  <circle cx="25" cy="0" r="15" fill="url(#note-color)" transform="translate(0,-40)"/>
  <path d="M-25,0 Q0,-15 25,0 T75,0" stroke="black" fill="transparent"/>
```

**Bar 3:**

```svg
  <circle cx="50" cy="0" r="15" fill="url(#note-color)" transform="translate(0,-40)"/>
  <path d="M25,0 Q75,-15 50,0 T100,0" stroke="black" fill="transparent"/>
```

**Bar 4:**

```svg
  <circle cx="75" cy="0" r="15" fill="url(#note-color)" transform="translate(0,-40)"/>
  <path d="M25,0 Q75,15 50,0 T100,0" stroke="black" fill="transparent"/>
```

Finally, combine all bars and add the animation:

```svg
  <!-- Bar 1 -->
  <use xlink:href="#bar-1" />
  <!-- Bar 2 -->
  <use xlink:href="#bar-2" transform="translate(50,0)" />
  <!-- Bar 3 -->
  <use xlink:href="#bar-1" transform="translate(100,0)"/>
  <!-- Bar 4 -->
  <use xlink:href="#bar-2" transform="translate(150,0)"/>

</svg>