<svg xmlns="http://www.w3.org/2000/svg" viewBox="-50 -50 100 100">
  <!-- Background -->
  <rect x="-50" y="-50" width="100" height="100" fill="#000"/>

  <!-- Jellyfish 1 -->
  <g id="jellyfish1" transform="translate(20, 30)">
    <circle cx="0" cy="-20" r="20" fill="#fff"/>
    <polygon points="15,-10 0,-40 15,-70" fill="#fff">
      <animateMotion begin="0s" dur="6s" repeatCount="indefinite" rotate="auto">
        <mpath href="#path1"/>
      </animateMotion>
    </polygon>
  </g>

  <!-- Jellyfish 2 -->
  <g id="jellyfish2" transform="translate(50, -20)">
    <circle cx="0" cy="-20" r="18" fill="#fff"/>
    <polygon points="12,-8 0,-40 12,-72" fill="#fff">
      <animateMotion begin="0s" dur="5s" repeatCount="indefinite" rotate="auto">
        <mpath href="#path2"/>
      </animateMotion>
    </polygon>
  </g>

  <!-- Jellyfish 3 -->
  <g id="jellyfish3" transform="translate(-10, 40)">
    <circle cx="0" cy="-20" r="15" fill="#fff"/>
    <polygon points="10,-6 0,-40 10,-74" fill="#fff">
      <animateMotion begin="0s" dur="7s" repeatCount="indefinite" rotate="auto">
        <mpath href="#path3"/>
      </animateMotion>
    </polygon>
  </g>

  <!-- Paths for jellyfish motion -->
  <path id="path1" d="M20,-30 Q40,-5 60,-30 T80,-30 Z"/>
  <path id="path2" d="M50,-20 Q70,-10 90,-20 T110,-20 Z"/>
  <path id="path3" d="M-10,40 Q10,60 -10,80 T-30,80 Z"/>

</svg>