<svg width="600px" height="800px" xmlns="http://www.w3.org/2000/svg">
  <!-- Crop Top (Bodice) -->
  <rect x="150" y="100" width="300" height="450" fill="url(#grad1)" stroke="#0D2954" stroke-width="3"/>

  <!-- Sleeves -->
  <path d="M200,100 a100,100 0 0,0 100,-100 q80,0 160,80 a100,100 0 0,0 -100,-100" fill="none" stroke="#0D2954" stroke-width="3"/>
  <path d="M360,280 a75,75 0 0,1 -75,-75 q-37.5,0 -75,37.5 a75,75 0 0,1 75,-75" fill="none" stroke="#0D2954" stroke-width="3"/>

  <!-- Skirt -->
  <path d="M300,650 q0,-250 -150,-125 a150,150 0 0,0 -150,125 q0,250 150,125" fill="#00000000"/>
  <path d="M375,650 a75,75 0 0,1 -75,-75 q-37.5,0 -75,37.5 a75,75 0 0,1 75,-75" fill="#00000000"/>
  <path d="M225,650 a75,75 0 0,1 75,-75 q37.5,0 75,37.5 a75,75 0 0,1 -75,75" fill="#00000000"/>
  <path d="M275,650 a37.5,37.5 0 0,0 37.5,-37.5 q0,-37.5 -37.5,-37.5" fill="#00000000"/>

  <!-- Gradient for Crop Top -->
  <defs>
    <radialGradient id="grad1" cx="50%" cy="50%" r="50%" fx="50%" fy="50%">
      <stop offset="0%" style="stop-color:#0D2954; stop-opacity:1"/>
      <stop offset="100%" style="stop-color:#B3ECFF; stop-opacity:1"/>
    </radialGradient>
  </defs>

  <!-- Bubble pattern for Sleeves and Skirt -->
  <pattern id="bubbles" width="20" height="20">
    <circle cx="5" cy="5" r="4" fill="#FFFFFF" stroke="#0D2954" stroke-width="1"/>
    <rect x="1" y="1" width="18" height="18" fill="#00000000"/>
  </pattern>

</svg>