<svg xmlns="http://www.w3.org/2000/svg" viewBox="-15 -15 70 80">

  <!-- Bodice -->
  <path d="M-15,45 Q0,60 15,45 H30 Q45,60 30,45 V0 H-15 Z" fill="url(#gradient)"/>

  <!-- Sleeves -->
  <circle cx="-15" cy="22.5" r="15" fill="url(#pattern)" />
  <circle cx="15" cy="22.5" r="15" fill="url(#pattern)" />

  <!-- Wings/Tentacles -->
  <path d="M0,45 A15,40 0 0 1 30,85 L60,45 A15,40 0 0 1 30,25 Z" fill="url(#pattern)" />
  <path d="M-15,45 A15,40 0 0 0 -30,85 L-60,45 A15,40 0 0 0 -30,25 Z" fill="url(#pattern)" />

  <!-- Gradients & Patterns -->
  <defs>
    <linearGradient id="gradient" gradientUnits="userSpaceOnUse" x1="-15" y1="45" x2="15" y2="45">
      <stop offset="0%"   stop-color="#0D2C57"/>
      <stop offset="100%" stop-color="#E9D8AB"/>
    </linearGradient>

    <pattern id="pattern" patternUnits="userSpaceOnUse" width="30" height="30">
      <circle cx="15" cy="15" r="2" fill="#FF69B4" />
    </pattern>
  </defs>

</svg>