<svg width="200" height="300" xmlns="http://www.w3.org/2000/svg">
  <!-- Background -->
  <rect width="100%" height="100%" fill="#f8f9fa"/>

  <!-- Body -->
  <ellipse cx="75" cy="150" rx="60" ry="80" fill="#c3b19a"/>
  <path d="M75,150 Q90,120 110,150" stroke="#6d4f26" fill="transparent"/>

  <!-- Head -->
  <ellipse cx="100" cy="120" rx="30" ry="40" fill="#c3b19a"/>
  <path d="M85,120 Q115,110 130,120" stroke="#6d4f26" fill="transparent"/>

  <!-- Ears -->
  <polygon points="70,110 90,90 110,110" fill="#c3b19a"/>
  <polygon points="125,110 145,90 165,110" fill="#c3b19a"/>
  <path d="M70,110 L85,95 L100,110 M125,110 L140,95 L155,110" stroke="#6d4f26" fill="transparent"/>

  <!-- Arms -->
  <path d="M75,150 Q85,180 95,150" stroke="#6d4f26" fill="transparent"/>
  <path d="M95,150 Q105,180 115,150" stroke="#6d4f26" fill="transparent"/>

  <!-- Legs -->
  <path d="M75,220 Q85,250 95,220" stroke="#6d4f26" fill="transparent"/>
  <path d="M110,220 Q120,250 130,220" stroke="#6d4f26" fill="transparent"/>

  <!-- Tail -->
  <path d="M75,280 Q95,280 C115,290 135,280 155,280" stroke="#6d4f26" fill="transparent"/>
</svg>