<svg width="200" height="200" xmlns="http://www.w3.org/2000/svg">
  <!-- Body -->
  <path d="M100,50 Q120,0 140,50 Q160,120 180,50 Q160,90 140,130 Q120,170 100,130 Q80,90 60,50" fill="brown"/>

  <!-- Head -->
  <circle cx="100" cy="130" r="30" fill="brown"/>

  <!-- Ears -->
  <polygon points="80,120 120,120 100,150" fill="brown"/>
  <polygon points="120,120 160,120 140,150" fill="brown"/>

  <!-- Pouch -->
  <path d="M90,180 Q120,210 150,180" stroke="black" fill="tan"/>

  <!-- Legs -->
  <rect x="60" y="160" width="40" height="30" fill="brown"/>
  <rect x="120" y="160" width="40" height="30" fill="brown"/>

  <!-- Tail -->
  <path d="M90,210 Q80,220 70,210 L50,200 Z" fill="brown"/>
</svg>