<svg width="200" height="250" xmlns="http://www.w3.org/2000/svg">

  <!-- Body -->
  <ellipse cx="100" cy="175" rx="85" ry="95"
           fill="brown" stroke="black"/>
  <linearGradient id="bodyGrad" x1="0%" y1="0%" x2="0%" y2="100%">
    <stop offset="0%" style="stop-color:rgb(139,69,19);stop-opacity:1" />
    <stop offset="50%" style="stop-color:rgb(128,47,0);stop-opacity:1"/>
  </linearGradient>
  <ellipse cx="100" cy="175" rx="83" ry="93"
           fill="url(#bodyGrad)" stroke="none"/>

  <!-- Head -->
  <circle cx="100" cy="125" r="40" fill="brown"/>
  <linearGradient id="headGrad" x1="0%" y1="0%" x2="0%" y2="100%">
    <stop offset="0%" style="stop-color:rgb(139,69,19);stop-opacity:1" />
    <stop offset="50%" style="stop-color:rgb(128,47,0);stop-opacity:1"/>
  </linearGradient>
  <circle cx="100" cy="125" r="39" fill="url(#headGrad)" stroke="none"/>

  <!-- Ears -->
  <path d="M60 100 Q80 70, 100 90 Q120 70, 140 100"
        fill="cream" stroke="black"/>
  <path d="M140 100 Q120 70, 100 90 Q80 70, 60 100"
        fill="cream"/>

  <!-- Limbs -->
  <rect x="65" y="180" width="30" height="80"
        rx="20" ry="20" fill="brown"/>
  <rect x="90" y="175" width="30" height="80"
        rx="20" ry="20" fill="cream"/>
  <rect x="65" y="235" width="30" height="45"
        rx="20" ry="20" fill="brown"/>
  <rect x="90" y="230" width="30" height="45"
        rx="20" ry="20" fill="cream"/>

  <!-- Tail -->
  <path d="M80 210 Q90 220, 100 230 Q110 220, 120 210"
        fill="brown"/>
</svg>