<svg width="200" height="200" xmlns="http://www.w3.org/2000/svg">
  <!-- Body -->
  <rect x="50" y="70" width="100" height="90" rx="45" ry="45" fill="#8B4513"/>

  <!-- Head -->
  <path d="M75,50 a45,45 0 1,0 90,0 a45,45 0 1,0 -90,0" fill="white"/>
  <circle cx="82.5" cy="30" r="5" fill="black"/>

  <!-- Ears -->
  <polygon points="60,30 75,15 90,30" fill="#8B4513"/>
  <polygon points="82.5,15 97.5,15 105,30" fill="#8B4513"/>

  <!-- Arms -->
  <path d="M65,80 Q60,95 65,110" stroke="#8B4513" fill="transparent"/>
  <path d="M95,80 Q100,95 95,110" stroke="#8B4513" fill="transparent"/>

  <!-- Legs -->
  <path d="M65,120 Q60,140 70,160" stroke="#8B4513" fill="transparent"/>
  <path d="M95,120 Q100,140 90,160" stroke="#8B4513" fill="transparent"/>

  <!-- Tail -->
  <path d="M70,160 Q75,180 80,160" stroke="#8B4513" fill="transparent"/>
</svg>