<svg width="100" height="150" xmlns="http://www.w3.org/2000/svg">
  <!-- Body -->
  <path d="M50,20 Q60,5 70,20 Q80,5 90,20 Q95,40 100,55 Q95,70 90,80 Q80,70 70,80 Q60,70 50,80 Q45,70 40,80 Z" fill="brown"/>

  <!-- Head -->
  <circle cx="65" cy="55" r="30" fill="tan"/>

  <!-- Ears -->
  <polygon points="65,20 95,20 75,40" style="fill:tan;stroke:black;stroke-width:1"/>

  <!-- Pouch -->
  <path d="M80,90 Q85,100 90,95 Q95,105 100,100 Q105,105 110,95 Q105,90 90,90 Z" fill="tan"/>

  <!-- Legs -->
  <rect x="30" y="80" width="20" height="70" rx="10" style="fill:brown"/>
  <rect x="70" y="80" width="20" height="70" rx="10" style="fill:brown"/>

  <!-- Tail -->
  <polygon points="95,130 105,140 115,130" fill="brown"/>
</svg>