<svg width="200" height="200" xmlns="http://www.w3.org/2000/svg">
  <!-- Body -->
  <path fill="#7A5B41" d="M10,80 Q30,60 60,80 Q90,100 140,80 Q170,50 180,80"/>

  <!-- Head -->
  <path fill="#7A5B41" d="M120,40 Q130,30 160,60 Q170,90 150,90"/>

  <!-- Ears -->
  <path fill="#7A5B41" d="M120,30 Q105,20 120,10 Q135,20 120,30"/>
  <path fill="#7A5B41" d="M160,30 Q175,20 160,10 Q145,20 160,30"/>

  <!-- Legs -->
  <path fill="#7A5B41" d="M80,140 Q90,160 120,140"/>
  <path fill="#7A5B41" d="M150,140 Q160,160 190,140"/>

  <!-- Pouch -->
  <path fill="#E3C8AB" d="M120,140 Q105,170 120,200 Q135,170 120,140"/>

  <!-- Tail -->
  <path fill="#7A5B41" d="M190,160 Q200,180 180,200 Q170,180 190,160"/>

  <!-- Eyes -->
  <circle cx="135" cy="60" r="10" fill="#FFFFFF"/>
  <circle cx="145" cy="60" r="10" fill="#FFFFFF"/>

  <!-- Tail tip -->
  <path fill="#7A5B41" d="M180,210 Q190,220 180,230 Q170,220 180,210"/>
</svg>